<svg width="219" height="284" viewBox="0 0 219 284" fill="none" xmlns="http://www.w3.org/2000/svg">
<path d="M64.9636 32.6909V23.6545H88.2C88.2 23.6545 92.0727 3 111.436 3C130.8 3 134.673 23.6545 134.673 23.6545H152.745V32.6909M64.9636 32.6909H23.6545M64.9636 32.6909V50.7636H152.745V32.6909M152.745 32.6909H196.636M196.636 32.6909H216V280.545H3V32.6909H23.6545M196.636 32.6909V259.891H59.8M59.8 259.891V226.327V223.745H23.6545M59.8 259.891L23.6545 223.745M23.6545 223.745V32.6909" stroke="#219653" stroke-width="5"/>
<path d="M110.146 71.4182V81.1M110.146 90.7818V81.1M110.146 81.1H99.8182H120.473" stroke="#219653" stroke-width="7"/>
<path d="M168.236 107.564H52.0546V128.218H168.236V107.564Z" stroke="#219653" stroke-width="5"/>
<path d="M64.9637 146.291H59.8V148.873H64.9637V146.291Z" stroke="#219653" stroke-width="5"/>
<path d="M64.9637 164.364H59.8V166.945H64.9637V164.364Z" stroke="#219653" stroke-width="5"/>
<path d="M64.9637 182.436H59.8V185.018H64.9637V182.436Z" stroke="#219653" stroke-width="5"/>
<path d="M157.909 146.291H80.4546V148.873H157.909V146.291Z" stroke="#219653" stroke-width="5"/>
<path d="M157.909 164.364H80.4546V166.945H157.909V164.364Z" stroke="#219653" stroke-width="5"/>
<path d="M157.909 185.018H80.4546V187.6H157.909V185.018Z" stroke="#219653" stroke-width="5"/>
<path d="M157.909 213.418H80.4546V241.818H157.909V213.418Z" stroke="#219653" stroke-width="5"/>
</svg>
