<svg width="253" height="300" viewBox="0 0 253 300" fill="none" xmlns="http://www.w3.org/2000/svg">
<mask id="path-1-inside-1" fill="white">
<path d="M66.3061 15.2748V298.347H0V15.2748H66.3061ZM77.403 0H85.1171V6.88674H77.403V0ZM191.864 0H199.592V6.88674H191.864V0ZM168.02 0H175.748V6.88674H168.02V0ZM145.937 0H153.665V6.88674H145.937V0ZM123.468 0H131.196V6.88674H123.468V0ZM100.82 0H108.548V6.88674H100.82V0ZM142.224 31.1418C150.392 31.1418 157.79 34.4612 163.153 39.8191C168.502 45.1908 171.816 52.6009 171.816 60.7823C171.816 68.9638 168.502 76.3739 163.153 81.7318C161.2 83.6738 159 85.3542 156.58 86.704H164.72C172.159 86.704 178.911 89.9408 183.806 95.1747C188.715 100.395 191.754 107.598 191.754 115.546V188.931H185.291V188.655H172.847V270.304C172.847 278.348 171.211 285.992 167.635 291.474C164.225 296.722 159.192 300 152.317 300H108.136V188.655H92.8176V188.931H86.3684V115.546C86.3684 107.598 89.4074 100.395 94.3026 95.1747C99.1979 89.9408 105.963 86.704 113.402 86.704H127.882C125.462 85.3542 123.248 83.6738 121.309 81.7318C115.96 76.3739 112.646 68.9638 112.646 60.7823C112.646 52.6009 115.96 45.1908 121.309 39.8191C126.658 34.4612 134.056 31.1418 142.224 31.1418ZM245.272 291.46H253V298.347H245.272V291.46ZM221.442 291.46H229.156V298.347H221.442V291.46ZM199.345 291.46H207.073V298.347H199.345V291.46ZM176.89 291.46H184.604V298.347H176.89V291.46ZM185.291 181.769V115.546C185.291 109.499 182.981 104.017 179.255 100.037C177.426 98.0809 175.253 96.4969 172.847 95.3813V181.769H185.291ZM108.136 181.769V94.3207C104.588 95.3262 101.398 97.3371 98.8679 100.037C95.1414 104.017 92.8176 109.499 92.8176 115.546V181.769H108.136ZM115.011 181.769H165.972V95.3813H155.397L143.393 128.92L139.983 138.41L136.902 128.81L126.163 95.4777H115.011V181.769ZM165.972 188.655H115.011V293.113H137.645V194.247H144.52V293.113H152.317C156.594 293.113 159.742 291.047 161.888 287.742C164.693 283.444 165.972 277.122 165.972 270.304V188.655ZM148.769 93.5907H132.763L140.34 117.116L148.769 93.5907ZM158.285 44.6949C154.173 40.5767 148.494 38.0286 142.224 38.0286C135.954 38.0286 130.275 40.5767 126.177 44.6949C122.065 48.8132 119.522 54.5016 119.522 60.7823C119.522 67.063 122.065 72.7515 126.177 76.856C130.275 80.9742 135.954 83.5223 142.224 83.5223C148.494 83.5223 154.173 80.9742 158.285 76.856C162.396 72.7515 164.94 67.063 164.94 60.7823C164.94 54.5016 162.396 48.8132 158.285 44.6949ZM45.6387 227.662H59.4307V205.858H38.6946V198.972H59.4307V172.637H44.8412V165.75H59.4307V143.272H40.2897V136.385H59.4307V107.557H45.0062V100.67H59.4307V76.3326H38.3096V69.4458H59.4307V48.827H45.35V41.9402H59.4307V22.1615H6.87537V291.46H59.4307V267.591H39.4921V260.704H59.4307V234.548H45.6387V227.662Z"/>
</mask>
<path d="M66.3061 15.2748V298.347H0V15.2748H66.3061ZM77.403 0H85.1171V6.88674H77.403V0ZM191.864 0H199.592V6.88674H191.864V0ZM168.02 0H175.748V6.88674H168.02V0ZM145.937 0H153.665V6.88674H145.937V0ZM123.468 0H131.196V6.88674H123.468V0ZM100.82 0H108.548V6.88674H100.82V0ZM142.224 31.1418C150.392 31.1418 157.79 34.4612 163.153 39.8191C168.502 45.1908 171.816 52.6009 171.816 60.7823C171.816 68.9638 168.502 76.3739 163.153 81.7318C161.2 83.6738 159 85.3542 156.58 86.704H164.72C172.159 86.704 178.911 89.9408 183.806 95.1747C188.715 100.395 191.754 107.598 191.754 115.546V188.931H185.291V188.655H172.847V270.304C172.847 278.348 171.211 285.992 167.635 291.474C164.225 296.722 159.192 300 152.317 300H108.136V188.655H92.8176V188.931H86.3684V115.546C86.3684 107.598 89.4074 100.395 94.3026 95.1747C99.1979 89.9408 105.963 86.704 113.402 86.704H127.882C125.462 85.3542 123.248 83.6738 121.309 81.7318C115.96 76.3739 112.646 68.9638 112.646 60.7823C112.646 52.6009 115.96 45.1908 121.309 39.8191C126.658 34.4612 134.056 31.1418 142.224 31.1418ZM245.272 291.46H253V298.347H245.272V291.46ZM221.442 291.46H229.156V298.347H221.442V291.46ZM199.345 291.46H207.073V298.347H199.345V291.46ZM176.89 291.46H184.604V298.347H176.89V291.46ZM185.291 181.769V115.546C185.291 109.499 182.981 104.017 179.255 100.037C177.426 98.0809 175.253 96.4969 172.847 95.3813V181.769H185.291ZM108.136 181.769V94.3207C104.588 95.3262 101.398 97.3371 98.8679 100.037C95.1414 104.017 92.8176 109.499 92.8176 115.546V181.769H108.136ZM115.011 181.769H165.972V95.3813H155.397L143.393 128.92L139.983 138.41L136.902 128.81L126.163 95.4777H115.011V181.769ZM165.972 188.655H115.011V293.113H137.645V194.247H144.52V293.113H152.317C156.594 293.113 159.742 291.047 161.888 287.742C164.693 283.444 165.972 277.122 165.972 270.304V188.655ZM148.769 93.5907H132.763L140.34 117.116L148.769 93.5907ZM158.285 44.6949C154.173 40.5767 148.494 38.0286 142.224 38.0286C135.954 38.0286 130.275 40.5767 126.177 44.6949C122.065 48.8132 119.522 54.5016 119.522 60.7823C119.522 67.063 122.065 72.7515 126.177 76.856C130.275 80.9742 135.954 83.5223 142.224 83.5223C148.494 83.5223 154.173 80.9742 158.285 76.856C162.396 72.7515 164.94 67.063 164.94 60.7823C164.94 54.5016 162.396 48.8132 158.285 44.6949ZM45.6387 227.662H59.4307V205.858H38.6946V198.972H59.4307V172.637H44.8412V165.75H59.4307V143.272H40.2897V136.385H59.4307V107.557H45.0062V100.67H59.4307V76.3326H38.3096V69.4458H59.4307V48.827H45.35V41.9402H59.4307V22.1615H6.87537V291.46H59.4307V267.591H39.4921V260.704H59.4307V234.548H45.6387V227.662Z" stroke="#219653" stroke-width="10" mask="url(#path-1-inside-1)"/>
</svg>
