<svg width="297" height="274" viewBox="0 0 297 274" fill="none" xmlns="http://www.w3.org/2000/svg">
<path d="M26.169 35.3C27.8593 25.7708 35.2404 19.4742 42.6496 21.2451C50.0588 22.9879 54.7072 32.1517 53.0169 41.6809C51.3266 51.2382 43.9455 57.5347 36.5363 55.7638C29.127 54.021 24.4787 44.8573 26.169 35.3ZM26.169 35.3C19.7458 29.0315 -6.67955 37.8017 6.75848 57.9845C12.252 66.2206 37.2406 90.901 47.8332 100.037L132.518 179.447M160.324 179.447L243.093 101.639C253.686 92.5032 278.646 67.8229 284.14 59.5867C297.606 39.404 279.942 30.9711 269.011 35.2999M263.969 208.4C263.969 223.719 264.448 230.803 263.518 246.095C262.278 266.502 253.376 271.028 235.909 271L32.733 270.719C7.35009 271.618 6.08235 239.18 34.5642 240.023C58.0597 239.658 115.192 240.782 138.519 239.826C149.534 239.376 146.069 227.88 146.069 226.277M77.1884 85.8412L62.4827 71.168C50.3124 59.0246 48.9601 30.4651 65.807 13.6836C82.6256 -3.0979 115.08 2.07429 127.222 14.2177L146.435 33.3604L165.62 14.2177C177.762 2.07429 210.245 -3.0979 227.063 13.6836C243.882 30.4651 242.53 59.0246 230.388 71.168L215.654 85.8412L147.421 153.951L77.1884 85.8412ZM249.826 21.2451C257.207 19.4742 264.56 25.7708 266.251 35.3C267.913 44.8573 263.293 54.021 255.911 55.7638C248.502 57.5347 241.149 51.2382 239.459 41.6809C237.797 32.1517 242.417 22.9879 249.826 21.2451ZM122.602 179.447H170.212C174.072 179.447 177.227 182.567 177.227 186.418V192.461C177.227 196.312 174.072 199.461 170.212 199.461H155.929V218.913C155.929 221.92 153.45 224.366 150.436 224.366H140.265C137.251 224.366 134.8 221.92 134.8 218.913V199.461H122.602C118.742 199.461 115.587 196.312 115.587 192.461V186.418C115.587 182.567 118.742 179.447 122.602 179.447ZM135.617 47.7807H157.31V69.397H179.875V90.7604H157.31V113.557H135.617V90.7604H113.953V69.397H135.617V47.7807ZM264.56 156.397C280.816 156.397 294 169.552 294 185.771C294 201.991 280.816 215.118 264.56 215.118C248.305 215.118 235.149 201.991 235.149 185.771C235.149 169.552 248.305 156.397 264.56 156.397ZM264.786 178.125C269.744 178.125 273.773 182.173 273.773 187.12C273.773 192.096 269.744 196.116 264.786 196.116C259.799 196.116 255.771 192.096 255.771 187.12C255.771 182.173 259.799 178.125 264.786 178.125ZM253.968 215.568H274.618C279.66 215.568 283.802 219.362 283.802 224.029C283.802 228.667 279.66 232.49 274.618 232.49H253.968C248.925 232.49 244.812 228.667 244.812 224.029C244.812 219.362 248.925 215.568 253.968 215.568Z" stroke="#219653" stroke-width="5"/>
</svg>
