<svg width="300" height="208" viewBox="0 0 300 208" fill="none" xmlns="http://www.w3.org/2000/svg">
<mask id="path-1-inside-1" fill="white">
<path d="M82.3793 71.1109H81.1726V72.3298H82.3793V71.1109ZM262.923 69.518H261.702V70.7369H262.923V69.518ZM229.841 77.6624H244.752V85.502H229.841V143.136C229.841 146.349 231.159 149.272 233.281 151.405C235.417 153.524 238.344 154.84 241.562 154.84H253.546C256.764 154.84 259.691 153.524 261.827 151.405C263.95 149.272 265.267 146.349 265.267 143.136V141.82H256.695V132.291H265.267V124.991H256.806V115.462H265.267V107.705H257.139V98.1757H265.267V90.8762H257.25V81.3467H265.267V74.8922H257.541V65.3627H265.267V55.0715H257.056V45.542H265.267V31.6772H229.841V77.6624ZM272.203 31.6772V143.136C272.203 148.261 270.108 152.915 266.724 156.294C263.339 159.674 258.679 161.765 253.546 161.765H241.562C236.43 161.765 231.755 159.674 228.384 156.294C225 152.915 222.905 148.261 222.905 143.136V31.6772H181.751V143.939C181.751 149.064 179.656 153.718 176.271 157.098C172.901 160.463 168.226 162.569 163.094 162.569H151.11C145.977 162.569 141.317 160.463 137.932 157.098C134.548 153.718 132.453 149.064 132.453 143.939V31.6772H91.659V144.729C91.659 149.854 89.5644 154.521 86.1799 157.887C82.8093 161.267 78.1348 163.358 73.0026 163.358H61.0181C55.8859 163.358 51.2253 161.267 47.8408 157.887C44.4563 154.521 42.3618 149.854 42.3618 144.729V31.6772H16.1041V175.533H299.473V208H0V175.533H9.16867V24.7517H29.1983C26.9512 22.2862 25.578 19.0174 25.578 15.4438C25.578 11.6348 27.1315 8.17207 29.6421 5.66505C32.1528 3.15802 35.6205 1.60671 39.435 1.60671H93.7812C97.5957 1.60671 101.063 3.15802 103.574 5.66505C106.085 8.17207 107.652 11.6348 107.652 15.4438C107.652 19.0174 106.265 22.2862 104.032 24.7517H120.08C119.969 24.6409 119.845 24.5301 119.734 24.4193C117.223 21.9122 115.67 18.4495 115.67 14.6405C115.67 10.8315 117.223 7.36872 119.734 4.86169C122.244 2.35466 125.712 0.803356 129.527 0.803356H183.873C187.687 0.803356 191.155 2.35466 193.666 4.86169C196.176 7.36872 197.744 10.8315 197.744 14.6405C197.744 18.4495 196.176 21.9122 193.666 24.4193C193.555 24.5301 193.444 24.6409 193.333 24.7517H211.462C211.018 24.3916 210.588 24.0176 210.186 23.6159C207.675 21.1089 206.122 17.6461 206.122 13.8371C206.122 10.0281 207.675 6.57921 210.186 4.07218C212.697 1.56516 216.164 0 219.979 0H274.325C278.139 0 281.607 1.56516 284.118 4.07218C286.628 6.57921 288.182 10.0281 288.182 13.8371C288.182 17.6461 286.628 21.1089 284.118 23.6159C283.716 24.0176 283.286 24.3916 282.842 24.7517H300V31.6772H272.203ZM274.325 6.92548H219.979C218.078 6.92548 216.345 7.71499 215.096 8.96158C213.834 10.222 213.057 11.9395 213.057 13.8371C213.057 15.7347 213.834 17.4661 215.096 18.7265C216.345 19.9731 218.078 20.7626 219.979 20.7626H274.325C276.225 20.7626 277.959 19.9731 279.207 18.7265C280.47 17.4661 281.247 15.7347 281.247 13.8371C281.247 11.9395 280.47 10.222 279.207 8.96158C277.959 7.71499 276.225 6.92548 274.325 6.92548ZM262.188 119.617H260.967V120.836H262.188V119.617ZM262.077 136.446H260.856V137.665H262.077V136.446ZM262.632 85.502H261.411V86.7209H262.632V85.502ZM262.521 102.331H261.3V103.55H262.521V102.331ZM262.438 49.6973H261.217V50.9162H262.438V49.6973ZM172.485 70.3075H171.264V71.5264H172.485V70.3075ZM139.389 103.675H154.3V111.5H139.389V143.939C139.389 147.153 140.706 150.075 142.843 152.194C144.965 154.314 147.892 155.643 151.11 155.643H163.094C166.312 155.643 169.253 154.314 171.375 152.194C173.497 150.075 174.815 147.153 174.815 143.939V142.61H166.243V133.08H174.815V125.781H166.354V116.251H174.815V108.508H166.687V98.979H174.815V91.6657H166.798V82.1362H174.815V75.6817H167.103V66.1522H174.815V55.8748H166.617V46.3453H174.815V31.6772H139.389V103.675ZM183.873 7.72884H129.527C127.626 7.72884 125.906 8.50449 124.644 9.76493C123.382 11.0115 122.605 12.7429 122.605 14.6405C122.605 16.5381 123.382 18.2694 124.644 19.516C125.906 20.7765 127.626 21.5521 129.527 21.5521H183.873C185.773 21.5521 187.507 20.7765 188.769 19.516C190.018 18.2694 190.808 16.5381 190.808 14.6405C190.808 12.7429 190.018 11.0115 188.769 9.76493C187.507 8.50449 185.773 7.72884 183.873 7.72884ZM171.736 120.406H170.515V121.625H171.736V120.406ZM171.625 137.235H170.404V138.454H171.625V137.235ZM172.18 86.2915H170.959V87.5104H172.18V86.2915ZM172.069 103.134H170.848V104.353H172.069V103.134ZM171.985 50.5006H170.779V51.7195H171.985V50.5006ZM49.2972 63.3266H66.6081V71.1524H49.2972V144.729C49.2972 147.942 50.6149 150.879 52.7511 152.998C54.8733 155.117 57.8001 156.433 61.0181 156.433H73.0026C76.2206 156.433 79.1474 155.117 81.2835 152.998C83.4058 150.879 84.7235 147.942 84.7235 144.729V143.413H76.1513V133.883H84.7235V126.584H76.2623V117.055H84.7235V109.298H76.5952V99.7685H84.7235V92.4691H76.7061V82.9396H84.7235V76.485H77.0113V66.9556H84.7235V56.6643H76.5119V47.1348H84.7235V31.6772H49.2972V63.3266ZM93.7812 8.5322H39.435C37.5347 8.5322 35.8008 9.30785 34.5524 10.5544C33.2902 11.8149 32.5134 13.5462 32.5134 15.4438C32.5134 17.3414 33.2902 19.0589 34.5524 20.3194C35.8008 21.5798 37.5347 22.3555 39.435 22.3555H93.7812C95.6815 22.3555 97.4154 21.5798 98.6776 20.3194C99.926 19.0589 100.717 17.3414 100.717 15.4438C100.717 13.5462 99.926 11.8149 98.6776 10.5544C97.4154 9.30785 95.6815 8.5322 93.7812 8.5322ZM81.6442 121.21H80.4235V122.429H81.6442V121.21ZM81.5332 138.039H80.3126V139.258H81.5332V138.039ZM82.088 87.0949H80.8674V88.3138H82.088V87.0949ZM81.9771 103.924H80.7564V105.143H81.9771V103.924ZM81.8938 51.2901H80.6732V52.509H81.8938V51.2901ZM6.93545 182.459V201.075H292.537V182.459H6.93545Z"/>
</mask>
<path d="M82.3793 71.1109H81.1726V72.3298H82.3793V71.1109ZM262.923 69.518H261.702V70.7369H262.923V69.518ZM229.841 77.6624H244.752V85.502H229.841V143.136C229.841 146.349 231.159 149.272 233.281 151.405C235.417 153.524 238.344 154.84 241.562 154.84H253.546C256.764 154.84 259.691 153.524 261.827 151.405C263.95 149.272 265.267 146.349 265.267 143.136V141.82H256.695V132.291H265.267V124.991H256.806V115.462H265.267V107.705H257.139V98.1757H265.267V90.8762H257.25V81.3467H265.267V74.8922H257.541V65.3627H265.267V55.0715H257.056V45.542H265.267V31.6772H229.841V77.6624ZM272.203 31.6772V143.136C272.203 148.261 270.108 152.915 266.724 156.294C263.339 159.674 258.679 161.765 253.546 161.765H241.562C236.43 161.765 231.755 159.674 228.384 156.294C225 152.915 222.905 148.261 222.905 143.136V31.6772H181.751V143.939C181.751 149.064 179.656 153.718 176.271 157.098C172.901 160.463 168.226 162.569 163.094 162.569H151.11C145.977 162.569 141.317 160.463 137.932 157.098C134.548 153.718 132.453 149.064 132.453 143.939V31.6772H91.659V144.729C91.659 149.854 89.5644 154.521 86.1799 157.887C82.8093 161.267 78.1348 163.358 73.0026 163.358H61.0181C55.8859 163.358 51.2253 161.267 47.8408 157.887C44.4563 154.521 42.3618 149.854 42.3618 144.729V31.6772H16.1041V175.533H299.473V208H0V175.533H9.16867V24.7517H29.1983C26.9512 22.2862 25.578 19.0174 25.578 15.4438C25.578 11.6348 27.1315 8.17207 29.6421 5.66505C32.1528 3.15802 35.6205 1.60671 39.435 1.60671H93.7812C97.5957 1.60671 101.063 3.15802 103.574 5.66505C106.085 8.17207 107.652 11.6348 107.652 15.4438C107.652 19.0174 106.265 22.2862 104.032 24.7517H120.08C119.969 24.6409 119.845 24.5301 119.734 24.4193C117.223 21.9122 115.67 18.4495 115.67 14.6405C115.67 10.8315 117.223 7.36872 119.734 4.86169C122.244 2.35466 125.712 0.803356 129.527 0.803356H183.873C187.687 0.803356 191.155 2.35466 193.666 4.86169C196.176 7.36872 197.744 10.8315 197.744 14.6405C197.744 18.4495 196.176 21.9122 193.666 24.4193C193.555 24.5301 193.444 24.6409 193.333 24.7517H211.462C211.018 24.3916 210.588 24.0176 210.186 23.6159C207.675 21.1089 206.122 17.6461 206.122 13.8371C206.122 10.0281 207.675 6.57921 210.186 4.07218C212.697 1.56516 216.164 0 219.979 0H274.325C278.139 0 281.607 1.56516 284.118 4.07218C286.628 6.57921 288.182 10.0281 288.182 13.8371C288.182 17.6461 286.628 21.1089 284.118 23.6159C283.716 24.0176 283.286 24.3916 282.842 24.7517H300V31.6772H272.203ZM274.325 6.92548H219.979C218.078 6.92548 216.345 7.71499 215.096 8.96158C213.834 10.222 213.057 11.9395 213.057 13.8371C213.057 15.7347 213.834 17.4661 215.096 18.7265C216.345 19.9731 218.078 20.7626 219.979 20.7626H274.325C276.225 20.7626 277.959 19.9731 279.207 18.7265C280.47 17.4661 281.247 15.7347 281.247 13.8371C281.247 11.9395 280.47 10.222 279.207 8.96158C277.959 7.71499 276.225 6.92548 274.325 6.92548ZM262.188 119.617H260.967V120.836H262.188V119.617ZM262.077 136.446H260.856V137.665H262.077V136.446ZM262.632 85.502H261.411V86.7209H262.632V85.502ZM262.521 102.331H261.3V103.55H262.521V102.331ZM262.438 49.6973H261.217V50.9162H262.438V49.6973ZM172.485 70.3075H171.264V71.5264H172.485V70.3075ZM139.389 103.675H154.3V111.5H139.389V143.939C139.389 147.153 140.706 150.075 142.843 152.194C144.965 154.314 147.892 155.643 151.11 155.643H163.094C166.312 155.643 169.253 154.314 171.375 152.194C173.497 150.075 174.815 147.153 174.815 143.939V142.61H166.243V133.08H174.815V125.781H166.354V116.251H174.815V108.508H166.687V98.979H174.815V91.6657H166.798V82.1362H174.815V75.6817H167.103V66.1522H174.815V55.8748H166.617V46.3453H174.815V31.6772H139.389V103.675ZM183.873 7.72884H129.527C127.626 7.72884 125.906 8.50449 124.644 9.76493C123.382 11.0115 122.605 12.7429 122.605 14.6405C122.605 16.5381 123.382 18.2694 124.644 19.516C125.906 20.7765 127.626 21.5521 129.527 21.5521H183.873C185.773 21.5521 187.507 20.7765 188.769 19.516C190.018 18.2694 190.808 16.5381 190.808 14.6405C190.808 12.7429 190.018 11.0115 188.769 9.76493C187.507 8.50449 185.773 7.72884 183.873 7.72884ZM171.736 120.406H170.515V121.625H171.736V120.406ZM171.625 137.235H170.404V138.454H171.625V137.235ZM172.18 86.2915H170.959V87.5104H172.18V86.2915ZM172.069 103.134H170.848V104.353H172.069V103.134ZM171.985 50.5006H170.779V51.7195H171.985V50.5006ZM49.2972 63.3266H66.6081V71.1524H49.2972V144.729C49.2972 147.942 50.6149 150.879 52.7511 152.998C54.8733 155.117 57.8001 156.433 61.0181 156.433H73.0026C76.2206 156.433 79.1474 155.117 81.2835 152.998C83.4058 150.879 84.7235 147.942 84.7235 144.729V143.413H76.1513V133.883H84.7235V126.584H76.2623V117.055H84.7235V109.298H76.5952V99.7685H84.7235V92.4691H76.7061V82.9396H84.7235V76.485H77.0113V66.9556H84.7235V56.6643H76.5119V47.1348H84.7235V31.6772H49.2972V63.3266ZM93.7812 8.5322H39.435C37.5347 8.5322 35.8008 9.30785 34.5524 10.5544C33.2902 11.8149 32.5134 13.5462 32.5134 15.4438C32.5134 17.3414 33.2902 19.0589 34.5524 20.3194C35.8008 21.5798 37.5347 22.3555 39.435 22.3555H93.7812C95.6815 22.3555 97.4154 21.5798 98.6776 20.3194C99.926 19.0589 100.717 17.3414 100.717 15.4438C100.717 13.5462 99.926 11.8149 98.6776 10.5544C97.4154 9.30785 95.6815 8.5322 93.7812 8.5322ZM81.6442 121.21H80.4235V122.429H81.6442V121.21ZM81.5332 138.039H80.3126V139.258H81.5332V138.039ZM82.088 87.0949H80.8674V88.3138H82.088V87.0949ZM81.9771 103.924H80.7564V105.143H81.9771V103.924ZM81.8938 51.2901H80.6732V52.509H81.8938V51.2901ZM6.93545 182.459V201.075H292.537V182.459H6.93545Z" stroke="#219653" stroke-width="10" mask="url(#path-1-inside-1)"/>
</svg>
