<svg width="300" height="187" viewBox="0 0 300 187" fill="none" xmlns="http://www.w3.org/2000/svg">
<mask id="path-1-inside-1" fill="white">
<path d="M81.0012 0H168.695C174.324 0 179.449 2.30088 183.165 6.02719C186.869 9.7535 189.174 14.8828 189.174 20.5396C189.174 24.771 187.876 28.7217 185.649 32.0215C185.079 32.8521 184.463 33.6378 183.78 34.3785H276.241C281.87 34.3785 286.996 36.6907 290.711 40.417C294.416 44.132 296.721 49.2726 296.721 54.9181C296.721 60.5749 294.427 65.693 290.723 69.4081C287.018 73.1232 281.893 75.4353 276.253 75.4577L225.064 75.6597C225.456 75.9965 225.837 76.3556 226.206 76.726C229.91 80.4411 232.215 85.5816 232.215 91.2272C232.215 96.884 229.91 102.024 226.206 105.74C222.49 109.466 217.365 111.778 211.736 111.778H210.359C211.109 112.35 211.814 112.968 212.474 113.63C216.19 117.356 218.495 122.485 218.495 128.142L218.484 128.154V128.344C218.428 133.923 216.134 138.996 212.474 142.677C209.531 145.64 205.715 147.705 201.451 148.413C202.033 148.884 202.593 149.389 203.119 149.916C206.834 153.643 209.139 158.772 209.139 164.429H209.128V164.552C209.095 170.153 206.8 175.26 203.119 178.953C199.437 182.656 194.356 184.957 188.76 184.957H188.637C150.532 184.722 112.023 184.351 73.9732 184.351C53.6278 184.351 35.1401 176.001 21.7331 162.555C8.32619 149.108 0 130.567 0 110.162V74.47C0 54.0651 8.32619 35.5234 21.7331 22.0772C38.6429 5.11806 57.8133 0 81.0012 0ZM275.906 104.236C278.994 117.861 285.44 127.985 290.79 136.381C295.848 144.316 300 150.826 300 157.807C300 165.675 297.997 173.599 292.882 179.233C288.596 183.947 282.262 187 273.276 187C264.289 187 257.955 183.947 253.669 179.233C248.566 173.599 246.551 165.675 246.551 157.807C246.551 150.826 250.703 144.316 255.762 136.381C261.111 127.985 267.557 117.861 270.646 104.236L273.276 92.6301L275.906 104.236ZM286.246 139.288C281.893 132.452 276.846 124.539 273.276 114.494C269.706 124.539 264.659 132.452 260.305 139.288C255.728 146.471 251.968 152.375 251.968 157.807C251.968 164.463 253.579 171.073 257.675 175.585C260.965 179.222 266.001 181.568 273.276 181.568C280.561 181.568 285.586 179.222 288.887 175.585C292.983 171.073 294.584 164.463 294.584 157.807C294.584 152.375 290.835 146.471 286.246 139.288ZM276.7 48.3746V62.135H271.295V48.3746H276.7ZM93.7815 39.9231V34.5132L173.966 34.704L174.268 34.5806C177.088 33.447 179.494 31.4716 181.184 28.9799C182.807 26.578 183.758 23.671 183.758 20.5396C183.758 16.3868 182.068 12.6043 179.338 9.86573C176.596 7.12712 172.835 5.4211 168.695 5.4211H81.0012C59.2905 5.4211 41.4295 9.9892 25.5605 25.9158C13.1272 38.3742 5.4165 55.5691 5.4165 74.47V110.162C5.4165 129.063 13.1272 146.258 25.5605 158.716C37.9826 171.186 55.1274 178.919 73.9732 178.919C112.202 178.919 150.442 179.312 188.66 179.559H188.76C192.856 179.559 196.583 177.864 199.291 175.136C202.011 172.398 203.712 168.649 203.734 164.53V164.429H203.723C203.723 160.276 202.022 156.494 199.291 153.755C196.561 151.016 192.789 149.31 188.648 149.31H109.382H114.082L113.881 143.014C144.141 142.857 167.744 142.969 198.027 143.272H198.183V143.261C202.257 143.261 205.961 141.577 208.647 138.861C211.355 136.145 213.045 132.396 213.09 128.299V128.142H213.079C213.079 123.989 211.389 120.207 208.647 117.468C205.916 114.73 202.145 113.024 198.004 113.024H116.343V106.346H211.736C215.876 106.346 219.637 104.651 222.378 101.901C225.109 99.1624 226.799 95.3912 226.799 91.2272C226.799 87.0744 225.109 83.3032 222.378 80.5645C219.637 77.8147 215.876 76.1199 211.736 76.1199H116.421L116.332 73.4935V73.4711L116.231 70.6876L276.23 70.0478C280.371 70.0366 284.153 68.3194 286.895 65.5695C289.615 62.8421 291.316 59.0709 291.316 54.9181C291.316 50.7653 289.615 46.9941 286.884 44.2555C284.153 41.5057 280.382 39.8109 276.241 39.8109L93.7815 39.9231Z"/>
</mask>
<path d="M81.0012 0H168.695C174.324 0 179.449 2.30088 183.165 6.02719C186.869 9.7535 189.174 14.8828 189.174 20.5396C189.174 24.771 187.876 28.7217 185.649 32.0215C185.079 32.8521 184.463 33.6378 183.78 34.3785H276.241C281.87 34.3785 286.996 36.6907 290.711 40.417C294.416 44.132 296.721 49.2726 296.721 54.9181C296.721 60.5749 294.427 65.693 290.723 69.4081C287.018 73.1232 281.893 75.4353 276.253 75.4577L225.064 75.6597C225.456 75.9965 225.837 76.3556 226.206 76.726C229.91 80.4411 232.215 85.5816 232.215 91.2272C232.215 96.884 229.91 102.024 226.206 105.74C222.49 109.466 217.365 111.778 211.736 111.778H210.359C211.109 112.35 211.814 112.968 212.474 113.63C216.19 117.356 218.495 122.485 218.495 128.142L218.484 128.154V128.344C218.428 133.923 216.134 138.996 212.474 142.677C209.531 145.64 205.715 147.705 201.451 148.413C202.033 148.884 202.593 149.389 203.119 149.916C206.834 153.643 209.139 158.772 209.139 164.429H209.128V164.552C209.095 170.153 206.8 175.26 203.119 178.953C199.437 182.656 194.356 184.957 188.76 184.957H188.637C150.532 184.722 112.023 184.351 73.9732 184.351C53.6278 184.351 35.1401 176.001 21.7331 162.555C8.32619 149.108 0 130.567 0 110.162V74.47C0 54.0651 8.32619 35.5234 21.7331 22.0772C38.6429 5.11806 57.8133 0 81.0012 0ZM275.906 104.236C278.994 117.861 285.44 127.985 290.79 136.381C295.848 144.316 300 150.826 300 157.807C300 165.675 297.997 173.599 292.882 179.233C288.596 183.947 282.262 187 273.276 187C264.289 187 257.955 183.947 253.669 179.233C248.566 173.599 246.551 165.675 246.551 157.807C246.551 150.826 250.703 144.316 255.762 136.381C261.111 127.985 267.557 117.861 270.646 104.236L273.276 92.6301L275.906 104.236ZM286.246 139.288C281.893 132.452 276.846 124.539 273.276 114.494C269.706 124.539 264.659 132.452 260.305 139.288C255.728 146.471 251.968 152.375 251.968 157.807C251.968 164.463 253.579 171.073 257.675 175.585C260.965 179.222 266.001 181.568 273.276 181.568C280.561 181.568 285.586 179.222 288.887 175.585C292.983 171.073 294.584 164.463 294.584 157.807C294.584 152.375 290.835 146.471 286.246 139.288ZM276.7 48.3746V62.135H271.295V48.3746H276.7ZM93.7815 39.9231V34.5132L173.966 34.704L174.268 34.5806C177.088 33.447 179.494 31.4716 181.184 28.9799C182.807 26.578 183.758 23.671 183.758 20.5396C183.758 16.3868 182.068 12.6043 179.338 9.86573C176.596 7.12712 172.835 5.4211 168.695 5.4211H81.0012C59.2905 5.4211 41.4295 9.9892 25.5605 25.9158C13.1272 38.3742 5.4165 55.5691 5.4165 74.47V110.162C5.4165 129.063 13.1272 146.258 25.5605 158.716C37.9826 171.186 55.1274 178.919 73.9732 178.919C112.202 178.919 150.442 179.312 188.66 179.559H188.76C192.856 179.559 196.583 177.864 199.291 175.136C202.011 172.398 203.712 168.649 203.734 164.53V164.429H203.723C203.723 160.276 202.022 156.494 199.291 153.755C196.561 151.016 192.789 149.31 188.648 149.31H109.382H114.082L113.881 143.014C144.141 142.857 167.744 142.969 198.027 143.272H198.183V143.261C202.257 143.261 205.961 141.577 208.647 138.861C211.355 136.145 213.045 132.396 213.09 128.299V128.142H213.079C213.079 123.989 211.389 120.207 208.647 117.468C205.916 114.73 202.145 113.024 198.004 113.024H116.343V106.346H211.736C215.876 106.346 219.637 104.651 222.378 101.901C225.109 99.1624 226.799 95.3912 226.799 91.2272C226.799 87.0744 225.109 83.3032 222.378 80.5645C219.637 77.8147 215.876 76.1199 211.736 76.1199H116.421L116.332 73.4935V73.4711L116.231 70.6876L276.23 70.0478C280.371 70.0366 284.153 68.3194 286.895 65.5695C289.615 62.8421 291.316 59.0709 291.316 54.9181C291.316 50.7653 289.615 46.9941 286.884 44.2555C284.153 41.5057 280.382 39.8109 276.241 39.8109L93.7815 39.9231Z" stroke="#219653" stroke-width="10" mask="url(#path-1-inside-1)"/>
</svg>
