<svg width="278" height="300" viewBox="0 0 278 300" fill="none" xmlns="http://www.w3.org/2000/svg">
<mask id="path-1-inside-1" fill="white">
<path d="M25.6028 0.0430529H150.79C151.191 -0.014351 151.622 -0.014351 152.081 0.0430529H202.856C210.448 0.0430529 217.351 3.14286 222.345 8.15136C227.354 13.1455 230.454 20.0483 230.454 27.64V124.911L230.956 125.614C234.903 131.068 238.72 136.463 242.366 141.831C245.982 147.126 249.599 152.637 253.273 158.492C256.846 164.19 260.348 170.059 263.792 176.158C267.409 182.559 268.743 191.026 269.016 199.665C269.289 208.089 268.586 216.528 268.011 223.344V223.359C267.696 227.104 267.423 230.29 267.366 232.141H267.495C267.524 232.888 267.552 233.62 267.567 234.366C269.375 242.431 270.322 246.794 271.083 251.056C271.858 255.39 272.489 260.011 273.695 268.736C273.967 270.789 274.297 273.214 274.958 277.907C275.417 281.179 276.005 285.398 276.838 291.224L277.426 295.314L278 299.419H269.748C260.735 299.419 251.034 299.605 241.461 299.792H241.433L241.375 299.806V299.792C220.121 300.194 199.383 300.596 197.274 294.999C196.685 293.449 196.226 291.799 195.81 290.105C195.365 288.239 195.078 286.776 194.791 285.355C194.36 283.116 193.93 280.949 193.557 279.615C193.557 279.6 193.585 279.586 193.657 279.586L194.073 279.471C193.313 279.428 192.681 279.385 192.15 279.356C190.629 279.27 190.069 279.227 189.452 279.198C181.458 278.739 175.417 278.38 169.475 277.247C163.433 276.084 157.621 274.147 150.244 270.502C146.513 268.65 143.298 266.369 140.658 263.958C137.558 261.116 135.261 258.074 133.841 255.376C133.324 254.371 132.893 253.381 132.578 252.419C132.233 251.386 132.018 250.41 131.903 249.506H28.0138C20.3072 249.506 13.3037 246.363 8.22332 241.283C3.1573 236.217 0 229.214 0 221.507V25.6452C0 18.5989 2.88462 12.1983 7.52011 7.56297C12.1556 2.9276 18.5563 0.0430529 25.6028 0.0430529ZM260.348 232.615L260.233 232.629C260.247 222.354 265.428 193.595 257.564 179.66C244.073 155.766 229.492 135.387 213.362 113.789C201.694 98.1607 188.95 120.663 200.101 143.854L217.782 180.621L218.6 228.353C219.045 254.543 192.064 244.541 166.72 245.918C163.204 246.119 156.444 245.918 141.131 245.918C135.764 245.918 140.701 257.801 153.416 264.087C168.528 271.549 176.479 271.19 195.853 272.41C201.45 272.755 201.091 284.838 203.961 292.473C204.478 293.836 248.12 292.243 269.748 292.243C266.404 268.722 265.443 260.671 264.28 253.768C263.261 256.251 261.998 258.519 260.491 260.47C257.104 264.833 252.541 267.617 246.714 267.89C245.178 267.962 243.6 267.861 241.964 267.574L243.198 260.513C244.346 260.714 245.408 260.786 246.384 260.743C249.9 260.585 252.699 258.834 254.823 256.108C257.205 253.036 258.798 248.746 259.659 243.924C260.305 240.307 260.52 236.461 260.348 232.615ZM184.07 231.998C185.175 207.702 187.213 163.242 196.126 152.092L193.657 146.94C190.816 141.041 189.309 135.158 188.821 129.733C188.275 123.49 189.093 117.779 190.816 113.301C191.433 111.679 192.179 110.187 193.04 108.852C193.944 107.474 194.963 106.255 196.068 105.236C197.432 103.987 198.924 103.026 200.517 102.394C202.139 101.748 203.847 101.418 205.64 101.461C206.502 101.476 207.363 101.576 208.224 101.763C194.992 82.7765 179.837 80.2937 166.576 78.1267C150.216 75.4575 136.381 73.19 130.626 47.9036C128.947 48.7646 127.196 49.4535 125.402 49.9988C125.373 52.3954 125.316 55.3374 125.259 58.2937C125.115 65.6844 124.972 73.2331 125.503 80.5521C126.694 78.7438 128.143 77.1939 129.851 75.9741C132.434 74.1515 135.52 73.1183 139.036 73.2331C145.738 73.4196 153.961 77.8541 162.816 89.1339C168.442 96.2951 171.513 107.919 173.006 120.606C175.072 138.214 174.154 158.09 172.805 170.274C171.814 179.129 168.872 184.037 164.682 186.003C158.568 188.902 150.79 185.042 143.112 177.909C136.266 171.537 129.234 162.41 123.78 153.541C120.279 147.873 117.466 142.204 115.744 137.21C114.983 152.092 105.569 168.323 95.0777 177.622C91.375 180.894 87.4858 183.362 83.7401 184.697C79.5639 186.161 75.4881 186.276 71.8716 184.597C67.5662 182.616 64.1936 178.239 62.4571 170.848C60.6919 163.343 60.7923 144.945 62.5288 127.867C64.007 113.373 66.7194 99.5815 70.5225 93.6976C78.6167 81.1979 86.6391 76.1894 93.3125 75.7588C96.5415 75.5579 99.4405 76.3903 101.938 77.9689C103.272 78.8299 104.478 79.8919 105.525 81.1261C105.956 74.2233 105.813 67.1482 105.683 60.2167C105.612 56.6433 105.54 53.0986 105.54 50.5155C103.387 49.9988 101.292 49.2669 99.2539 48.2337C93.212 71.9415 80.2384 73.5775 64.0931 75.6153C47.2303 77.7536 26.3921 80.3942 7.17568 117.118V181.827C11.5098 173.79 16.3175 164.218 17.7096 161.362C22.0867 152.364 26.4639 149.853 30.7406 151.934C41.1023 156.971 43.4128 207.429 44.6183 233.821C44.7619 237.078 44.891 239.948 45.0202 242.331H133.712C133.97 242.001 134.257 241.671 134.558 241.355C135.434 240.508 136.438 239.848 137.601 239.389C138.706 238.973 139.883 238.743 141.131 238.743C143.069 238.743 150.187 238.786 155.813 238.829H155.956C158.64 238.843 160.764 238.858 162.472 238.858C164.065 238.858 165.313 238.829 166.346 238.772C169.619 238.599 172.919 238.599 176.192 238.686C178.875 238.757 181.344 238.886 183.74 239.016C183.841 236.92 183.956 234.581 184.07 231.998ZM200.144 160.43C195.351 168.811 192.265 209.252 191.217 232.299C191.103 234.94 190.988 237.351 190.887 239.389C191.806 239.432 192.681 239.46 193.485 239.489C195.006 239.532 196.47 239.547 197.819 239.532C202.239 239.446 205.928 238.929 208.267 237.265C210.333 235.801 211.525 233.103 211.453 228.468L210.649 182.301L200.144 160.43ZM37.8589 242.331C37.744 240.035 37.6149 237.25 37.4714 234.122C36.3376 209.209 34.1562 161.549 27.6263 158.377C27.368 158.248 26.306 160.028 24.1533 164.477C22.589 167.677 16.8054 179.186 12.1699 187.639C10.3186 191.012 8.56776 193.982 7.17568 195.977V221.507C7.17568 227.233 9.5293 232.428 13.3037 236.217C17.0781 239.991 22.2876 242.331 28.0138 242.331H37.8589ZM137.041 43.627C141.447 66.7608 153.43 68.7269 167.739 71.0661C185.721 74.008 206.875 77.4666 223.278 114.176V27.64C223.278 22.0288 220.982 16.9198 217.279 13.2173C213.577 9.5147 208.468 7.21854 202.856 7.21854H154.621C151.292 22.2297 146.599 32.7776 140.629 39.8096C139.409 41.2304 138.146 42.522 136.826 43.67L137.041 43.627ZM85.0317 7.21854C87.6006 23.5356 92.0209 33.0216 97.5174 38.2884C102.77 43.3256 109.242 44.5167 116.031 44.2871C123.565 44.0288 129.966 41.3165 135.19 35.1743C140.213 29.276 144.26 20.2205 147.288 7.21854H85.0317ZM7.17568 102.853C26.306 73.2044 46.5127 70.6355 63.2033 68.5259C77.1242 66.7608 88.2178 65.3544 92.9393 43.8135C92.8102 43.6844 92.681 43.5696 92.5519 43.4404C85.9072 37.0686 80.6546 26.0901 77.8417 7.62037L80.5254 7.21854H25.6028C20.5368 7.21854 15.93 9.29944 12.5861 12.6289C9.25662 15.9726 7.17568 20.5793 7.17568 25.6452V102.853ZM116.26 51.4339C115.069 51.477 113.892 51.477 112.716 51.4339C112.73 54.7633 112.773 57.4183 112.83 60.1019C113.089 73.2187 113.347 86.8378 109.974 99.2801C109.544 101.849 108.697 104.389 107.391 106.8C105.841 110.474 103.875 113.99 101.378 117.305L95.6518 113.028C99.1678 108.35 101.493 103.083 103.028 97.4719C103.502 93.9415 102.856 90.4542 101.378 87.7132C100.531 86.1346 99.4118 84.843 98.0915 83.9963C96.8573 83.207 95.4078 82.8052 93.7717 82.9056C89.1506 83.207 83.1948 87.2827 76.5214 97.5867C73.3928 102.437 71.0392 115.037 69.6614 128.57C67.9823 144.959 67.8245 162.381 69.4318 169.227C70.623 174.235 72.5461 177.019 74.871 178.096C76.6793 178.928 78.9037 178.799 81.3578 177.938C84.2424 176.919 87.3136 174.938 90.3417 172.269C99.9715 163.745 108.568 148.762 108.64 135.502C108.654 135.114 108.654 134.612 108.683 133.966C108.726 132.086 109.07 129.188 109.185 127.508C105.841 131.412 101.177 135.961 93.499 139.061L90.844 132.417C98.5507 129.317 102.727 124.15 105.726 120.462C110.089 115.095 112.816 111.751 118.628 115.855C120.724 117.334 122.618 119.831 124.656 122.529C128.028 126.977 131.961 132.173 135.448 130.163L139.036 136.349C130.741 141.156 124.972 134.727 120.106 128.37C119.662 131.311 123.938 140.18 129.851 149.781C135.003 158.148 141.605 166.715 147.991 172.657C153.574 177.852 158.654 180.937 161.625 179.531C163.562 178.627 165.012 175.541 165.686 169.499C166.992 157.689 167.882 138.444 165.887 121.409C164.524 109.914 161.883 99.5528 157.19 93.5684C149.814 84.1829 143.585 80.509 138.835 80.3798C136.969 80.3224 135.348 80.8534 133.999 81.8006C132.578 82.8195 131.415 84.3264 130.583 86.1346C127.182 93.4966 130.569 104.848 135.29 111.105L129.564 115.396C117.308 99.0935 117.724 78.055 118.112 58.1932C118.155 56.0119 118.198 53.8449 118.212 51.3191C117.566 51.3765 116.92 51.4052 116.26 51.4339Z"/>
</mask>
<path d="M25.6028 0.0430529H150.79C151.191 -0.014351 151.622 -0.014351 152.081 0.0430529H202.856C210.448 0.0430529 217.351 3.14286 222.345 8.15136C227.354 13.1455 230.454 20.0483 230.454 27.64V124.911L230.956 125.614C234.903 131.068 238.72 136.463 242.366 141.831C245.982 147.126 249.599 152.637 253.273 158.492C256.846 164.19 260.348 170.059 263.792 176.158C267.409 182.559 268.743 191.026 269.016 199.665C269.289 208.089 268.586 216.528 268.011 223.344V223.359C267.696 227.104 267.423 230.29 267.366 232.141H267.495C267.524 232.888 267.552 233.62 267.567 234.366C269.375 242.431 270.322 246.794 271.083 251.056C271.858 255.39 272.489 260.011 273.695 268.736C273.967 270.789 274.297 273.214 274.958 277.907C275.417 281.179 276.005 285.398 276.838 291.224L277.426 295.314L278 299.419H269.748C260.735 299.419 251.034 299.605 241.461 299.792H241.433L241.375 299.806V299.792C220.121 300.194 199.383 300.596 197.274 294.999C196.685 293.449 196.226 291.799 195.81 290.105C195.365 288.239 195.078 286.776 194.791 285.355C194.36 283.116 193.93 280.949 193.557 279.615C193.557 279.6 193.585 279.586 193.657 279.586L194.073 279.471C193.313 279.428 192.681 279.385 192.15 279.356C190.629 279.27 190.069 279.227 189.452 279.198C181.458 278.739 175.417 278.38 169.475 277.247C163.433 276.084 157.621 274.147 150.244 270.502C146.513 268.65 143.298 266.369 140.658 263.958C137.558 261.116 135.261 258.074 133.841 255.376C133.324 254.371 132.893 253.381 132.578 252.419C132.233 251.386 132.018 250.41 131.903 249.506H28.0138C20.3072 249.506 13.3037 246.363 8.22332 241.283C3.1573 236.217 0 229.214 0 221.507V25.6452C0 18.5989 2.88462 12.1983 7.52011 7.56297C12.1556 2.9276 18.5563 0.0430529 25.6028 0.0430529ZM260.348 232.615L260.233 232.629C260.247 222.354 265.428 193.595 257.564 179.66C244.073 155.766 229.492 135.387 213.362 113.789C201.694 98.1607 188.95 120.663 200.101 143.854L217.782 180.621L218.6 228.353C219.045 254.543 192.064 244.541 166.72 245.918C163.204 246.119 156.444 245.918 141.131 245.918C135.764 245.918 140.701 257.801 153.416 264.087C168.528 271.549 176.479 271.19 195.853 272.41C201.45 272.755 201.091 284.838 203.961 292.473C204.478 293.836 248.12 292.243 269.748 292.243C266.404 268.722 265.443 260.671 264.28 253.768C263.261 256.251 261.998 258.519 260.491 260.47C257.104 264.833 252.541 267.617 246.714 267.89C245.178 267.962 243.6 267.861 241.964 267.574L243.198 260.513C244.346 260.714 245.408 260.786 246.384 260.743C249.9 260.585 252.699 258.834 254.823 256.108C257.205 253.036 258.798 248.746 259.659 243.924C260.305 240.307 260.52 236.461 260.348 232.615ZM184.07 231.998C185.175 207.702 187.213 163.242 196.126 152.092L193.657 146.94C190.816 141.041 189.309 135.158 188.821 129.733C188.275 123.49 189.093 117.779 190.816 113.301C191.433 111.679 192.179 110.187 193.04 108.852C193.944 107.474 194.963 106.255 196.068 105.236C197.432 103.987 198.924 103.026 200.517 102.394C202.139 101.748 203.847 101.418 205.64 101.461C206.502 101.476 207.363 101.576 208.224 101.763C194.992 82.7765 179.837 80.2937 166.576 78.1267C150.216 75.4575 136.381 73.19 130.626 47.9036C128.947 48.7646 127.196 49.4535 125.402 49.9988C125.373 52.3954 125.316 55.3374 125.259 58.2937C125.115 65.6844 124.972 73.2331 125.503 80.5521C126.694 78.7438 128.143 77.1939 129.851 75.9741C132.434 74.1515 135.52 73.1183 139.036 73.2331C145.738 73.4196 153.961 77.8541 162.816 89.1339C168.442 96.2951 171.513 107.919 173.006 120.606C175.072 138.214 174.154 158.09 172.805 170.274C171.814 179.129 168.872 184.037 164.682 186.003C158.568 188.902 150.79 185.042 143.112 177.909C136.266 171.537 129.234 162.41 123.78 153.541C120.279 147.873 117.466 142.204 115.744 137.21C114.983 152.092 105.569 168.323 95.0777 177.622C91.375 180.894 87.4858 183.362 83.7401 184.697C79.5639 186.161 75.4881 186.276 71.8716 184.597C67.5662 182.616 64.1936 178.239 62.4571 170.848C60.6919 163.343 60.7923 144.945 62.5288 127.867C64.007 113.373 66.7194 99.5815 70.5225 93.6976C78.6167 81.1979 86.6391 76.1894 93.3125 75.7588C96.5415 75.5579 99.4405 76.3903 101.938 77.9689C103.272 78.8299 104.478 79.8919 105.525 81.1261C105.956 74.2233 105.813 67.1482 105.683 60.2167C105.612 56.6433 105.54 53.0986 105.54 50.5155C103.387 49.9988 101.292 49.2669 99.2539 48.2337C93.212 71.9415 80.2384 73.5775 64.0931 75.6153C47.2303 77.7536 26.3921 80.3942 7.17568 117.118V181.827C11.5098 173.79 16.3175 164.218 17.7096 161.362C22.0867 152.364 26.4639 149.853 30.7406 151.934C41.1023 156.971 43.4128 207.429 44.6183 233.821C44.7619 237.078 44.891 239.948 45.0202 242.331H133.712C133.97 242.001 134.257 241.671 134.558 241.355C135.434 240.508 136.438 239.848 137.601 239.389C138.706 238.973 139.883 238.743 141.131 238.743C143.069 238.743 150.187 238.786 155.813 238.829H155.956C158.64 238.843 160.764 238.858 162.472 238.858C164.065 238.858 165.313 238.829 166.346 238.772C169.619 238.599 172.919 238.599 176.192 238.686C178.875 238.757 181.344 238.886 183.74 239.016C183.841 236.92 183.956 234.581 184.07 231.998ZM200.144 160.43C195.351 168.811 192.265 209.252 191.217 232.299C191.103 234.94 190.988 237.351 190.887 239.389C191.806 239.432 192.681 239.46 193.485 239.489C195.006 239.532 196.47 239.547 197.819 239.532C202.239 239.446 205.928 238.929 208.267 237.265C210.333 235.801 211.525 233.103 211.453 228.468L210.649 182.301L200.144 160.43ZM37.8589 242.331C37.744 240.035 37.6149 237.25 37.4714 234.122C36.3376 209.209 34.1562 161.549 27.6263 158.377C27.368 158.248 26.306 160.028 24.1533 164.477C22.589 167.677 16.8054 179.186 12.1699 187.639C10.3186 191.012 8.56776 193.982 7.17568 195.977V221.507C7.17568 227.233 9.5293 232.428 13.3037 236.217C17.0781 239.991 22.2876 242.331 28.0138 242.331H37.8589ZM137.041 43.627C141.447 66.7608 153.43 68.7269 167.739 71.0661C185.721 74.008 206.875 77.4666 223.278 114.176V27.64C223.278 22.0288 220.982 16.9198 217.279 13.2173C213.577 9.5147 208.468 7.21854 202.856 7.21854H154.621C151.292 22.2297 146.599 32.7776 140.629 39.8096C139.409 41.2304 138.146 42.522 136.826 43.67L137.041 43.627ZM85.0317 7.21854C87.6006 23.5356 92.0209 33.0216 97.5174 38.2884C102.77 43.3256 109.242 44.5167 116.031 44.2871C123.565 44.0288 129.966 41.3165 135.19 35.1743C140.213 29.276 144.26 20.2205 147.288 7.21854H85.0317ZM7.17568 102.853C26.306 73.2044 46.5127 70.6355 63.2033 68.5259C77.1242 66.7608 88.2178 65.3544 92.9393 43.8135C92.8102 43.6844 92.681 43.5696 92.5519 43.4404C85.9072 37.0686 80.6546 26.0901 77.8417 7.62037L80.5254 7.21854H25.6028C20.5368 7.21854 15.93 9.29944 12.5861 12.6289C9.25662 15.9726 7.17568 20.5793 7.17568 25.6452V102.853ZM116.26 51.4339C115.069 51.477 113.892 51.477 112.716 51.4339C112.73 54.7633 112.773 57.4183 112.83 60.1019C113.089 73.2187 113.347 86.8378 109.974 99.2801C109.544 101.849 108.697 104.389 107.391 106.8C105.841 110.474 103.875 113.99 101.378 117.305L95.6518 113.028C99.1678 108.35 101.493 103.083 103.028 97.4719C103.502 93.9415 102.856 90.4542 101.378 87.7132C100.531 86.1346 99.4118 84.843 98.0915 83.9963C96.8573 83.207 95.4078 82.8052 93.7717 82.9056C89.1506 83.207 83.1948 87.2827 76.5214 97.5867C73.3928 102.437 71.0392 115.037 69.6614 128.57C67.9823 144.959 67.8245 162.381 69.4318 169.227C70.623 174.235 72.5461 177.019 74.871 178.096C76.6793 178.928 78.9037 178.799 81.3578 177.938C84.2424 176.919 87.3136 174.938 90.3417 172.269C99.9715 163.745 108.568 148.762 108.64 135.502C108.654 135.114 108.654 134.612 108.683 133.966C108.726 132.086 109.07 129.188 109.185 127.508C105.841 131.412 101.177 135.961 93.499 139.061L90.844 132.417C98.5507 129.317 102.727 124.15 105.726 120.462C110.089 115.095 112.816 111.751 118.628 115.855C120.724 117.334 122.618 119.831 124.656 122.529C128.028 126.977 131.961 132.173 135.448 130.163L139.036 136.349C130.741 141.156 124.972 134.727 120.106 128.37C119.662 131.311 123.938 140.18 129.851 149.781C135.003 158.148 141.605 166.715 147.991 172.657C153.574 177.852 158.654 180.937 161.625 179.531C163.562 178.627 165.012 175.541 165.686 169.499C166.992 157.689 167.882 138.444 165.887 121.409C164.524 109.914 161.883 99.5528 157.19 93.5684C149.814 84.1829 143.585 80.509 138.835 80.3798C136.969 80.3224 135.348 80.8534 133.999 81.8006C132.578 82.8195 131.415 84.3264 130.583 86.1346C127.182 93.4966 130.569 104.848 135.29 111.105L129.564 115.396C117.308 99.0935 117.724 78.055 118.112 58.1932C118.155 56.0119 118.198 53.8449 118.212 51.3191C117.566 51.3765 116.92 51.4052 116.26 51.4339Z" stroke="#219653" stroke-width="10" mask="url(#path-1-inside-1)"/>
</svg>
