<svg width="300" height="225" viewBox="0 0 300 225" fill="none" xmlns="http://www.w3.org/2000/svg">
<path d="M91.2151 138.118H2.5V132.934H85.886H87.6443L88.2388 131.279L112.165 64.6808L112.166 64.6783L114.501 58.2003L147.611 144.434L149.729 149.949L152.213 144.589L186.422 70.778L198.448 112.937L198.965 114.751H200.852H219.668V119.922H195.08L194.539 118.042L194.537 118.035L187.107 91.9714L185.262 85.5024L182.434 91.6057L149.304 163.099L117.079 79.1685L114.668 72.8896L112.392 79.2187L91.2151 138.118ZM150.408 36.201L152.54 39.693L154.674 36.2032C160.808 26.1768 167.141 18.5123 174.647 13.0024C184.131 6.05222 195.439 2.5 210.688 2.5C227.399 2.5 242.545 8.75448 253.524 18.8079C264.606 28.9656 271.418 42.9424 271.418 58.3533C271.418 85.4387 256.869 112.533 234.463 139.878L234.463 139.878C212.592 166.585 183.518 193.235 154.266 220.029L154.265 220.03L152.542 221.609L150.819 220.03L150.818 220.029C131.523 202.355 112.296 184.741 95.1552 167.1V159.714C112.145 177.52 131.475 195.35 150.852 213.116L152.542 214.665L154.231 213.116C181.986 187.679 209.643 162.111 230.526 136.612L230.527 136.611C251.716 110.716 266.25 84.5297 266.25 58.3533C266.25 44.3574 260.034 31.7107 250.077 22.5934C239.993 13.3502 226.057 7.6845 210.688 7.6845C196.9 7.6845 186.385 10.7736 177.683 17.1639C168.824 23.649 161.773 33.4872 154.797 46.2638C154.796 46.2642 154.796 46.2646 154.796 46.265L152.545 50.3818L150.303 46.2667L150.302 46.265C143.324 33.487 136.273 23.648 127.413 17.1627C118.698 10.774 108.198 7.6845 94.3958 7.6845C79.026 7.6845 65.1038 13.3506 55.0211 22.5934C45.0652 31.7094 38.8336 44.3557 38.8336 58.3533C38.8336 72.2385 42.9261 86.1097 49.8964 99.8985H44.178C37.4716 86.0022 33.6798 72.1768 33.6798 58.3533C33.6798 42.9412 40.4792 28.9652 51.573 18.8089L51.5733 18.8087C62.5523 8.75441 77.6854 2.5 94.3958 2.5C109.645 2.5 120.954 6.05261 130.439 13.0035L130.439 13.0036C137.957 18.513 144.289 26.1763 150.408 36.201Z" stroke="#219653" stroke-width="5"/>
</svg>
