<svg width="300" height="167" viewBox="0 0 300 167" fill="none" xmlns="http://www.w3.org/2000/svg">
<path fill-rule="evenodd" clip-rule="evenodd" d="M153.5 118C172.554 118 188 102.554 188 83.5C188 64.4462 172.554 49 153.5 49C134.446 49 119 64.4462 119 83.5C119 102.554 134.446 118 153.5 118ZM154 110C168.912 110 181 97.9117 181 83C181 68.0883 168.912 56 154 56C139.088 56 127 68.0883 127 83C127 97.9117 139.088 110 154 110Z" fill="#219653"/>
<path fill-rule="evenodd" clip-rule="evenodd" d="M153.5 167C199.616 167 237 129.616 237 83.5C237 37.3842 199.616 0 153.5 0C107.384 0 70 37.3842 70 83.5C70 129.616 107.384 167 153.5 167ZM154 158C195.421 158 229 124.421 229 83C229 41.5786 195.421 8 154 8C112.579 8 79 41.5786 79 83C79 124.421 112.579 158 154 158Z" fill="#219653"/>
<path fill-rule="evenodd" clip-rule="evenodd" d="M150 167C232.843 167 300 83.5 300 83.5C300 83.5 232.843 0 150 0C67.1573 0 0 83.5 0 83.5C0 83.5 67.1573 167 150 167ZM150.898 158C225.308 158 285.5 87 289 83.5C278.5 73 225.308 7.99996 150.898 7.99996C76.4886 7.99996 35 59 11 83C30 102 76.4886 158 150.898 158Z" fill="#219653"/>
</svg>
