<svg width="277" height="300" viewBox="0 0 277 300" fill="none" xmlns="http://www.w3.org/2000/svg">
<mask id="path-1-inside-1" fill="white">
<path d="M64.9491 0H220.615C227.905 0 234.529 2.97811 239.319 7.75518C244.124 12.5474 247.095 19.1385 247.095 26.41V95.0577H203.093C212.112 96.8566 220.16 101.286 226.42 107.529C231.634 112.73 235.605 119.2 237.818 126.441C241.138 123.569 245.033 121.498 249.353 119.971C257.28 117.205 266.466 116.449 276.409 115.904L277 126.441C267.845 126.94 259.478 127.62 252.839 129.933C247.201 131.914 242.669 135.209 239.774 140.939C239.455 153.033 234.408 163.962 226.42 171.929C218.159 180.183 206.731 185.278 194.12 185.278C181.524 185.278 170.095 180.183 161.835 171.929C153.574 163.69 148.466 152.307 148.466 139.729V139.699C148.466 127.137 153.574 115.768 161.835 107.529C168.095 101.286 176.143 96.8566 185.162 95.0577H92.778C101.781 96.8566 109.845 101.286 116.09 107.529C124.335 115.738 129.444 127.076 129.474 139.608V139.729C129.474 152.307 124.366 163.69 116.09 171.929C107.829 180.183 96.4157 185.278 83.8048 185.278C71.1939 185.278 59.7805 180.183 51.5197 171.929C43.7743 164.219 38.8027 153.743 38.1964 142.118L37.6811 142.345C34.8164 136.01 30.1024 132.473 24.1608 130.387C17.5219 128.074 9.13986 127.394 0 126.88L0.575978 116.343C10.5343 116.902 19.7197 117.658 27.6318 120.425C32.2396 122.042 36.3472 124.279 39.8183 127.454C41.9555 119.805 46.0479 112.987 51.5197 107.529C57.7645 101.286 65.8282 96.8566 74.8468 95.0577H35.0286V29.8416C35.0286 21.6329 38.3935 14.1649 43.8198 8.76804C49.231 3.35604 56.7187 0 64.9491 0ZM146.177 17.4303V32.6685H162.092V55.284H146.177V71.3537H123.29V55.284H108.026V32.6685H123.29V17.4303H146.177ZM138.599 24.9889H130.868V40.2272H115.605V47.7254H130.868V63.7951H138.599V47.7254H154.514V40.2272H138.599V24.9889ZM80.6369 118.157C70.6937 121.498 65.8737 131.143 65.8586 131.173L59.1135 127.741C59.1287 127.711 65.2977 115.36 78.2421 111.022L80.6369 118.157ZM189.861 118.973C179.751 121.785 174.4 131.128 174.385 131.158L167.837 127.379C167.867 127.348 174.718 115.345 187.845 111.717L189.861 118.973ZM174.946 247.198L216.159 214.091L222.782 222.315L181.585 255.422L174.946 247.198ZM175.173 224.205L195.787 209.36L201.956 217.916L181.357 232.761L175.173 224.205ZM218.917 115.013C212.566 108.678 203.805 104.763 194.12 104.763C184.449 104.763 175.688 108.678 169.338 115.013C163.002 121.332 159.076 130.069 159.076 139.729C159.076 149.389 163.002 158.127 169.338 164.446C175.688 170.78 184.449 174.696 194.12 174.696C203.805 174.696 212.566 170.78 218.917 164.446C225.253 158.127 229.179 149.389 229.179 139.729C229.179 130.069 225.253 121.332 218.917 115.013ZM108.587 115.013C102.251 108.678 93.4903 104.763 83.8048 104.763C74.1193 104.763 65.3584 108.678 59.0226 115.013C52.6717 121.332 48.7459 130.069 48.7459 139.729C48.7459 149.389 52.6717 158.127 59.0226 164.446C65.3584 170.78 74.1193 174.696 83.8048 174.696C93.4903 174.696 102.251 170.78 108.587 164.446C114.938 158.127 118.864 149.389 118.864 139.729C118.864 130.069 114.938 121.332 108.587 115.013ZM54.4451 261.908C73.028 276.904 93.5358 284.387 113.195 287.531C133.036 290.721 152.058 289.497 167.428 287.108C183.373 284.614 203.184 278.144 217.811 269.889C228.739 263.737 236.484 256.934 236.484 250.842V207.924C236.484 206.578 235.802 205.414 234.711 204.462C232.923 202.92 230.194 201.862 227.163 201.317C198.243 196.102 169.307 193.547 140.508 193.547C111.27 193.547 82.3194 196.177 53.8236 201.317C51.1256 201.816 48.7005 202.738 47.1241 204.099C46.2147 204.885 45.6387 205.837 45.6387 206.941V247.894C45.6387 255.105 45.9873 255.362 50.201 258.597C51.5652 259.64 53.1567 260.864 54.4451 261.908ZM111.528 297.962C90.2315 294.546 67.9806 286.413 47.7759 270.086C45.866 268.544 44.7444 267.682 43.7743 266.957C35.6803 260.743 35.0286 260.245 35.0286 247.894V206.941C35.0286 202.466 37.0142 198.868 40.1972 196.117C43.259 193.487 47.4879 191.748 51.9593 190.947C81.2129 185.671 110.785 182.965 140.508 182.965C169.777 182.965 199.334 185.58 229.027 190.947C233.832 191.809 238.349 193.668 241.638 196.495C245.003 199.382 247.095 203.207 247.095 207.924V250.842C247.095 261.303 237.091 271.114 222.994 279.066C207.291 287.924 186.086 294.863 169.05 297.524C152.801 300.049 132.642 301.333 111.528 297.962ZM220.615 10.5821H64.9491C59.644 10.5821 54.824 12.759 51.3227 16.2511C47.8213 19.7432 45.6387 24.5505 45.6387 29.8416V84.4756H236.484V26.41C236.484 22.0713 234.696 18.1105 231.816 15.2383C228.951 12.366 224.98 10.5821 220.615 10.5821Z"/>
</mask>
<path d="M64.9491 0H220.615C227.905 0 234.529 2.97811 239.319 7.75518C244.124 12.5474 247.095 19.1385 247.095 26.41V95.0577H203.093C212.112 96.8566 220.16 101.286 226.42 107.529C231.634 112.73 235.605 119.2 237.818 126.441C241.138 123.569 245.033 121.498 249.353 119.971C257.28 117.205 266.466 116.449 276.409 115.904L277 126.441C267.845 126.94 259.478 127.62 252.839 129.933C247.201 131.914 242.669 135.209 239.774 140.939C239.455 153.033 234.408 163.962 226.42 171.929C218.159 180.183 206.731 185.278 194.12 185.278C181.524 185.278 170.095 180.183 161.835 171.929C153.574 163.69 148.466 152.307 148.466 139.729V139.699C148.466 127.137 153.574 115.768 161.835 107.529C168.095 101.286 176.143 96.8566 185.162 95.0577H92.778C101.781 96.8566 109.845 101.286 116.09 107.529C124.335 115.738 129.444 127.076 129.474 139.608V139.729C129.474 152.307 124.366 163.69 116.09 171.929C107.829 180.183 96.4157 185.278 83.8048 185.278C71.1939 185.278 59.7805 180.183 51.5197 171.929C43.7743 164.219 38.8027 153.743 38.1964 142.118L37.6811 142.345C34.8164 136.01 30.1024 132.473 24.1608 130.387C17.5219 128.074 9.13986 127.394 0 126.88L0.575978 116.343C10.5343 116.902 19.7197 117.658 27.6318 120.425C32.2396 122.042 36.3472 124.279 39.8183 127.454C41.9555 119.805 46.0479 112.987 51.5197 107.529C57.7645 101.286 65.8282 96.8566 74.8468 95.0577H35.0286V29.8416C35.0286 21.6329 38.3935 14.1649 43.8198 8.76804C49.231 3.35604 56.7187 0 64.9491 0ZM146.177 17.4303V32.6685H162.092V55.284H146.177V71.3537H123.29V55.284H108.026V32.6685H123.29V17.4303H146.177ZM138.599 24.9889H130.868V40.2272H115.605V47.7254H130.868V63.7951H138.599V47.7254H154.514V40.2272H138.599V24.9889ZM80.6369 118.157C70.6937 121.498 65.8737 131.143 65.8586 131.173L59.1135 127.741C59.1287 127.711 65.2977 115.36 78.2421 111.022L80.6369 118.157ZM189.861 118.973C179.751 121.785 174.4 131.128 174.385 131.158L167.837 127.379C167.867 127.348 174.718 115.345 187.845 111.717L189.861 118.973ZM174.946 247.198L216.159 214.091L222.782 222.315L181.585 255.422L174.946 247.198ZM175.173 224.205L195.787 209.36L201.956 217.916L181.357 232.761L175.173 224.205ZM218.917 115.013C212.566 108.678 203.805 104.763 194.12 104.763C184.449 104.763 175.688 108.678 169.338 115.013C163.002 121.332 159.076 130.069 159.076 139.729C159.076 149.389 163.002 158.127 169.338 164.446C175.688 170.78 184.449 174.696 194.12 174.696C203.805 174.696 212.566 170.78 218.917 164.446C225.253 158.127 229.179 149.389 229.179 139.729C229.179 130.069 225.253 121.332 218.917 115.013ZM108.587 115.013C102.251 108.678 93.4903 104.763 83.8048 104.763C74.1193 104.763 65.3584 108.678 59.0226 115.013C52.6717 121.332 48.7459 130.069 48.7459 139.729C48.7459 149.389 52.6717 158.127 59.0226 164.446C65.3584 170.78 74.1193 174.696 83.8048 174.696C93.4903 174.696 102.251 170.78 108.587 164.446C114.938 158.127 118.864 149.389 118.864 139.729C118.864 130.069 114.938 121.332 108.587 115.013ZM54.4451 261.908C73.028 276.904 93.5358 284.387 113.195 287.531C133.036 290.721 152.058 289.497 167.428 287.108C183.373 284.614 203.184 278.144 217.811 269.889C228.739 263.737 236.484 256.934 236.484 250.842V207.924C236.484 206.578 235.802 205.414 234.711 204.462C232.923 202.92 230.194 201.862 227.163 201.317C198.243 196.102 169.307 193.547 140.508 193.547C111.27 193.547 82.3194 196.177 53.8236 201.317C51.1256 201.816 48.7005 202.738 47.1241 204.099C46.2147 204.885 45.6387 205.837 45.6387 206.941V247.894C45.6387 255.105 45.9873 255.362 50.201 258.597C51.5652 259.64 53.1567 260.864 54.4451 261.908ZM111.528 297.962C90.2315 294.546 67.9806 286.413 47.7759 270.086C45.866 268.544 44.7444 267.682 43.7743 266.957C35.6803 260.743 35.0286 260.245 35.0286 247.894V206.941C35.0286 202.466 37.0142 198.868 40.1972 196.117C43.259 193.487 47.4879 191.748 51.9593 190.947C81.2129 185.671 110.785 182.965 140.508 182.965C169.777 182.965 199.334 185.58 229.027 190.947C233.832 191.809 238.349 193.668 241.638 196.495C245.003 199.382 247.095 203.207 247.095 207.924V250.842C247.095 261.303 237.091 271.114 222.994 279.066C207.291 287.924 186.086 294.863 169.05 297.524C152.801 300.049 132.642 301.333 111.528 297.962ZM220.615 10.5821H64.9491C59.644 10.5821 54.824 12.759 51.3227 16.2511C47.8213 19.7432 45.6387 24.5505 45.6387 29.8416V84.4756H236.484V26.41C236.484 22.0713 234.696 18.1105 231.816 15.2383C228.951 12.366 224.98 10.5821 220.615 10.5821Z" fill="#219653"/>
<path d="M129.474 142.229H148.466V137.229H129.474V142.229ZM247.095 95.0577V100.058H252.095V95.0577H247.095ZM203.093 95.0577V90.0577L202.115 99.9611L203.093 95.0577ZM237.818 126.441L233.037 127.903L235.282 135.248L241.09 130.222L237.818 126.441ZM249.353 119.971L247.706 115.25L247.696 115.254L247.687 115.257L249.353 119.971ZM276.409 115.904L281.401 115.624L281.121 110.639L276.136 110.912L276.409 115.904ZM277 126.441L277.272 131.434L282.273 131.161L281.992 126.161L277 126.441ZM252.839 129.933L251.194 125.212L251.182 125.216L252.839 129.933ZM239.774 140.939L235.311 138.684L234.805 139.685L234.775 140.807L239.774 140.939ZM226.42 171.929L222.889 168.389L222.886 168.392L226.42 171.929ZM161.835 171.929L165.369 168.392L165.366 168.389L161.835 171.929ZM185.162 95.0577L186.14 99.9611L185.162 90.0577V95.0577ZM92.778 95.0577V90.0577L91.7983 99.9608L92.778 95.0577ZM116.09 107.529L112.555 111.065L112.562 111.073L116.09 107.529ZM129.474 139.608L134.474 139.608L134.474 139.596L129.474 139.608ZM116.09 171.929L112.562 168.386L112.556 168.392L116.09 171.929ZM51.5197 171.929L55.0538 168.392L55.0471 168.386L51.5197 171.929ZM38.1964 142.118L43.1897 141.857L42.8124 134.624L36.1827 137.541L38.1964 142.118ZM37.6811 142.345L33.1254 144.405L35.1648 148.914L39.6948 146.921L37.6811 142.345ZM24.1608 130.387L25.8172 125.669L25.8058 125.665L24.1608 130.387ZM0 126.88L-4.99255 126.607L-5.26503 131.591L-0.280736 131.872L0 126.88ZM0.575978 116.343L0.856376 111.351L-4.14325 111.07L-4.41657 116.07L0.575978 116.343ZM27.6318 120.425L29.2879 115.707L29.2821 115.705L27.6318 120.425ZM39.8183 127.454L36.4438 131.144L42.4453 136.633L44.6339 128.8L39.8183 127.454ZM51.5197 107.529L55.0506 111.07L55.0549 111.065L51.5197 107.529ZM74.8468 95.0577L75.8249 99.9611L74.8468 90.0577V95.0577ZM35.0286 95.0577H30.0286V100.058H35.0286V95.0577ZM43.8198 8.76804L47.3457 12.3132L47.3556 12.3033L43.8198 8.76804ZM146.177 17.4303H151.177V12.4303H146.177V17.4303ZM146.177 32.6685H141.177V37.6685H146.177V32.6685ZM162.092 32.6685H167.092V27.6685H162.092V32.6685ZM162.092 55.284V60.284H167.092V55.284H162.092ZM146.177 55.284V50.284H141.177V55.284H146.177ZM146.177 71.3537V76.3537H151.177V71.3537H146.177ZM123.29 71.3537H118.29V76.3537H123.29V71.3537ZM123.29 55.284H128.29V50.284H123.29V55.284ZM108.026 55.284H103.026V60.284H108.026V55.284ZM108.026 32.6685V27.6685H103.026V32.6685H108.026ZM123.29 32.6685V37.6685H128.29V32.6685H123.29ZM123.29 17.4303V12.4303H118.29V17.4303H123.29ZM138.599 24.9889H143.599V19.9889H138.599V24.9889ZM130.868 24.9889V19.9889H125.868V24.9889H130.868ZM130.868 40.2272V45.2272H135.868V40.2272H130.868ZM115.605 40.2272V35.2272H110.605V40.2272H115.605ZM115.605 47.7254H110.605V52.7254H115.605V47.7254ZM130.868 47.7254H135.868V42.7254H130.868V47.7254ZM130.868 63.7951H125.868V68.7951H130.868V63.7951ZM138.599 63.7951V68.7951H143.599V63.7951H138.599ZM138.599 47.7254V42.7254H133.599V47.7254H138.599ZM154.514 47.7254V52.7254H159.514V47.7254H154.514ZM154.514 40.2272H159.514V35.2272H154.514V40.2272ZM138.599 40.2272H133.599V45.2272H138.599V40.2272ZM80.6369 118.157L82.2294 122.897L86.9675 121.305L85.3771 116.566L80.6369 118.157ZM65.8586 131.173L63.5913 135.629L68.0742 137.91L70.3283 133.414L65.8586 131.173ZM59.1135 127.741L54.6438 125.501L52.4162 129.944L56.8463 132.198L59.1135 127.741ZM78.2421 111.022L82.9822 109.431L81.3919 104.692L76.6531 106.281L78.2421 111.022ZM189.861 118.973L191.2 123.79L196.016 122.451L194.678 117.635L189.861 118.973ZM174.385 131.158L171.886 135.488L176.478 138.139L178.855 133.399L174.385 131.158ZM167.837 127.379L164.306 123.838L159.686 128.447L165.338 131.709L167.837 127.379ZM187.845 111.717L192.662 110.379L191.326 105.567L186.513 106.898L187.845 111.717ZM174.946 247.198L171.814 243.3L167.907 246.439L171.055 250.339L174.946 247.198ZM216.159 214.091L220.053 210.955L216.92 207.066L213.027 210.193L216.159 214.091ZM222.782 222.315L225.914 226.213L229.816 223.077L226.676 219.179L222.782 222.315ZM181.585 255.422L177.694 258.563L180.828 262.445L184.717 259.32L181.585 255.422ZM175.173 224.205L172.251 220.148L168.187 223.074L171.121 227.134L175.173 224.205ZM195.787 209.36L199.843 206.436L196.92 202.382L192.865 205.302L195.787 209.36ZM201.956 217.916L204.879 221.972L208.937 219.049L206.012 214.992L201.956 217.916ZM181.357 232.761L177.305 235.69L180.23 239.737L184.281 236.818L181.357 232.761ZM108.587 115.013L105.052 118.549L105.06 118.557L108.587 115.013ZM59.0226 115.013L62.5492 118.557L62.5577 118.549L59.0226 115.013ZM59.0226 164.446L62.5577 160.91L62.5492 160.902L59.0226 164.446ZM108.587 164.446L105.06 160.902L105.052 160.91L108.587 164.446ZM54.4451 261.908L51.2989 265.794L51.305 265.799L54.4451 261.908ZM113.195 287.531L113.989 282.595L113.985 282.594L113.195 287.531ZM167.428 287.108L168.196 292.049L168.201 292.048L167.428 287.108ZM217.811 269.889L215.358 265.533L215.353 265.535L217.811 269.889ZM234.711 204.462L237.999 200.695L237.987 200.685L237.976 200.675L234.711 204.462ZM227.163 201.317L226.275 206.238L226.279 206.239L227.163 201.317ZM53.8236 201.317L52.9361 196.397L52.9253 196.399L52.9145 196.401L53.8236 201.317ZM47.1241 204.099L43.8572 200.314L43.8544 200.316L47.1241 204.099ZM50.201 258.597L47.1562 262.563L47.1639 262.569L50.201 258.597ZM111.528 297.962L110.736 302.899L110.739 302.9L111.528 297.962ZM47.7759 270.086L50.9184 266.197L50.9168 266.196L47.7759 270.086ZM43.7743 266.957L40.7298 270.923L40.7545 270.942L40.7794 270.961L43.7743 266.957ZM40.1972 196.117L36.9389 192.324L36.9332 192.329L36.9275 192.334L40.1972 196.117ZM51.9593 190.947L52.8412 195.868L52.8467 195.867L51.9593 190.947ZM229.027 190.947L228.138 195.867L228.144 195.868L229.027 190.947ZM241.638 196.495L238.379 200.287L238.382 200.289L241.638 196.495ZM222.994 279.066L220.538 274.711L220.538 274.711L222.994 279.066ZM169.05 297.524L169.817 302.465L169.821 302.464L169.05 297.524ZM45.6387 84.4756H40.6387V89.4756H45.6387V84.4756ZM236.484 84.4756V89.4756H241.484V84.4756H236.484ZM231.816 15.2383L228.276 18.7691L228.285 18.7785L231.816 15.2383ZM64.9491 5H220.615V-5H64.9491V5ZM220.615 5C226.519 5 231.89 7.40787 235.788 11.2954L242.85 4.21498C237.168 -1.45164 229.292 -5 220.615 -5V5ZM235.788 11.2954C239.699 15.1963 242.095 20.5317 242.095 26.41H252.095C252.095 17.7453 248.548 9.89844 242.85 4.21498L235.788 11.2954ZM202.115 99.9611C210.142 101.562 217.309 105.504 222.889 111.07L229.951 103.989C223.011 97.0676 214.081 92.151 204.071 90.1543L202.115 99.9611ZM222.889 111.07C227.536 115.704 231.069 121.465 233.037 127.903L242.6 124.98C240.141 116.935 235.732 109.756 229.951 103.989L222.889 111.07ZM241.09 130.222C243.836 127.846 247.147 126.054 251.019 124.685L247.687 115.257C242.92 116.942 238.44 119.291 234.547 122.66L241.09 130.222ZM251.001 124.692C258.174 122.188 266.691 121.444 276.682 120.897L276.136 110.912C266.241 111.454 256.387 112.221 247.706 115.25L251.001 124.692ZM271.417 116.185L272.008 126.721L281.992 126.161L281.401 115.624L271.417 116.185ZM276.728 121.449C267.664 121.943 258.601 122.631 251.194 125.212L254.484 134.655C260.355 132.61 268.026 131.938 277.272 131.434L276.728 121.449ZM251.182 125.216C244.595 127.529 238.905 131.57 235.311 138.684L244.236 143.194C246.432 138.848 249.806 136.298 254.496 134.651L251.182 125.216ZM234.775 140.807C234.492 151.568 230.005 161.292 222.889 168.389L229.951 175.469C238.811 166.633 244.419 154.497 244.772 141.07L234.775 140.807ZM222.886 168.392C215.529 175.744 205.358 180.278 194.12 180.278V190.278C208.103 190.278 220.79 184.623 229.954 175.466L222.886 168.392ZM194.12 180.278C182.898 180.278 172.727 175.744 165.369 168.392L158.301 175.466C167.464 184.622 180.15 190.278 194.12 190.278V180.278ZM165.366 168.389C158.006 161.049 153.466 150.924 153.466 139.729H143.466C143.466 153.69 149.142 166.332 158.304 175.469L165.366 168.389ZM153.466 139.729V139.699H143.466V139.729H153.466ZM153.466 139.699C153.466 128.522 158.004 118.412 165.366 111.07L158.304 103.989C149.144 113.125 143.466 125.751 143.466 139.699H153.466ZM165.366 111.07C170.946 105.504 178.113 101.562 186.14 99.9611L184.184 90.1543C174.174 92.151 165.244 97.0676 158.304 103.989L165.366 111.07ZM185.162 90.0577H92.778V100.058H185.162V90.0577ZM91.7983 99.9608C99.8142 101.562 106.994 105.506 112.555 111.065L119.625 103.994C112.696 97.0662 103.749 92.1509 93.7576 90.1546L91.7983 99.9608ZM112.562 111.073C119.908 118.385 124.447 128.468 124.474 139.621L134.474 139.596C134.44 125.684 128.763 113.091 119.618 103.986L112.562 111.073ZM124.474 139.608V139.729H134.474V139.608H124.474ZM124.474 139.729C124.474 150.924 119.934 161.047 112.562 168.386L119.618 175.473C128.797 166.334 134.474 153.69 134.474 139.729H124.474ZM112.556 168.392C105.197 175.745 95.0411 180.278 83.8048 180.278V190.278C97.7903 190.278 110.461 184.622 119.624 175.466L112.556 168.392ZM83.8048 180.278C72.5685 180.278 62.4124 175.745 55.0538 168.392L47.9856 175.466C57.1485 184.622 69.8193 190.278 83.8048 190.278V180.278ZM55.0471 168.386C48.1481 161.518 43.729 152.199 43.1897 141.857L33.2032 142.378C33.8765 155.287 39.4006 166.921 47.9923 175.473L55.0471 168.386ZM36.1827 137.541L35.6673 137.768L39.6948 146.921L40.2102 146.694L36.1827 137.541ZM42.2368 140.284C38.7021 132.469 32.78 128.114 25.8172 125.669L22.5043 135.105C27.4249 136.832 30.9306 139.552 33.1254 144.405L42.2368 140.284ZM25.8058 125.665C18.4004 123.085 9.32104 122.396 0.280736 121.888L-0.280736 131.872C8.95868 132.391 16.6433 133.063 22.5158 135.109L25.8058 125.665ZM4.99255 127.153L5.56852 116.616L-4.41657 116.07L-4.99255 126.607L4.99255 127.153ZM0.29558 121.335C10.3098 121.897 18.8236 122.642 25.9815 125.144L29.2821 115.705C20.6157 112.675 10.7589 111.907 0.856376 111.351L0.29558 121.335ZM25.9756 125.142C30.0968 126.589 33.5753 128.52 36.4438 131.144L43.1928 123.765C39.1192 120.039 34.3824 117.495 29.2879 115.707L25.9756 125.142ZM44.6339 128.8C46.532 122.006 50.1699 115.937 55.0506 111.07L47.9889 103.989C41.926 110.036 37.379 117.604 35.0027 126.109L44.6339 128.8ZM55.0549 111.065C60.6151 105.506 67.7942 101.563 75.8249 99.9611L73.8687 90.1543C63.8623 92.1503 54.914 97.0656 47.9846 103.994L55.0549 111.065ZM40.0286 29.8416C40.0286 23.025 42.8186 16.8158 47.3457 12.3132L40.2939 5.22291C33.9684 11.5141 30.0286 20.2407 30.0286 29.8416H40.0286ZM47.3556 12.3033C51.8703 7.78792 58.1021 5 64.9491 5V-5C55.3353 -5 46.5916 -1.07583 40.284 5.23278L47.3556 12.3033ZM138.599 19.9889H130.868V29.9889H138.599V19.9889ZM110.605 40.2272V47.7254H120.605V40.2272H110.605ZM130.868 68.7951H138.599V58.7951H130.868V68.7951ZM159.514 47.7254V40.2272H149.514V47.7254H159.514ZM79.0444 113.417C72.9383 115.469 68.5422 119.399 65.7429 122.636C64.3274 124.272 63.2684 125.791 62.5536 126.918C62.1949 127.483 61.9193 127.956 61.7256 128.303C61.6286 128.476 61.5518 128.619 61.4952 128.726C61.4669 128.78 61.4435 128.825 61.4252 128.86C61.416 128.878 61.4081 128.894 61.4015 128.907C61.3982 128.913 61.3953 128.919 61.3927 128.924C61.3902 128.929 61.3875 128.935 61.3888 128.932L70.3283 133.414C70.3299 133.411 70.3279 133.415 70.3269 133.417C70.3257 133.419 70.3248 133.421 70.324 133.422C70.3226 133.425 70.3222 133.426 70.3229 133.424C70.3243 133.422 70.3301 133.41 70.3404 133.391C70.3608 133.352 70.3989 133.281 70.4546 133.181C70.5662 132.982 70.7473 132.67 70.998 132.275C71.5019 131.48 72.2723 130.373 73.3066 129.177C75.4068 126.749 78.3923 124.186 82.2294 122.897L79.0444 113.417ZM68.1258 126.717L61.3808 123.285L56.8463 132.198L63.5913 135.629L68.1258 126.717ZM63.5833 129.982C63.5835 129.982 63.5815 129.986 63.5801 129.989C63.5792 129.99 63.5798 129.989 63.5817 129.985C63.5856 129.978 63.5953 129.959 63.6106 129.93C63.6414 129.872 63.6951 129.772 63.7718 129.635C63.9254 129.36 64.1702 128.939 64.5067 128.411C65.1822 127.349 66.213 125.875 67.6012 124.279C70.406 121.056 74.4804 117.556 79.8311 115.762L76.6531 106.281C69.0594 108.826 63.5771 113.67 60.0575 117.715C58.2835 119.753 56.9602 121.643 56.0702 123.042C55.624 123.743 55.2832 124.326 55.046 124.75C54.9273 124.962 54.8343 125.134 54.7667 125.263C54.7329 125.327 54.7054 125.38 54.6843 125.421C54.6737 125.441 54.6648 125.459 54.6574 125.473C54.6538 125.481 54.6505 125.487 54.6477 125.493C54.6452 125.498 54.6418 125.505 54.6438 125.501L63.5833 129.982ZM73.5019 112.613L75.8968 119.748L85.3771 116.566L82.9822 109.431L73.5019 112.613ZM188.521 114.156C182.32 115.881 177.717 119.559 174.744 122.632C171.81 125.665 170.164 128.42 169.915 128.917L178.855 133.399C178.621 133.865 179.658 131.934 181.931 129.585C184.164 127.277 187.291 124.878 191.2 123.79L188.521 114.156ZM176.884 126.827L170.336 123.048L165.338 131.709L171.886 135.488L176.884 126.827ZM171.368 130.919C171.546 130.731 171.786 130.445 171.856 130.353C171.894 130.301 171.955 130.215 171.978 130.181C172.02 130.118 172.052 130.068 172.063 130.051C172.088 130.011 172.109 129.978 172.113 129.97C172.127 129.948 172.141 129.924 172.145 129.917C172.159 129.894 172.174 129.869 172.194 129.837C172.233 129.772 172.296 129.671 172.382 129.536C172.554 129.266 172.825 128.856 173.192 128.345C173.929 127.318 175.042 125.899 176.517 124.38C179.499 121.309 183.755 118.035 189.177 116.536L186.513 106.898C178.809 109.027 173.076 113.569 169.342 117.414C167.46 119.353 166.035 121.167 165.068 122.513C164.584 123.188 164.212 123.749 163.952 124.155C163.823 124.359 163.722 124.522 163.651 124.638C163.616 124.696 163.589 124.741 163.575 124.765C163.564 124.782 163.568 124.776 163.573 124.767C163.574 124.765 163.592 124.737 163.615 124.7C163.625 124.685 163.656 124.636 163.697 124.574C163.72 124.541 163.781 124.455 163.819 124.403C163.888 124.312 164.128 124.026 164.306 123.838L171.368 130.919ZM183.027 113.055L185.043 120.312L194.678 117.635L192.662 110.379L183.027 113.055ZM178.077 251.096L219.29 217.989L213.027 210.193L171.814 243.3L178.077 251.096ZM212.265 217.228L218.888 225.452L226.676 219.179L220.053 210.955L212.265 217.228ZM219.65 218.418L178.453 251.525L184.717 259.32L225.914 226.213L219.65 218.418ZM185.475 252.281L178.836 244.058L171.055 250.339L177.694 258.563L185.475 252.281ZM178.095 228.262L198.709 213.417L192.865 205.302L172.251 220.148L178.095 228.262ZM191.731 212.284L197.9 220.84L206.012 214.992L199.843 206.436L191.731 212.284ZM199.033 213.86L178.434 228.705L184.281 236.818L204.879 221.972L199.033 213.86ZM185.41 229.832L179.226 221.276L171.121 227.134L177.305 235.69L185.41 229.832ZM222.448 111.472C215.198 104.241 205.182 99.763 194.12 99.763V109.763C202.429 109.763 209.935 113.116 215.386 118.553L222.448 111.472ZM194.12 99.763C183.072 99.763 173.056 104.242 165.807 111.472L172.868 118.553C178.321 113.115 185.827 109.763 194.12 109.763V99.763ZM165.807 111.472C158.57 118.69 154.076 128.686 154.076 139.729H164.076C164.076 131.453 167.433 123.973 172.868 118.553L165.807 111.472ZM154.076 139.729C154.076 150.773 158.57 160.769 165.807 167.986L172.868 160.906C167.433 155.485 164.076 148.006 164.076 139.729H154.076ZM165.807 167.986C173.056 175.217 183.072 179.696 194.12 179.696V169.696C185.827 169.696 178.321 166.344 172.868 160.906L165.807 167.986ZM194.12 179.696C205.182 179.696 215.198 175.217 222.448 167.986L215.386 160.906C209.935 166.343 202.429 169.696 194.12 169.696V179.696ZM222.448 167.986C229.684 160.769 234.179 150.773 234.179 139.729H224.179C224.179 148.006 220.821 155.485 215.386 160.906L222.448 167.986ZM234.179 139.729C234.179 128.686 229.684 118.69 222.448 111.472L215.386 118.553C220.821 123.973 224.179 131.453 224.179 139.729H234.179ZM112.122 111.477C104.884 104.241 94.8658 99.763 83.8048 99.763V109.763C92.1148 109.763 99.6181 113.116 105.052 118.549L112.122 111.477ZM83.8048 99.763C72.7438 99.763 62.7252 104.241 55.4875 111.477L62.5577 118.549C67.9915 113.116 75.4948 109.763 83.8048 109.763V99.763ZM55.496 111.468C48.2407 118.687 43.7459 128.685 43.7459 139.729H53.7459C53.7459 131.454 57.1026 123.976 62.5492 118.557L55.496 111.468ZM43.7459 139.729C43.7459 150.774 48.2407 160.772 55.496 167.991L62.5492 160.902C57.1026 155.483 53.7459 148.005 53.7459 139.729H43.7459ZM55.4875 167.982C62.7252 175.218 72.7438 179.696 83.8048 179.696V169.696C75.4948 169.696 67.9915 166.343 62.5577 160.91L55.4875 167.982ZM83.8048 179.696C94.8658 179.696 104.884 175.218 112.122 167.982L105.052 160.91C99.6181 166.343 92.1148 169.696 83.8048 169.696V179.696ZM112.114 167.991C119.369 160.772 123.864 150.774 123.864 139.729H113.864C113.864 148.005 110.507 155.483 105.06 160.902L112.114 167.991ZM123.864 139.729C123.864 128.685 119.369 118.687 112.114 111.468L105.06 118.557C110.507 123.976 113.864 131.454 113.864 139.729H123.864ZM51.305 265.799C70.6854 281.439 92.0491 289.213 112.405 292.469L113.985 282.594C95.0225 279.561 75.3705 272.369 57.5851 258.017L51.305 265.799ZM112.401 292.468C132.913 295.766 152.489 294.49 168.196 292.049L166.66 282.167C151.627 284.504 133.158 285.677 113.989 282.595L112.401 292.468ZM168.201 292.048C184.676 289.471 205.068 282.822 220.268 274.244L215.353 265.535C201.3 273.465 182.07 279.757 166.655 282.168L168.201 292.048ZM220.264 274.246C225.922 271.061 231.005 267.574 234.743 263.917C238.33 260.406 241.484 255.95 241.484 250.842H231.484C231.484 251.825 230.766 253.817 227.749 256.769C224.882 259.574 220.628 262.565 215.358 265.533L220.264 274.246ZM241.484 250.842V207.924H231.484V250.842H241.484ZM241.484 207.924C241.484 204.715 239.817 202.281 237.999 200.695L231.423 208.229C231.606 208.389 231.625 208.454 231.591 208.39C231.572 208.354 231.543 208.29 231.52 208.201C231.497 208.11 231.484 208.014 231.484 207.924H241.484ZM237.976 200.675C235.245 198.32 231.536 197.022 228.046 196.396L226.279 206.239C228.852 206.701 230.6 207.519 231.446 208.249L237.976 200.675ZM228.05 196.397C198.836 191.128 169.604 188.547 140.508 188.547V198.547C169.011 198.547 197.649 201.075 226.275 206.238L228.05 196.397ZM140.508 188.547C110.969 188.547 81.7216 191.205 52.9361 196.397L54.7112 206.238C82.9172 201.15 111.571 198.547 140.508 198.547V188.547ZM52.9145 196.401C49.8119 196.974 46.3915 198.126 43.8572 200.314L50.391 207.884C51.0094 207.35 52.4393 206.658 54.7327 206.234L52.9145 196.401ZM43.8544 200.316C42.2552 201.698 40.6387 203.92 40.6387 206.941H50.6387C50.6387 207.296 50.5379 207.596 50.4339 207.788C50.3441 207.953 50.2889 207.972 50.3938 207.882L43.8544 200.316ZM40.6387 206.941V247.894H50.6387V206.941H40.6387ZM40.6387 247.894C40.6387 251.155 40.6344 254.231 41.7768 256.781C43.0182 259.551 45.4006 261.215 47.1562 262.563L53.2459 254.631C52.1166 253.764 51.5429 253.316 51.1473 252.942C50.8427 252.654 50.8664 252.611 50.9026 252.692C50.9115 252.712 50.812 252.513 50.7386 251.703C50.663 250.867 50.6387 249.708 50.6387 247.894H40.6387ZM47.1639 262.569C48.5302 263.613 50.0709 264.799 51.2989 265.794L57.5913 258.021C56.2425 256.929 54.6002 255.666 53.2381 254.625L47.1639 262.569ZM112.32 293.025C91.7229 289.721 70.3272 281.881 50.9184 266.197L44.6333 273.975C65.6339 290.945 88.7402 299.37 110.736 302.899L112.32 293.025ZM50.9168 266.196C48.9648 264.62 47.7943 263.72 46.7693 262.953L40.7794 270.961C41.6945 271.645 42.7673 272.468 44.6349 273.976L50.9168 266.196ZM46.8189 262.991C42.4077 259.604 41.4153 258.69 40.8731 257.562C40.29 256.348 40.0286 254.401 40.0286 247.894H30.0286C30.0286 253.737 30.093 258.215 31.8593 261.892C33.6665 265.654 37.047 268.096 40.7298 270.923L46.8189 262.991ZM40.0286 247.894V206.941H30.0286V247.894H40.0286ZM40.0286 206.941C40.0286 204.141 41.202 201.857 43.4669 199.9L36.9275 192.334C32.8263 195.879 30.0286 200.791 30.0286 206.941H40.0286ZM43.4555 199.91C45.6652 198.011 48.9896 196.559 52.8412 195.868L51.0774 186.025C45.9861 186.938 40.8528 188.962 36.9389 192.324L43.4555 199.91ZM52.8467 195.867C81.8143 190.643 111.089 187.965 140.508 187.965V177.965C110.48 177.965 80.6116 180.699 51.0718 186.026L52.8467 195.867ZM140.508 187.965C169.478 187.965 198.737 190.553 228.138 195.867L229.916 186.027C199.93 180.607 170.076 177.965 140.508 177.965V187.965ZM228.144 195.868C232.328 196.619 235.941 198.191 238.379 200.287L244.897 192.703C240.757 189.145 235.336 186.998 229.91 186.025L228.144 195.868ZM238.382 200.289C240.805 202.368 242.095 204.87 242.095 207.924H252.095C252.095 201.544 249.201 196.396 244.894 192.7L238.382 200.289ZM242.095 207.924V250.842H252.095V207.924H242.095ZM242.095 250.842C242.095 254.41 240.39 258.339 236.608 262.557C232.834 266.765 227.309 270.891 220.538 274.711L225.451 283.421C232.776 279.289 239.301 274.533 244.053 269.233C248.797 263.942 252.095 257.735 252.095 250.842H242.095ZM220.538 274.711C205.405 283.248 184.78 290.007 168.278 292.584L169.821 302.464C187.393 299.72 209.178 292.601 225.451 283.42L220.538 274.711ZM168.282 292.583C152.375 295.055 132.765 296.29 112.316 293.025L110.739 302.9C132.518 306.377 153.227 305.042 169.817 302.465L168.282 292.583ZM220.615 5.58212H64.9491V15.5821H220.615V5.58212ZM64.9491 5.58212C58.2482 5.58212 52.1782 8.33614 47.7918 12.7109L54.8535 19.7913C57.4699 17.1819 61.0399 15.5821 64.9491 15.5821V5.58212ZM47.7918 12.7109C43.4053 17.0858 40.6387 23.1459 40.6387 29.8416H50.6387C50.6387 25.9551 52.2374 22.4006 54.8535 19.7913L47.7918 12.7109ZM40.6387 29.8416V84.4756H50.6387V29.8416H40.6387ZM45.6387 89.4756H236.484V79.4756H45.6387V89.4756ZM241.484 84.4756V26.41H231.484V84.4756H241.484ZM241.484 26.41C241.484 20.672 239.116 15.4571 235.347 11.6981L228.285 18.7785C230.276 20.764 231.484 23.4706 231.484 26.41H241.484ZM235.356 11.7074C231.595 7.93609 226.366 5.58212 220.615 5.58212V15.5821C223.594 15.5821 226.308 16.7958 228.276 18.7691L235.356 11.7074ZM242.095 26.41V95.0577H252.095V26.41H242.095ZM247.095 90.0577H203.093V100.058H247.095V90.0577ZM74.8468 90.0577H35.0286V100.058H74.8468V90.0577ZM40.0286 95.0577V29.8416H30.0286V95.0577H40.0286ZM123.29 22.4303H146.177V12.4303H123.29V22.4303ZM141.177 17.4303V32.6685H151.177V17.4303H141.177ZM146.177 37.6685H162.092V27.6685H146.177V37.6685ZM157.092 32.6685V55.284H167.092V32.6685H157.092ZM162.092 50.284H146.177V60.284H162.092V50.284ZM141.177 55.284V71.3537H151.177V55.284H141.177ZM146.177 66.3537H123.29V76.3537H146.177V66.3537ZM128.29 71.3537V55.284H118.29V71.3537H128.29ZM123.29 50.284H108.026V60.284H123.29V50.284ZM113.026 55.284V32.6685H103.026V55.284H113.026ZM108.026 37.6685H123.29V27.6685H108.026V37.6685ZM128.29 32.6685V17.4303H118.29V32.6685H128.29ZM125.868 24.9889V40.2272H135.868V24.9889H125.868ZM130.868 35.2272H115.605V45.2272H130.868V35.2272ZM115.605 52.7254H130.868V42.7254H115.605V52.7254ZM125.868 47.7254V63.7951H135.868V47.7254H125.868ZM143.599 63.7951V47.7254H133.599V63.7951H143.599ZM138.599 52.7254H154.514V42.7254H138.599V52.7254ZM154.514 35.2272H138.599V45.2272H154.514V35.2272ZM143.599 40.2272V24.9889H133.599V40.2272H143.599Z" fill="#219653" mask="url(#path-1-inside-1)"/>
</svg>
