<svg width="137" height="275" viewBox="0 0 137 275" fill="none" xmlns="http://www.w3.org/2000/svg">
<path fill-rule="evenodd" clip-rule="evenodd" d="M13.79 104.8L9.71999 116.11L1.57999 139.67C-0.270008 144.88 1.25999 146.49 1.69999 150.81L5.25999 154.4C8.24999 154.63 11.41 156.27 15.09 154.96C22.16 152.43 24.66 140.22 27.63 131.39L37.08 104.77C37.48 103.67 39.64 96.65 40.65 96.31L25.44 174.4C24.41 184.58 34.69 181.7 39.48 182.36C39.82 201.01 39.51 223.16 39.47 240.76C39.42 259.38 35.31 274.83 54.95 274.03C59.25 272.86 60.12 271.38 62.49 270.2C63.69 267.11 65.22 266.53 65.59 261.75C65.87 258.15 65.69 253.76 65.69 250.08C65.69 239.71 65.26 188.17 65.8 182.37L71.06 182.19L71.32 244.26C71.31 253.2 69.86 264.67 74.97 270.24C77.84 272.4 77.94 272.92 82.31 274.05C90.98 274.4 96.72 269.89 97.34 261.72C98.45 247.08 96.32 191.28 97.65 182.23C105.21 182.04 112.25 183.45 111.63 174.56C109.76 166.87 96.38 98.41 96.63 95C96.67 96.78 107.73 126.86 109.37 131.66C111.08 136.63 113.84 145.94 116.03 150.03C121.09 159.53 131.27 153.95 132.33 153.76C132.93 152.85 132.63 153.24 133.43 152.27C133.87 151.74 134.19 151.44 134.51 151.13C136.94 146.17 135.91 145.82 136.08 140.56C134.12 138.58 120.75 98.18 118.66 92.1C113.09 75.88 108.55 56.11 92.03 53C84.46 51.57 68.14 52.48 59.61 52.46C35.39 52.4 31.12 56.15 22.25 80.61C19.29 88.77 16.42 96.71 13.79 104.8Z" fill="#219653"/>
<path fill-rule="evenodd" clip-rule="evenodd" d="M63.4 0.989969C52.52 3.82997 43.05 14.2 46.82 28.43C54.35 56.88 97.31 45.89 90.34 17.49C87.81 7.16997 77.2 -2.62003 63.4 0.989969Z" fill="#219653"/>
</svg>
