<svg width="113" height="277" viewBox="0 0 113 277" fill="none" xmlns="http://www.w3.org/2000/svg">
<path fill-rule="evenodd" clip-rule="evenodd" d="M0.86 77.1598C0.00999987 98.7498 0.54 119.27 0.43 140.66L0.37 152.31C0.34 157.48 0.19 159.85 1.36 164.54L3.41 167.66C8.96 169.99 7.79 171.02 15.6 169.67C16.72 168.87 17.96 168.19 18.85 167.32C19.79 166.41 20.19 165.16 21.28 164.54C23.94 153.25 22.44 130.28 22.5 117.94C22.54 108.03 22.6 98.1298 22.65 88.2298C22.66 85.6498 21.21 76.0098 25.21 76.7598C28.36 77.3598 27.05 86.0098 27.05 89.3998L27.11 264.17C27.93 271.2 31.97 275.32 38.72 276.38C50.84 277.06 53.49 268.74 53.39 257.76C53.3 246.73 53.33 235.59 53.37 224.55C53.46 202.41 53.19 180.22 53.38 158.03L59.13 158.14C59.06 189.4 59.13 220.67 59.12 251.93C59.12 259.88 57.97 267.07 62.41 272.03C66.25 276.33 73.41 277.91 79.31 274.39C84.87 271.08 85.35 265.82 85.41 257.18C85.46 249.62 85.24 241.97 85.38 234.45L85.39 222.26L85.24 85.3198C85.22 80.8998 84.16 77.4198 87.16 76.9598C88.3 76.7798 89.08 77.5498 89.34 77.8598C89.57 78.1298 89.35 77.8598 89.42 78.6798C90.35 89.0698 89.77 140.6 89.72 151.73C89.65 166.7 89.95 163.63 96.47 169.73C102.62 170.81 104.4 170.35 108.65 167.22L110.81 163.9C112.95 155.34 111.65 125.96 111.7 115.03C111.75 104.59 113.11 75.9698 109.4 68.3298C101.94 52.9898 90.1 52.7898 76.07 52.8698C59.73 52.9698 43.38 52.8398 27.03 52.8798C11.67 53.9798 2.83 62.4598 0.86 77.1598ZM44.15 42.0898C45.98 43.2198 48.34 44.2498 50.79 44.8198C55 45.8898 58.12 45.4998 62.31 44.8098C63.47 44.1998 66.67 43.1398 68.36 42.0598C70.48 41.1998 71.87 40.2898 74.9 36.3798C76.78 31.5798 78.22 30.6698 78.86 24.2198C79.09 19.1198 78.08 16.5698 76.53 12.3998C75.38 11.0798 74.9 9.67983 73.75 8.39983C72.61 7.13983 71.68 6.36983 70.46 5.29983C67.7 2.84983 65.95 2.61983 62.24 0.989825C50.49 -1.70017 40.96 3.95983 36.81 11.0998C34.48 15.1098 33.09 20.2198 33.72 25.6398C34.47 32.1598 38.62 38.6398 44.15 42.0898Z" fill="#219653"/>
</svg>
