<svg width="360" height="360" viewBox="0 0 360 360" fill="none" xmlns="http://www.w3.org/2000/svg">
  <path fill-rule="evenodd" clip-rule="evenodd" d="M355 180C355 276.65 276.65 355 180 355C83.3502 355 5 276.65 5 180C5 83.3502 83.3502 5 180 5C276.65 5 355 83.3502 355 180ZM360 180C360 279.411 279.411 360 180 360C80.5887 360 0 279.411 0 180C0 80.5887 80.5887 0 180 0C279.411 0 360 80.5887 360 180ZM186.539 151.186V151.185V151.184C186.476 136.828 186.413 122.589 186.993 107.852C188.963 93.152 197.803 84.672 213.163 83.572C220.112 83.555 227.062 83.5687 234.01 83.5824H234.011H234.012C243.411 83.6009 252.809 83.6195 262.203 83.562C276.233 83.482 288.073 83.682 295.533 99.022C298.616 105.371 298.198 126.209 297.94 139.062V139.062V139.063V139.065V139.066C297.888 141.677 297.842 143.959 297.833 145.722C297.821 148.437 297.892 152.29 297.973 156.68L297.973 156.683C298.217 169.966 298.552 188.159 296.943 194.592L294.783 197.912C290.533 201.042 288.753 201.502 282.603 200.422C281.424 199.319 280.449 198.516 279.642 197.852C275.987 194.842 275.796 194.685 275.853 182.422C275.861 180.681 275.882 177.952 275.908 174.546L275.908 174.532V174.528C276.048 156.153 276.338 118.134 275.553 109.372C275.519 108.969 275.555 108.829 275.572 108.759C275.578 108.736 275.582 108.72 275.581 108.705C275.578 108.675 275.554 108.647 275.484 108.564L275.473 108.552C275.213 108.242 274.433 107.472 273.293 107.652C270.954 108.011 271.083 110.206 271.263 113.252L271.263 113.253C271.314 114.113 271.369 115.04 271.373 116.012L271.523 252.952L271.513 265.142C271.433 269.438 271.471 273.776 271.508 278.116V278.118V278.119C271.537 281.375 271.565 284.632 271.543 287.872C271.483 296.512 271.003 301.772 265.443 305.082C259.543 308.602 252.383 307.022 248.543 302.722C244.878 298.627 245.022 293.013 245.184 286.706C245.218 285.373 245.253 284.009 245.253 282.622C245.257 271.257 245.25 259.89 245.243 248.523V248.522V248.521C245.231 228.624 245.219 208.726 245.263 188.832L239.513 188.722C239.407 201.172 239.445 213.622 239.483 226.063V226.064V226.065C239.513 235.797 239.543 245.524 239.503 255.242C239.463 266.282 239.433 277.422 239.523 288.452C239.623 299.432 236.973 307.752 224.853 307.072C218.103 306.012 214.063 301.892 213.243 294.862L213.183 120.092C213.183 119.412 213.236 118.521 213.295 117.526C213.529 113.557 213.862 107.932 211.343 107.452C208.039 106.832 208.454 113.302 208.692 117.026L208.692 117.027L208.693 117.03C208.743 117.813 208.785 118.474 208.783 118.922C208.767 122.205 208.749 125.488 208.731 128.771L208.731 128.787L208.731 128.805C208.696 135.411 208.66 142.019 208.633 148.632C208.618 151.758 208.703 155.566 208.795 159.694C209.066 171.86 209.399 186.802 207.413 195.232C206.768 195.599 206.365 196.187 205.948 196.794C205.66 197.213 205.367 197.641 204.983 198.012C204.379 198.602 203.614 199.105 202.835 199.617L202.835 199.617L202.835 199.618C202.465 199.86 202.093 200.105 201.733 200.362C195.75 201.396 195.037 201.034 192.535 199.759C191.771 199.371 190.841 198.897 189.543 198.352L187.493 195.232C186.437 190.997 186.457 188.653 186.493 184.431L186.497 183.839C186.5 183.568 186.502 183.289 186.503 183.002L186.563 171.352C186.598 164.563 186.569 157.862 186.539 151.186ZM236.923 75.512C234.473 74.942 232.113 73.912 230.283 72.782C224.753 69.332 220.603 62.852 219.853 56.332C219.223 50.912 220.613 45.802 222.943 41.792C227.093 34.652 236.623 28.992 248.373 31.682C249.319 32.0976 250.138 32.4222 250.878 32.7158C253.041 33.5736 254.537 34.1667 256.593 35.992C256.747 36.1268 256.896 36.2569 257.042 36.3838L257.065 36.4042L257.067 36.4056C258.065 37.2759 258.895 37.9999 259.883 39.092C260.468 39.7425 260.879 40.4241 261.294 41.1104L261.294 41.1107L261.294 41.111C261.695 41.7748 262.098 42.443 262.663 43.092L262.792 43.4376C264.269 47.4064 265.217 49.9544 264.993 54.912C264.54 59.4813 263.685 61.2703 262.557 63.6317C262.092 64.6035 261.581 65.6724 261.033 67.072C258.003 70.982 256.613 71.892 254.493 72.752C253.434 73.4289 251.782 74.0979 250.41 74.6533L250.41 74.6533C249.593 74.984 248.876 75.2743 248.443 75.502C244.253 76.192 241.133 76.582 236.923 75.512ZM112.533 33.6821C101.653 36.5221 92.1833 46.8921 95.9533 61.1221C103.483 89.5721 146.443 78.5821 139.473 50.1821C136.943 39.8621 126.333 30.0721 112.533 33.6821ZM62.9233 137.492L58.8533 148.802L50.7133 172.362C49.3936 176.079 49.7939 177.963 50.2915 180.306C50.4915 181.248 50.7072 182.264 50.8333 183.502L54.3933 187.092C55.3184 187.163 56.2598 187.369 57.2278 187.581L57.228 187.581C59.3886 188.055 61.682 188.557 64.2233 187.652C70.1146 185.544 72.8327 176.714 75.2937 168.72C75.7861 167.12 76.2682 165.554 76.7633 164.082L86.2133 137.462C86.2786 137.283 86.3908 136.945 86.5372 136.505C87.2878 134.248 88.9382 129.287 89.7833 129.002L74.5733 207.092C73.7612 215.119 79.9806 215.026 84.996 214.951C86.3414 214.931 87.6002 214.913 88.6133 215.052C88.8587 228.515 88.7655 243.801 88.6796 257.883C88.6464 263.309 88.6144 268.557 88.6033 273.452C88.5957 276.298 88.4932 279.07 88.3951 281.722L88.3951 281.722C87.8517 296.416 87.4456 307.4 104.083 306.722C106.951 305.942 108.294 305.023 109.573 304.148C110.211 303.711 110.834 303.285 111.623 302.892C112.022 301.867 112.456 301.118 112.872 300.4C113.711 298.955 114.476 297.636 114.723 294.442C114.926 291.833 114.888 288.809 114.851 285.942C114.837 284.852 114.823 283.785 114.823 282.772C114.823 280.371 114.8 275.762 114.772 270.025L114.771 269.996L114.771 269.994V269.992C114.676 250.949 114.519 219.516 114.933 215.062L120.193 214.882L120.453 276.952C120.452 278.528 120.405 280.183 120.358 281.87L120.358 281.871C120.136 289.754 119.894 298.344 124.103 302.932C124.566 303.28 124.956 303.586 125.304 303.858L125.306 303.859L125.307 303.86L125.309 303.861C127.117 305.276 127.78 305.795 131.443 306.742C140.113 307.092 145.853 302.582 146.473 294.412C147.014 287.284 146.786 270.399 146.564 253.903C146.329 236.518 146.101 219.566 146.783 214.922C147.803 214.896 148.813 214.9 149.797 214.903C156.103 214.925 161.3 214.943 160.763 207.252C158.893 199.562 145.513 131.102 145.763 127.692C145.792 128.979 151.582 145.061 155.407 155.684L155.407 155.685L155.409 155.69C156.873 159.757 158.049 163.023 158.503 164.352C158.92 165.565 159.4 167.035 159.919 168.626C161.526 173.554 163.508 179.63 165.163 182.722C169.603 191.057 177.984 187.784 180.689 186.727C181.066 186.58 181.333 186.475 181.463 186.452C181.485 186.419 181.506 186.387 181.526 186.357C181.546 186.326 181.565 186.297 181.583 186.269C181.652 186.165 181.704 186.082 181.748 186.015C181.826 185.894 181.873 185.821 181.924 185.75C182.001 185.642 182.086 185.539 182.302 185.278L182.302 185.278C182.373 185.192 182.459 185.089 182.563 184.962C182.968 184.475 183.271 184.182 183.566 183.897L183.643 183.822C185.398 180.24 185.349 179.063 185.25 176.704C185.211 175.796 185.166 174.714 185.213 173.252C183.554 171.576 173.721 142.374 169.472 129.758L169.472 129.758L169.472 129.757L169.465 129.736C168.697 127.458 168.113 125.723 167.793 124.792C167.171 122.979 166.561 121.122 165.946 119.249C161.059 104.361 155.837 88.4545 141.163 85.6921C135.577 84.6368 125.225 84.8559 116.756 85.0351C113.749 85.0987 110.979 85.1574 108.743 85.1521C84.5233 85.0921 80.2533 88.8421 71.3833 113.302C68.4233 121.462 65.5533 129.402 62.9233 137.492Z" fill="#219653"/>
</svg>
