<svg width="300" height="300" viewBox="0 0 300 300" fill="none" xmlns="http://www.w3.org/2000/svg">
<path fill-rule="evenodd" clip-rule="evenodd" d="M231.256 205.313C233.214 203.529 233.242 200.598 232.611 198.255C230.529 198.403 230.1 200.553 230.357 202.35C230.505 203.398 230.892 204.348 231.256 205.313ZM255.872 149.421C256.323 153.319 256.249 157.349 255.606 161.255C257.438 155.507 257.549 155.245 255.872 149.421ZM206.933 128.818L206.934 111.145C207.143 111.755 207.486 112.231 208.126 112.664C214.931 117.255 214.691 116.53 215.731 124.685C216.291 129.084 218.43 130.057 221.618 132.357C221.792 132.483 222.306 132.856 222.521 133.107C221.829 133.687 219.468 135.095 218.555 135.683C218.1 135.2 217.748 134.431 217.107 133.923L212.912 130.221C211.873 129.305 210.434 128.836 209.063 128.781C208.435 128.76 208.563 128.724 208.225 128.905L206.933 128.818ZM89.7488 115.432V122.756C89.6166 122.807 89.5311 122.85 89.3833 122.9C86.7664 123.772 86.119 125.836 84.9931 128.01L82.7184 132.768C81.8772 134.528 80.4239 135.386 78.991 136.608C78.2539 137.239 77.6012 137.925 76.9329 138.606C76.0235 137.345 75.1327 135.809 74.3782 134.31C74.5051 133.69 74.6116 133.046 74.6953 132.385C75.9948 132.81 77.2411 133.083 77.9793 133.07C79.6964 133.042 82.007 130.817 83.206 129.572C86.6383 126.003 89.0955 120.332 89.622 115.709L89.7488 115.432ZM241.911 212.822C243.651 212.781 246.301 214.167 246.394 216.141C247.007 215.944 247.619 215.746 248.234 215.559C248.234 213.816 248.393 212.879 250.199 212.119C246.955 211.611 245.349 209.051 243.436 206.362C244.171 208.672 243.897 210.985 241.911 212.822V212.822ZM226.575 214.819C226.737 215.024 226.88 215.249 227 215.497C230.082 215.292 233.084 214.635 236.089 213.957C235.091 213.964 231.975 214.077 231.212 213.98C229.957 213.82 229.42 214.884 228.801 215.07L227.301 215.07L227.149 214.238L226.575 214.819ZM206.762 216.224L210.593 215.051L210.594 214.733L210.367 215.07H208.477C208.513 212.578 208.737 210.651 210.074 208.439C210.745 207.327 211.934 206.341 213.192 205.986C214.981 205.481 217.662 206.414 218.831 205.756C220.095 205.047 220.877 203.39 221.09 202.005C221.817 197.294 217.765 193.028 217.812 188.168C217.841 185.252 217.868 182.458 221.258 181.343C224.986 180.119 230.614 177.274 233.374 174.738C235.73 172.57 237.416 169.033 237.407 165.816C237.398 162.188 235.919 157.9 235.064 154.357C234.425 151.712 234.117 148.958 233.387 146.345C232.989 144.916 232.316 143.65 231.69 142.319C231.334 141.574 230.336 140.626 229.479 140.552C228.912 140.505 228.162 140.981 227.703 141.267L223.699 143.772C220.816 145.574 218.18 144.642 215.594 142.898L209.781 138.986C208.63 138.208 208.47 137.103 208.25 135.844L206.933 134.996L206.932 160.621H202.692L202.694 164.273H206.935V213.758C206.935 214.596 206.875 215.419 206.762 216.224V216.224ZM80.4969 213.356C83.6595 214.221 86.7861 215.264 89.9217 216.224C89.8087 215.418 89.7488 214.595 89.7488 213.758V164.273H93.9883V160.621H89.7488V136.713C89.3839 137.43 88.9597 138.13 88.6073 138.729C87.4634 143.978 83.6224 150.359 79.0287 153.194C76.6236 154.677 74.5912 154.101 72.1119 153.165L69.4543 167.625C69.1432 169.319 68.6407 170.974 68.0352 172.584L64.5281 181.94C65.0558 182.899 66.7788 185.203 67.2568 185.657C69.2431 187.375 70.8896 190.273 71.1762 192.888C71.3102 194.127 70.8663 196.905 70.4655 198.124C69.9336 199.737 69.79 201.577 70.1107 203.246C70.335 204.412 71.4161 204.221 72.426 204.42C75.2535 204.974 78.9216 206.734 80.1499 209.494C80.5699 210.439 80.5286 212.313 80.4969 213.356V213.356ZM63.1334 214.528C65.2933 214.999 67.4788 215.35 69.6859 215.497C69.8845 215.084 70.1496 214.735 70.4619 214.436C69.5968 214.609 63.9663 214.592 63.1334 214.528ZM58.8778 213.57L62.1038 214.297C60.7535 213.794 59.6377 212.565 59.0765 211.183L58.8778 213.57ZM48.427 214.298L48.4515 215.56C49.0665 215.746 49.6792 215.944 50.2912 216.141C50.3361 215.183 51.1408 214.295 51.8749 213.759C51.7158 213.522 51.1659 213.1 50.8542 213.314C50.314 213.682 49.3537 214.06 48.427 214.298V214.298ZM62.3048 234.621C62.2139 236.044 62.3904 237.397 61.0466 238.313C57.4797 240.746 50.3152 236.331 45.7891 236.013C43.6048 235.859 40.7683 235.964 38.8843 234.722C37.5741 233.858 37.47 233.091 37.4735 231.625L37.5148 215.667C37.5316 215.068 37.7338 214.553 38.0371 214.118C35.9503 213.131 34.5479 210.589 35.2383 208.413C36.4331 204.646 36.0071 204.491 35.2832 200.986C34.8058 198.669 35.5369 196.892 36.3069 194.767L37.8319 190.554C38.7365 188.049 38.6504 184.961 38.3333 182.309L35.3921 179.507L35.343 162.206C35.3353 159.41 36.0544 153.445 33.9766 151.344C33.7199 151.085 33.7014 151.047 33.6595 150.684C32.7926 143.128 32.2266 127.25 35.6625 120.198C37.1259 117.194 39.412 114.736 41.2104 111.95C42.1982 110.417 43.0268 109.288 44.306 108.054V108.046L43.9829 108.04L45.0311 100.812L46.1463 100.889C48.8924 94.8942 54.3111 89.5569 59.816 86.882C59.1279 83.4747 64.5885 82.046 65.6421 85.2361C65.7833 85.6663 65.8 86.1162 65.7163 86.5481C66.64 86.8335 67.69 87.2182 68.3703 87.5449C69.2031 87.6747 70.9483 86.1981 73.82 89.5731C73.9277 89.6999 74.0354 89.8279 74.1509 89.9494C77.1507 90.8468 79.6545 92.4466 81.9998 94.5257L82.5419 95.0049C82.2972 95.7988 82.0782 96.6155 81.6564 97.34L82.2732 97.0732C81.109 98.7544 80.1685 100.678 77.8022 100.477C76.8324 101.381 76.5387 101.709 75.3187 102.335C73.8176 103.105 71.8415 104.762 71.3419 106.424L72.1622 106.806C72.012 107.508 71.2791 110.648 71.2773 111.098C71.3587 111.511 71.4736 111.932 71.619 112.327C73.6639 112.893 75.6059 116.044 76.0553 116.115C78.8959 116.13 80.0105 114.547 81.7785 112.648C82.427 111.95 82.8374 111.276 83.1617 110.372L84.9434 105.409C86.0059 102.596 86.5887 100.591 89.7488 99.4502V96.2583H110.727V100.491H126.208V92.2743L144.854 86.1832C136.93 86.1096 124.353 85.8356 116.78 84.3566C113.728 83.7601 112.682 83.1546 111.708 81.4687C111.316 81.3712 110.936 81.2018 110.628 80.9422C108.45 81.4567 107.011 78.7381 108.508 77.1562C108.26 76.82 108.099 76.4293 108.179 76.0129C106.954 74.8331 106.511 72.906 107.371 71.4067C107.666 70.8916 108.118 70.3788 108.351 69.8242C106.344 62.4755 103.721 55.3361 100.305 48.5055L99.8497 47.5955C104.663 45.1904 109.222 43.091 114.333 41.347L118.97 44.9134L121.649 55.4773L118.692 40.0158C123.908 38.5961 128.763 37.6167 134.116 36.8658L136.732 40.2407L138.327 57.0406C138.665 57.0047 139.003 56.97 139.34 56.9365C139.34 50.0862 138.947 43.2124 138.725 36.3615C144.802 35.8798 150.675 35.8792 156.753 36.3615C156.53 43.2118 156.137 50.0856 156.137 56.9365C156.475 56.9694 156.813 57.0041 157.151 57.0406L158.746 40.2407L161.362 36.8652C166.715 37.6161 171.57 38.5955 176.785 40.0158L173.829 55.4767L176.508 44.9134L181.145 41.347C186.255 43.0904 190.815 45.1898 195.628 47.5955C192.1 54.6511 189.296 61.9466 187.204 69.5394C187.812 70.1928 187.991 71.2069 187.616 72.0379C188.145 72.0911 188.906 71.9368 189.246 72.0367C189.854 72.2144 190.03 72.8767 189.784 73.4134C189.612 73.7867 188.85 74.5603 188.385 74.9551C189.644 76.0721 189.253 78.2391 187.656 78.8111C188.069 79.3484 188.568 79.6894 189.117 80.0136C189.117 80.6538 189.128 81.1211 188.465 81.4735C187.971 81.7361 186.448 81.994 185.87 82.0077C185.157 82.0263 184.402 81.9365 183.65 81.7732C182.964 83.2587 182.024 83.8134 179.037 84.4081C171.669 85.8745 159.573 86.1203 151.838 86.1868L170.476 92.2743V100.491H185.956V96.2583H206.935V102.407C207.572 102.109 208.211 101.918 208.942 102.35L216.885 107.054C218.981 108.295 220.968 111.087 221.452 113.527C221.759 115.071 221.233 117.045 222.308 118.309C223.43 119.63 225.488 120.738 227.191 121.029C228.004 121.167 228.535 121.033 229.067 120.391C230.845 118.24 231.64 113.605 231.61 110.864C231.463 108.542 231.959 106.881 232.528 104.747L231.884 104.865L231.393 99.248L232.163 99.0715C230.885 97.7839 228.784 98.8854 227.37 97.7977C226.515 97.1402 226.108 95.6205 226.81 94.7201C224.673 94.1565 223.019 95.407 221.324 96.4934L221.395 94.2529C221.455 92.3252 224.154 91.5893 225.784 91.5498C225.665 90.428 225.8 89.0538 227.181 88.8246L230.968 88.1934C232.361 87.9607 233.846 86.3519 235.031 85.6244C236.037 85.0069 238.69 84.4242 238.475 82.8992L238.29 81.5806C239.937 81.6296 241.782 81.6709 242.661 83.3969C243.004 84.0706 243.341 85.1918 243.732 85.756C245.72 88.629 248.366 90.1666 250.107 93.9076C250.65 95.0749 251.037 96.2398 251.306 97.4064L251.819 97.419L252.299 103.149L251.785 103.139C251.715 105.06 251.462 106.997 251.16 108.975C250.568 111.762 249.898 114.611 249.78 117.465C249.536 123.318 250.979 128.651 252.517 134.254C253.188 136.7 253.858 139.142 254.438 141.594C254.534 140.411 254.815 139.224 255.223 138.168C257.627 131.954 261.108 126.305 264.066 120.367L266.253 115.977L265.272 195.668C265.184 202.771 261.754 209.832 254.546 211.759C256.485 212.148 259.108 213.418 259.171 215.676L259.211 231.121C259.215 232.75 259.337 233.71 257.801 234.722C255.271 236.39 251.305 235.486 247.664 236.649C245.632 237.298 241.721 238.737 239.702 238.947C238.357 239.087 236.803 239.108 235.64 238.314C234.273 237.383 234.473 236.057 234.381 234.622C231.828 235.664 229.183 236.247 226.433 236.476L217.545 237.216C214.845 237.443 209.693 237.906 209.431 234.045C209.404 233.663 209.42 233.285 209.443 232.906C205.1 235.014 200.915 237.446 196.927 240.163C192.214 243.404 187.142 244.828 181.442 244.791C159.379 244.65 137.316 244.534 115.254 244.791C109.553 244.858 104.472 243.404 99.7653 240.167C95.7736 237.447 91.5945 235.016 87.2492 232.909C87.3868 235.426 86.3721 236.872 83.7145 237.252C82.2116 237.466 80.6465 237.343 79.1406 237.216L70.2513 236.475C67.5021 236.247 64.8583 235.663 62.3048 234.621V234.621ZM248.708 182.101C247.319 185.571 245.092 189.707 244.777 193.36C244.655 194.786 245.123 198.51 246.643 199.165C247.877 199.697 249.286 197.481 249.556 196.452C250.742 191.931 247.987 188.131 248.708 182.101ZM53.5974 195.78C51.9712 196.897 49.0091 200.719 48.7225 202.433C48.64 202.947 48.6292 203.503 48.6681 204.037C49.197 204.341 50.0525 204.303 50.6729 204.412C53.4442 204.907 57.3211 206.473 58.6852 209.148C58.7342 207.615 59.2494 207.096 59.0908 204.759C59.0095 203.531 58.4818 202.239 58.1623 201.047C57.7058 199.339 55.6956 197.316 53.5974 195.78" fill="#040606"/>
<path fill-rule="evenodd" clip-rule="evenodd" d="M45.847 231.185C45.8051 229.99 41.9013 230.274 40.4792 231.776C39.3592 232.954 41.4011 233.655 42.3075 233.724C49.8597 234.295 47.7603 233.941 55.3322 236.383C58.9052 237.535 60.4577 236.164 59.0147 235.715L54.0609 234.174C48.9258 232.579 52.1775 229.29 55.985 229.794C61.1404 230.477 62.8282 233.466 70.442 234.08L79.3756 234.799C80.7331 234.909 82.1935 235.206 83.2166 235.065C85.3937 234.765 85.6336 233.145 82.4825 232.546C79.4611 231.971 76.4613 233.149 73.2665 232.597C71.4459 232.282 70.3959 231.055 70.2726 229.908C70.424 228.278 72.0131 227.532 73.9318 227.339C77.6788 226.964 82.4484 228.303 86.1308 229.913C91.3323 232.185 96.2137 235.314 100.908 238.483C104.702 241.092 109.214 242.827 115.231 242.755C137.086 242.501 159.584 242.615 181.455 242.755C187.471 242.795 191.983 241.092 195.778 238.483C201.917 234.299 210.962 228.478 218.283 227.569C219.546 227.411 221.26 227.189 222.753 227.339C224.671 227.532 226.261 228.278 226.412 229.908C226.289 231.055 225.24 232.282 223.418 232.597C220.224 233.149 217.224 231.971 214.202 232.546C211.052 233.144 211.29 234.764 213.468 235.065C214.491 235.206 215.952 234.909 217.309 234.799L226.243 234.08C233.857 233.465 235.544 230.477 240.699 229.794C244.507 229.289 247.757 232.579 242.623 234.174L237.67 235.715C235.855 236.28 237.992 237.466 241.353 236.383C248.938 233.938 246.815 234.297 254.377 233.723C255.482 233.64 257.278 232.909 256.206 231.776C254.729 230.215 250.773 230.049 250.838 231.186C250.943 231.871 252.283 231.765 253.005 231.804L251.593 233.024C251.099 232.853 250.563 232.793 250.1 232.551C247.752 231.319 250.299 228.309 255.158 229.651C257.176 230.208 259.489 232.39 257.241 233.872C255.035 235.325 251.089 234.486 247.353 235.68C245.446 236.289 241.47 237.739 239.597 237.934C234.859 238.428 234.569 235.489 237.192 234.678L242.308 233.096C245.951 231.971 242.668 230.586 240.845 230.952C237.019 231.721 236.213 233.021 232.094 234.381C230.162 235.018 228.335 235.296 226.349 235.461C223.652 235.685 215.418 236.573 213.114 236.244C209.359 235.708 209.554 232.103 213.82 231.219C217.092 230.54 219.974 231.883 223.149 231.356C225.688 230.933 225.139 228.909 222.557 228.577C221.116 228.391 219.326 228.678 218.497 228.781C215.919 229.106 213.4 229.926 210.887 231.093C205.862 233.425 201.586 235.788 196.351 239.321C191.807 242.446 186.953 243.808 181.447 243.772C159.38 243.631 137.308 243.515 115.242 243.772C109.722 243.837 104.882 242.451 100.336 239.324C95.2056 235.86 91.0745 233.542 85.797 231.093C83.2836 229.926 80.7648 229.105 78.1868 228.781C77.3587 228.678 75.5681 228.391 74.1274 228.577C70.9062 228.992 70.5837 231.987 76.6887 231.388C78.6893 231.191 80.7026 230.771 82.8642 231.219C87.13 232.102 87.3268 235.708 83.5702 236.244C81.2656 236.573 73.0331 235.685 70.3355 235.461C66.4574 235.138 63.0944 234.088 59.7296 232.287C58.7586 231.766 57.991 231.384 55.8402 230.952C54.0166 230.586 50.7356 231.971 54.378 233.096L59.4945 234.678C62.8323 235.71 61.0255 239.424 54.9392 237.472C52.3564 236.644 48.489 235.181 45.8608 234.998C43.9678 234.865 41.0643 234.939 39.4447 233.872C36.7955 232.124 40.2769 229.031 44.4476 229.316C46.9837 229.488 48.437 231.44 46.7013 232.485C46.2119 232.779 45.628 232.838 45.0926 233.024L43.6794 231.804C44.4027 231.765 45.7429 231.871 45.847 231.185ZM252.712 190.669C251.442 187.748 250.036 184.737 249.864 181.89C250.033 180.68 250.317 179.439 250.71 178.08C252.347 172.414 255.068 166.847 256.762 161.316C258.338 156.167 258.789 155.596 257.191 149.949C256.065 145.969 254.693 142.664 256.274 138.575C257.042 136.588 257.964 134.574 258.952 132.577L263.407 126.061L263.035 193.216C263.011 197.706 262.024 201.732 259.824 205.647C258.982 207.142 256.487 209.496 254.504 210.607C254.251 210.68 253.993 210.748 253.729 210.807C250.651 211.497 248.604 210.961 246.746 208.923C248.904 210.294 250.941 209.65 252.743 208.232C254.547 206.809 255.175 203.482 255.295 201.735C255.555 197.944 254.036 193.714 252.712 190.669V190.669ZM231.302 97.3659C233.534 97.2043 234.755 97.2743 236.285 98.5253C235.355 98.6899 234.431 98.8765 233.507 99.0734C233.052 98.1353 232.129 97.5184 231.302 97.3659V97.3659ZM236.726 103.736C235.445 105.95 234.402 108.225 234.148 110.802L233.31 119.257C233.028 122.103 230.597 125.542 227.49 125.782C225.05 125.971 223.854 123.574 224.943 121.501C226.652 122.239 228.628 122.688 229.935 121.106C231.876 118.759 232.775 113.861 232.736 110.852C232.697 107.847 233.247 106.501 233.826 104.229C234.791 104.057 235.757 103.889 236.726 103.736V103.736ZM233.062 142.587C230.457 136.971 224.284 132.896 219.351 129.339C217.991 128.359 217.32 126.98 216.996 125.428H217.048C217.717 126.559 218.484 127.842 219.846 128.745L231.214 136.289C236.631 139.884 236.853 141.75 237.609 147.85L240.392 170.352C240.964 174.977 237.196 177.251 233.162 178.37C230.403 179.135 227.675 179.917 224.955 180.756V180.667C228.198 179.213 231.468 178.014 234.134 175.564C236.764 173.145 238.541 169.294 238.531 165.813C238.521 162.081 237.066 157.865 236.157 154.095C234.827 148.581 235.457 147.76 233.062 142.587ZM70.5377 105.378C71.322 103.716 72.9224 102.494 74.7879 101.342C72.0765 102.417 70.0423 101.961 67.5157 105.106C68.4275 105.465 69.3315 105.842 70.2272 106.236C70.3085 105.939 70.4073 105.654 70.5377 105.378ZM65.6251 110.939C65.6108 113.776 66.1283 116.585 65.3463 119.372L63.08 118.918C68.0703 122.079 69.5846 125.738 71.2227 131.277C71.3615 131.635 71.1569 133.219 71.5284 133.126C71.9742 133.015 71.8754 131.418 72.0406 131.846C72.3487 132.64 72.743 133.532 73.1983 134.453C74.2572 129.746 73.8073 122.748 73.3089 117.609C73.0517 114.936 72.4109 113.783 71.1611 113.926C70.9738 113.643 70.7872 113.278 70.6232 112.863L65.6251 110.939ZM71.258 151.602C65.9273 149.233 62.1952 144.666 57.7744 141.072L57.7188 141.456L63.521 155.05C64.1564 156.808 65.1016 159.733 65.1304 161.871C65.1591 163.925 65.0137 164.681 64.3987 166.543C63.6975 168.666 62.8072 170.645 62.0348 172.657C61.4144 174.275 59.7027 181.115 59.1487 183.182C57.9162 187.779 53.5134 191.282 50.2588 194.529C48.063 196.722 46.6978 200.322 47.0801 203.457C47.1459 204.004 47.3355 204.382 47.6018 204.654C47.4905 203.855 47.4953 202.993 47.6137 202.255C47.8758 200.618 50.8816 195.974 53.6774 194.407C54.506 193.944 55.2622 193.675 55.9233 193.308C59.0853 192.194 61.2505 187.479 62.0187 185.429L66.9839 172.189C67.575 170.612 68.0542 169.025 68.3491 167.421L71.258 151.602ZM42.1592 186.744C42.0329 187.711 39.498 194.46 39.2144 195.475C38.8285 196.851 37.8234 197.897 37.6391 200.111C37.5135 201.627 37.8359 203.385 37.0241 205.865C37.2388 203.927 36.7722 202.643 36.3821 200.757C35.9591 198.701 36.6789 197.035 37.3621 195.147L38.8871 190.933C39.9042 188.12 39.7756 184.681 39.3981 181.769L36.5143 179.022L36.4922 171.302C37.7893 174.919 37.5482 179.071 42.5546 177.81C42.8574 180.569 42.6749 182.803 42.1592 186.744V186.744ZM38.4917 231.529L38.5323 215.691C38.5377 215.256 39.1091 213.928 39.8653 213.927L47.1806 213.903C47.3511 214.149 47.4337 214.404 47.4348 214.651L47.4295 230.488C45.8889 228.011 39.7744 228.96 38.4917 231.529V231.529ZM258.193 231.529L258.152 215.691C258.109 213.605 253.585 211.743 250.588 213.046C249.671 213.493 249.252 214.093 249.251 214.651L249.256 230.487C250.791 228.022 256.891 228.945 258.193 231.529V231.529ZM70.2726 228.969V218.083C70.2726 216.497 70.3582 215.125 72.8064 214.23C73.8211 213.858 74.7514 213.697 75.7709 213.697V213.676C75.8511 213.675 75.9318 213.673 76.0126 213.673L76.0246 213.697C77.9756 213.697 79.4551 214.084 81.3882 214.675L90.1148 217.347C91.8133 225.565 99.2219 231.672 107.898 231.672H128.835L131.858 234.696H143.136V236.025L149.16 242.048L155.183 236.025V234.696L166.469 234.686L169.483 231.672H188.785C197.462 231.672 204.87 225.565 206.569 217.347L216.031 214.457C216.365 214.41 216.668 214.552 216.938 214.373C217.063 214.291 217.177 214.206 217.291 214.121C218.544 213.821 219.8 213.631 221.065 213.681L221.051 214.457H221.99L222.429 213.833C222.673 213.878 222.917 213.934 223.162 214.001L223.159 214.457H224.047L224.147 214.334C226.333 215.23 226.412 216.558 226.412 218.083V228.97C225.158 226.436 220.477 227.04 218.25 227.317C211.002 228.217 201.498 234.277 195.634 238.273C191.305 241.25 186.701 242.537 181.456 242.502C159.381 242.361 137.302 242.245 115.227 242.502C109.971 242.564 105.385 241.254 101.051 238.274C95.1853 234.276 85.6899 228.218 78.4339 227.317C76.2082 227.04 71.5278 226.436 70.2726 228.969ZM113.231 82.1078C112.989 81.7727 112.921 81.455 113.006 81.1535C113.715 80.8508 113.987 80.149 114.055 80.0802C115.032 79.5238 116.624 79.0409 118.701 78.6317C119.358 78.6365 120.027 78.5545 120.712 78.4139C121.159 78.3224 121.627 78.2105 122.102 78.0777C122.843 77.9251 129.997 77.2269 131.481 77.2329C132.215 77.2347 133.014 77.1958 133.821 77.1043C144.923 76.5904 158.298 76.8452 168.268 77.772C169.247 78.3212 170.35 78.6042 171.464 78.7472C172.93 78.9362 174.663 79.0009 176.254 78.7992C177.307 78.9889 178.254 79.1917 179.081 79.4071C179.513 79.8121 180.022 80.1388 180.566 80.4116C181.229 80.7437 181.981 81.047 182.761 81.2809C182.864 81.5466 182.828 81.8212 182.621 82.1078C179.46 86.4902 116.23 86.2647 113.231 82.1078ZM117.634 81.5843C113.391 77.4028 181.76 78.0945 178.22 81.5843C175.194 84.5667 120.518 84.4279 117.634 81.5843ZM63.6562 182.667C64.4298 183.974 66.181 186.21 66.5226 186.505C68.4138 188.14 69.8215 190.824 70.0608 193.007C70.1931 194.225 69.6217 197.095 69.3991 197.771C68.8098 199.559 68.6507 201.597 69.0091 203.456C69.3788 205.383 70.8931 205.26 72.2093 205.519C74.6982 206.007 78.0701 207.579 79.1243 209.948C79.3869 210.539 79.4127 212.159 79.3798 213.185H79.1644C78.8383 212.495 78.3639 211.016 77.5999 210.866C77.9325 211.208 78.1503 212.61 78.1946 213.185H77.9313C77.494 212.338 76.4787 211.157 76.1293 211.079C76.3399 211.425 76.5564 212.649 76.6157 213.185H76.3255C75.9982 212.583 75.2582 211.418 74.7759 211.381C75.1182 211.828 75.2623 212.838 75.2612 213.185H74.9626C74.4026 212.318 73.2354 211.832 72.5605 212.385C71.9736 212.865 70.2338 213.49 69.435 213.407L63.4163 213.416C60.9537 213.418 59.5537 210.269 59.8541 208.751C60.6528 204.725 60.237 204.459 59.2462 200.758C58.8627 199.322 56.9015 196.768 54.1919 194.768C54.85 194.427 55.5255 194.169 56.1746 193.809C59.2283 192.737 61.4599 188.521 62.5452 185.627L63.6562 182.667ZM223.714 213.399C223.689 213.579 223.67 213.763 223.669 213.948H223.802L224.248 213.397L223.714 213.399ZM221.588 213.413C221.578 213.59 221.567 213.766 221.564 213.947H221.719C221.844 213.764 221.977 213.584 222.109 213.41L221.588 213.413ZM228.361 213.249C228.328 213.505 228.336 213.735 228.374 213.948C229.136 213.948 229.382 212.739 231.496 212.869L239.543 212.814C241.346 212.802 242.795 210.283 242.85 208.89C242.938 206.695 241.502 204.684 241.193 202.509C239.325 200.661 239.029 199.045 233.783 197.745C233.955 198.734 234.309 201.129 234.148 202.177C233.865 204.025 232.847 205.932 231.182 206.815C231.371 207.486 231.494 208.176 231.465 208.912C231.399 210.518 230.043 212.704 228.361 213.249V213.249ZM225.987 213.947C226.149 213.768 226.343 213.575 226.559 213.381L225.876 213.386C225.845 213.572 225.819 213.758 225.813 213.947H225.987ZM214.04 213.947C214.84 213.061 216.466 211.859 216.912 211.79C216.453 212.689 216.325 213.386 216.427 213.947C217.166 213.947 217.604 212.749 219.548 212.869L227.595 212.814C229.398 212.801 230.847 210.283 230.904 208.889C230.99 206.694 229.556 204.684 229.246 202.508C228.894 200.037 229.754 197.091 232.89 197.121C236.945 197.161 239.383 199.103 241.822 202.259L246.188 208.267L246.883 208.708C248.903 209.992 250.817 209.424 252.587 208.032C254.217 206.746 254.906 203.687 255.041 201.717C255.534 194.56 250.699 189.005 249.738 183.038C249.35 188.212 251.863 192.086 250.642 196.736C250.053 198.974 247.927 200.939 246.199 200.194C244.1 199.292 243.493 195.199 243.659 193.262C243.991 189.425 246.351 185.057 247.777 181.4C250.889 173.424 254.414 165.53 254.978 156.894C255.928 142.326 248.112 130.541 248.661 117.419C248.782 114.519 249.462 111.581 250.066 108.742L250.059 108.742C246.893 112.664 243.021 118.847 240.852 124.931C238.255 132.22 239.394 144.613 240.567 152.115C241.347 157.117 242.417 163.482 242.422 167.919C242.428 174.79 239.347 176.084 237.924 177.178C236.205 178.499 232.785 178.733 221.61 182.41C218.663 183.38 218.957 186.269 218.938 188.179C218.892 192.798 222.989 197.068 222.202 202.176C221.93 203.942 220.939 205.861 219.383 206.735C217.059 208.041 213.319 205.242 211.037 209.019C210.279 210.271 209.649 211.854 209.618 213.947H209.773C210.744 212.513 212.063 211.284 212.608 211.221C212.226 211.782 211.729 212.825 211.723 213.947H211.857C212.931 212.595 214.001 211.299 214.925 211.25C214.456 211.676 213.9 212.818 213.868 213.947H214.04ZM255.53 210.263C261.294 208.035 264.077 201.916 264.154 195.655L265.074 120.87C263.587 123.855 261.65 127.292 259.823 130.852L263.666 125.232L263.288 193.217C263.265 197.74 262.266 201.82 260.046 205.772C259.212 207.255 257.196 209.12 255.53 210.263V210.263ZM82.5991 113.413C83.2447 112.72 83.7855 111.958 84.2163 110.751L85.9902 105.814C87.1593 102.716 87.4345 101.341 90.9554 100.23L90.9805 100.387C90.4852 100.862 89.7522 101.539 89.5548 102.418C89.8911 101.98 90.6162 101.572 91.1534 101.443L91.1971 101.722C90.6826 102.258 89.9347 102.886 89.775 103.727C90.0957 103.353 90.8633 102.998 91.379 102.85L91.4041 102.998C90.9333 103.617 90.2351 104.213 90.0322 105.211C90.4355 104.685 91.1175 104.186 91.5896 104.137L91.6027 104.211C91.1869 104.748 90.0765 106.747 90.0652 107.504L90.0071 111.274C89.9503 112.437 89.0193 114.32 88.5252 115.408C88.0573 119.939 85.5499 125.725 82.0702 129.125C81.1124 130.063 79.1518 131.929 77.9588 131.948C77.5191 131.956 75.8684 131.597 74.2716 131.042C74.6569 126.624 74.2584 121.59 73.8671 117.556C73.79 116.752 73.65 115.623 73.2431 114.74C74.0257 115.57 75.1409 117.233 76.0479 117.237C79.4115 117.255 80.4615 115.714 82.5991 113.413ZM234.149 103.505C234.29 103.24 234.432 102.977 234.576 102.712C234.701 102.115 234.2 102.614 234.93 101.459L233.05 101.836C233.214 101.986 233.382 102.14 233.548 102.293C233.564 102.494 233.583 102.697 233.599 102.898C233.784 103.1 233.967 103.303 234.149 103.505V103.505ZM236.746 103.062C236.888 102.8 237.031 102.538 237.173 102.275C237.299 101.677 236.795 102.165 237.528 101.025L235.646 101.33C235.811 101.49 235.978 101.651 236.145 101.812C236.163 102.018 236.179 102.223 236.197 102.429C236.381 102.639 236.563 102.851 236.746 103.062V103.062ZM239.344 102.703C239.485 102.443 239.629 102.186 239.773 101.929C239.754 101.723 239.738 101.516 239.719 101.309C239.854 101.104 239.99 100.898 240.125 100.694L238.243 100.924C238.408 101.09 238.575 101.259 238.742 101.426C238.758 101.633 238.776 101.839 238.794 102.044C238.977 102.263 239.161 102.482 239.344 102.703V102.703ZM241.942 102.431C242.083 102.178 242.226 101.93 242.371 101.678C242.352 101.471 242.334 101.267 242.318 101.061C242.451 100.863 242.588 100.664 242.721 100.467L240.844 100.622C241.007 100.796 241.174 100.969 241.34 101.142C241.357 101.347 241.376 101.553 241.393 101.758C241.575 101.983 241.757 102.208 241.942 102.431V102.431ZM244.538 102.253C244.679 102.008 244.824 101.764 244.966 101.52C245.095 100.951 244.585 101.364 245.319 100.335L243.44 100.422C244.341 101.387 243.766 101.002 243.991 101.567C244.172 101.796 244.354 102.024 244.538 102.253V102.253ZM247.137 102.167C247.279 101.93 247.421 101.691 247.563 101.456C247.546 101.253 247.528 101.05 247.512 100.847C247.646 100.661 247.782 100.478 247.918 100.293L246.037 100.316C246.202 100.497 246.369 100.677 246.536 100.86C246.552 101.063 246.57 101.265 246.588 101.47C246.77 101.702 246.954 101.935 247.137 102.167ZM249.741 102.168C249.884 101.937 250.025 101.707 250.169 101.476C250.298 100.93 249.781 101.304 250.523 100.33L248.642 100.296C249.54 101.297 248.968 100.883 249.191 101.458C249.377 101.696 249.558 101.933 249.741 102.168V102.168ZM235.268 101.152C235.268 101.152 235.268 101.149 235.27 101.148C235.27 101.149 235.272 101.151 235.275 101.152C235.416 100.886 235.561 100.62 235.704 100.355C235.828 99.7578 235.33 100.253 236.055 99.1003C236.291 99.0572 236.527 99.0153 236.766 98.9788C236.931 99.1428 237.099 99.3079 237.266 99.4718C237.282 99.677 237.299 99.8835 237.316 100.089C237.499 100.302 237.683 100.515 237.865 100.732C238.008 100.472 238.149 100.211 238.293 99.9505C238.418 99.3576 237.91 99.838 238.648 98.706C238.884 98.6749 239.124 98.6492 239.362 98.6217C239.529 98.7922 239.695 98.9627 239.864 99.1338C239.879 99.3402 239.896 99.5448 239.914 99.7518C240.097 99.9732 240.279 100.195 240.463 100.418C240.604 100.162 240.748 99.9092 240.891 99.6555C241.019 99.0716 240.507 99.5269 241.244 98.432C241.481 98.4141 241.72 98.3973 241.96 98.3794C242.124 98.5553 242.293 98.7317 242.46 98.907C242.477 99.1129 242.495 99.3193 242.512 99.5233C242.695 99.7494 242.877 99.9792 243.06 100.206C243.201 99.9588 243.345 99.7117 243.489 99.4647C243.617 98.8927 243.106 99.3264 243.841 98.2675C244.078 98.2585 244.32 98.2501 244.559 98.24C244.724 98.4218 244.89 98.6019 245.058 98.7814C245.076 98.9848 245.094 99.1882 245.111 99.394C245.292 99.6244 245.474 99.8577 245.659 100.087C245.8 99.8476 245.943 99.6088 246.087 99.3695C246.215 98.8125 245.702 99.2146 246.438 98.1951C246.681 98.1939 246.923 98.1939 247.164 98.1915C248.058 99.1817 247.488 98.7676 247.715 99.351C247.896 99.5873 248.08 99.8236 248.262 100.058C248.405 99.8236 248.549 99.5921 248.691 99.3582C248.821 98.8071 248.304 99.2032 249.044 98.2035C249.281 98.21 249.522 98.2154 249.762 98.2202C249.927 98.4087 250.094 98.5959 250.261 98.7832C250.277 98.9842 250.295 99.187 250.313 99.3887C250.496 99.6286 250.678 99.8667 250.862 100.107C250.959 99.9522 251.055 99.7985 251.151 99.6435L251.369 102.27C245.031 102.064 238.884 102.635 232.658 103.853L232.45 101.451C232.523 101.529 232.597 101.607 232.672 101.684C232.813 101.416 232.955 101.149 233.098 100.878C233.221 100.271 232.729 100.787 233.453 99.628C233.692 99.5753 233.929 99.5215 234.17 99.4664C234.335 99.6196 234.502 99.7752 234.669 99.9301C234.685 100.134 234.703 100.338 234.719 100.541C234.903 100.744 235.087 100.948 235.268 101.152V101.152ZM204.518 174.243C175.895 174.229 121.124 173.848 92.1657 174.162V176.676C97.7059 177.377 102.725 181.071 108.452 180.427C114.14 179.787 119.23 175.983 125.18 176.649C130.808 177.278 135.879 181.079 141.682 180.427C147.37 179.789 152.46 175.984 158.409 176.65C164.039 177.279 169.112 181.079 174.915 180.428C180.605 179.789 185.697 175.982 191.646 176.65C196.129 177.153 200.083 179.585 204.517 180.318V174.243H204.518ZM92.1657 193.487V213.758C92.1657 222.389 99.3326 229.255 107.898 229.255H126.418L125.835 228.671L131.858 222.647L134.606 222.648L131.561 219.602V211.083H140.077L143.136 214.141V203.835L149.16 197.812L155.183 203.835L155.183 214.141L158.2 211.083H166.758V219.602L163.711 222.648H166.461L172.483 228.671L171.9 229.255H188.785C197.35 229.255 204.518 222.389 204.518 213.758V197.145C199.155 196.321 194.243 192.825 188.67 193.45C182.984 194.088 177.892 197.897 171.948 197.231C166.322 196.601 161.249 192.798 155.449 193.451C149.762 194.092 144.671 197.901 138.724 197.23C133.103 196.596 128.035 192.8 122.24 193.451C116.555 194.088 111.465 197.897 105.521 197.232C100.876 196.712 96.7905 194.103 92.1657 193.487V193.487ZM110.957 69.5473C112.624 69.606 112.533 72.1983 110.866 72.1403C109.199 72.0823 109.29 69.4887 110.957 69.5473ZM120.451 67.2571C120.6 67.4061 120.65 67.6609 120.65 67.862H120.65C120.632 68.3574 120.224 68.7546 119.726 68.7373V68.7379H119.724V68.7373C119.619 68.7337 119.518 68.7109 119.425 68.6732V68.6726C119.19 68.5763 119.002 68.3837 118.916 68.1354C119.226 68.2 119.418 68.4244 119.735 68.4357V68.4351L119.737 68.4357V68.4363C120.556 68.4644 120.195 67.6083 120.451 67.2571V67.2571ZM130.871 64.7239C131.02 64.8723 131.071 65.1272 131.071 65.3276H131.07C131.053 65.823 130.645 66.2203 130.147 66.2035H130.144V66.2029C129.78 66.191 129.458 65.951 129.336 65.6022C129.645 65.6663 129.838 65.8912 130.155 65.9032V65.9026H130.158V65.9032C130.978 65.9301 130.615 65.0763 130.871 64.7239ZM143.894 63.5854C144.043 63.7344 144.093 63.9893 144.093 64.1897L144.092 64.1891C144.074 64.6851 143.667 65.0817 143.169 65.065V65.0656H143.167V65.065C142.802 65.0512 142.481 64.8131 142.358 64.4637C142.668 64.5277 142.86 64.7533 143.177 64.764V64.7634H143.18V64.764C143.999 64.7928 143.638 63.9366 143.894 63.5854ZM159.357 64.6246L159.556 65.2283C159.536 65.7243 159.131 66.1215 158.632 66.1042V66.1048H158.629V66.1042C158.265 66.0916 157.943 65.8511 157.821 65.5023C158.131 65.5669 158.323 65.7925 158.64 65.8033L158.64 65.8027L158.643 65.8033C159.463 65.8302 159.1 64.9776 159.357 64.6246V64.6246ZM174.623 67.3444L174.677 67.4198H174.677C174.73 67.503 174.909 67.8626 174.822 67.9493C174.804 68.4447 174.396 68.8414 173.899 68.8252V68.8258L173.896 68.8252C173.532 68.8126 173.21 68.5715 173.088 68.2239C173.397 68.2879 173.59 68.5135 173.907 68.5243V68.5237H173.909V68.5243C174.728 68.5524 174.367 67.6962 174.623 67.3444ZM186.208 70.5925L186.262 70.6667H186.262L186.408 71.1968H186.407C186.389 71.6922 185.982 72.0889 185.484 72.0727V72.0733L185.482 72.0727V72.0721C185.376 72.0685 185.275 72.0464 185.183 72.0087V72.0081C184.947 71.9124 184.76 71.7191 184.673 71.4708C184.983 71.5348 185.175 71.7604 185.492 71.7718V71.7712H185.494V71.7718C186.313 71.8005 185.954 70.9437 186.208 70.5925V70.5925ZM185.628 69.5916C187.567 69.6586 187.463 72.677 185.522 72.6094C183.582 72.5418 183.686 69.5246 185.628 69.5916ZM174.042 66.3447C175.981 66.4117 175.878 69.4295 173.937 69.3619C171.997 69.2943 172.1 66.2765 174.042 66.3447ZM158.775 63.6243C160.715 63.6919 160.61 66.7091 158.67 66.6421C156.734 66.5751 156.839 63.5573 158.775 63.6243ZM143.312 62.5845C145.252 62.6527 145.148 65.6698 143.206 65.6028C141.265 65.5358 141.372 62.5163 143.312 62.5845ZM130.29 63.723C132.23 63.7906 132.125 66.8084 130.184 66.7408C128.244 66.6726 128.349 63.656 130.29 63.723ZM119.869 66.2568C121.809 66.3238 121.704 69.3421 119.763 69.2739C117.824 69.2063 117.928 66.1892 119.869 66.2568ZM110.178 77.2186C112.119 77.2862 112.014 80.3045 110.073 80.2369C108.132 80.1693 108.238 77.1516 110.178 77.2186ZM113.569 72.8702C115.51 72.9378 115.405 75.9556 113.465 75.888C111.523 75.8198 111.63 72.8014 113.569 72.8702ZM123.773 70.3293C125.707 70.3963 125.603 73.4141 123.667 73.3471C121.726 73.2789 121.832 70.2611 123.773 70.3293ZM135.065 68.6978C137.005 68.7648 136.9 71.7825 134.959 71.7155C133.019 71.6485 133.124 68.6296 135.065 68.6978ZM149.157 68.209C151.098 68.2766 150.992 71.2943 149.052 71.2267C147.112 71.1591 147.218 68.1402 149.157 68.209ZM164.466 69.7274C166.406 69.795 166.302 72.8128 164.36 72.7452C162.42 72.677 162.525 69.6604 164.466 69.7274ZM178.683 72.7386C180.624 72.8062 180.519 75.8234 178.579 75.7563C176.638 75.6899 176.743 72.6704 178.683 72.7386ZM186.963 75.1599C188.903 75.2275 188.8 78.2452 186.858 78.1776C184.917 78.11 185.023 75.0917 186.963 75.1599ZM187.545 76.1602C187.694 76.3092 187.744 76.564 187.744 76.7651H187.744C187.726 77.2604 187.318 77.6577 186.821 77.6398V77.6409H186.818V77.6404C186.453 77.626 186.132 77.3885 186.009 77.0391C186.319 77.1031 186.511 77.328 186.828 77.3394V77.3388H186.831V77.3394C187.651 77.3663 187.289 76.5126 187.545 76.1602V76.1602ZM179.265 73.7395C179.414 73.8879 179.465 74.1428 179.465 74.3438L179.464 74.3432C179.446 74.8392 179.039 75.2359 178.54 75.2191V75.2197H178.539V75.2191C178.433 75.2155 178.332 75.1934 178.239 75.1557V75.1551C178.004 75.0587 177.816 74.8661 177.73 74.6178C178.04 74.6818 178.232 74.9074 178.549 74.9188V74.9181H178.551V74.9188C179.371 74.9469 179.009 74.0901 179.265 73.7395V73.7395ZM165.047 70.7284L165.101 70.8031L165.246 71.3326C165.228 71.8286 164.82 72.2259 164.323 72.2085H164.32C164.215 72.2043 164.114 72.1816 164.021 72.1445C163.786 72.0488 163.599 71.8549 163.512 71.6066C163.822 71.6706 164.014 71.8962 164.331 71.907H164.333H164.333C165.154 71.9339 164.792 71.0807 165.047 70.7284V70.7284ZM149.739 69.2099C149.888 69.3583 149.938 69.6132 149.938 69.8136H149.937C149.919 70.309 149.513 70.7068 149.014 70.6889V70.6895H149.013V70.6889C148.648 70.6769 148.326 70.4364 148.204 70.0882C148.514 70.1528 148.706 70.3778 149.022 70.3885H149.025C149.844 70.4172 149.484 69.5605 149.739 69.2099ZM135.647 69.6981C135.795 69.8471 135.845 70.1019 135.845 70.3024C135.827 70.7978 135.42 71.195 134.922 71.1777V71.1783H134.92V71.1777C134.556 71.1651 134.233 70.9252 134.111 70.577C134.422 70.641 134.613 70.866 134.93 70.8773V70.8767L134.932 70.8773V70.8779C135.752 70.9043 135.391 70.0499 135.647 69.6981V69.6981ZM124.354 71.3296L124.553 71.9339C124.534 72.4293 124.127 72.8271 123.63 72.8098H123.627C123.521 72.8062 123.42 72.7835 123.327 72.7458C123.092 72.6501 122.906 72.4574 122.818 72.2085C123.128 72.2725 123.32 72.4981 123.637 72.5089V72.5083H123.639V72.5089C124.459 72.5358 124.097 71.682 124.354 71.3296V71.3296ZM114.152 73.8711C114.301 74.0201 114.35 74.2744 114.35 74.4754H114.35C114.332 74.9708 113.924 75.3687 113.426 75.3507V75.3513H113.424V75.3507C113.06 75.3382 112.738 75.0982 112.616 74.7494C112.925 74.8141 113.117 75.039 113.434 75.0498V75.0492L113.437 75.0498C114.258 75.0767 113.895 74.2235 114.152 73.8711V73.8711ZM110.76 78.2201L110.814 78.2943L110.96 78.8238H110.959C110.942 79.3192 110.534 79.7164 110.036 79.6991V79.6997H110.034V79.6991C109.669 79.6847 109.349 79.4484 109.226 79.0984C109.535 79.1624 109.727 79.388 110.044 79.3981V79.3975L110.047 79.3981V79.3987C110.866 79.4268 110.505 78.5713 110.76 78.2201V78.2201ZM111.456 70.4071L111.627 70.9258C111.612 71.3518 111.262 71.6928 110.833 71.6784V71.679H110.831V71.6784C110.518 71.6659 110.242 71.4619 110.137 71.1615C110.401 71.2166 110.571 71.4194 110.842 71.4194V71.42C111.547 71.4445 111.237 70.708 111.456 70.4071ZM109.295 68.3244C109.295 68.3244 109.919 68.699 110.382 69.3876C108.914 69.9422 109.175 72.2803 110.807 72.391C110.673 73.5834 110.142 75.6325 109.539 75.8527C108.783 76.1291 106.966 73.6504 108.033 71.7873C108.808 70.4352 109.502 69.8519 109.295 68.3244V68.3244ZM139.393 73.9842C136.457 73.8197 135.47 72.2737 134.699 71.9417C134.231 71.8555 133.834 71.5803 133.58 71.2022C132.878 70.5566 129.472 70.1079 127.251 70.8121C126.303 71.1137 125.804 71.3613 125.427 71.5277C125.534 72.1403 125.295 72.7865 124.844 73.1789L126.376 73.4278L125.898 73.021C129.303 71.9405 132.926 75.4345 137.729 74.3558C137.6 74.887 135.363 74.5269 136.006 75.0737L136.593 75.5027C136.286 75.5021 135.373 74.8021 134.926 74.7668C133.961 74.6896 132.126 74.1158 132.929 74.7662C133.464 75.2005 134.371 75.6026 134.302 75.6756C134.03 75.9628 131.371 73.9418 131.252 73.9065C129.232 73.3076 128.755 72.9097 131.026 74.9911C131.522 75.4452 131.992 75.754 131.953 75.745C130.896 75.517 129.298 73.2812 128.348 73.216C127.381 73.1502 126.821 73.4242 126.821 73.4242L126.832 73.4368L127.869 73.3758C128.513 73.4476 128.038 74.2391 127.843 74.4772C128.03 74.6711 128.518 75.0097 128.543 75.2789L127.74 74.5951L127.041 75.3106C129.885 77.7086 135.48 76.5563 137.418 75.6941C137.64 75.596 139.966 74.2792 139.393 73.9842V73.9842ZM142.241 60.8022C138.018 63.6614 136.077 60.3427 131.288 63.8283C131.415 63.927 131.529 64.0431 131.625 64.1729C131.767 63.9474 131.714 64.274 131.726 64.3261C131.893 64.6091 131.984 64.9423 131.971 65.2923C131.942 66.1395 131.321 66.8419 130.512 66.9741C130.438 67.019 129.997 67.4467 130.206 66.9956C129.668 66.9867 129.192 66.7288 128.884 66.3363C127.958 68.0714 126.703 69.7065 125.25 71.006C125.295 71.0927 125.334 71.1843 125.365 71.2788C127.982 70.1038 130.603 69.7783 133.381 70.8049C132.686 68.8521 135.433 67.4898 136.501 69.299C139.597 67.0154 141.422 64.2651 141.536 63.8989C141.576 63.5351 141.725 63.2037 141.95 62.9411C142.283 62.3841 142.739 60.7304 142.241 60.8022V60.8022ZM138.483 62.6497C138.598 63.0416 138.127 64.0993 138.023 64.374L137.79 64.4368C137.857 64.0054 138.285 62.9423 138.483 62.6497ZM135.824 73.2998C135.723 73.6199 134.886 74.0865 134.685 74.2158L134.487 74.138L135.824 73.2998ZM119.695 71.1322L119.518 71.1071C119.491 71.146 119.465 71.1854 119.44 71.2255L119.707 71.2094L119.695 71.1322ZM129.091 69.4163C131.583 65.8697 137.124 66.9197 140.942 62.3583C141.17 62.9907 138.846 64.2088 139.81 64.3004C139.86 64.3052 140.757 64.2202 140.635 64.3135C140.349 64.5313 139.042 64.4787 138.608 64.7593C137.606 65.4072 135.587 66.094 136.754 66.176C137.535 66.231 138.638 65.9905 138.621 66.112C138.559 66.5691 134.67 66.4937 134.638 66.5051C134.08 66.7109 133.523 66.9191 133.019 67.1267C132.688 67.2625 132.515 67.2553 133.024 67.3708C133.5 67.4797 134.38 67.6484 135.135 67.7519C135.892 67.8548 136.53 67.8302 136.487 67.8494C135.781 68.1725 133.386 67.8045 132.596 67.716C132.036 67.6538 131.762 67.6561 131.317 67.999C130.193 68.8713 130.213 69.1662 130.213 69.1662C130.62 69.2482 132.861 69.603 133.017 69.7998L129.091 69.4163ZM136.693 62.7801C136.732 62.7885 136.869 63.1678 136.773 63.4167C136.637 63.7679 136.057 65.138 135.725 65.2163C135.318 65.3121 136.231 63.8235 136.318 63.6512C136.43 63.4293 136.584 62.7592 136.693 62.7801V62.7801ZM134.007 63.0739C134.007 63.0601 134.179 63.2139 134.163 63.2988C134.149 63.3838 134.057 63.9767 133.97 64.1969C133.882 64.4164 133.428 65.1607 133.424 65.3276C133.419 65.4939 133.327 65.8804 133.104 65.7207C132.864 65.5496 133.579 64.441 133.728 63.5848C133.795 63.2025 134.009 63.0876 134.007 63.0739V63.0739ZM134.474 72.4754C134.764 72.7751 132.935 73.7311 132.636 73.6055C132.288 73.4589 134.472 72.4724 134.474 72.4754ZM132.405 71.3021C132.41 71.2919 132.462 71.4816 132.411 71.5307C131.702 72.2175 131.012 72.3958 130.929 72.5065C130.847 72.6154 130.601 72.8259 130.515 72.6058C130.427 72.382 131.523 71.9291 131.963 71.5001C132.191 71.2794 132.399 71.3117 132.405 71.3021V71.3021ZM130.284 70.8049C130.244 71.2225 128.207 72.2857 127.783 72.1295C127.472 72.0153 128.655 71.7089 128.811 71.621C128.914 71.5624 130.304 70.6165 130.284 70.8049V70.8049ZM129.462 62.0155C126.17 65.0925 124.016 62.5468 120.321 66.0767C122.212 66.657 121.787 69.5988 119.755 69.5282C119.209 69.509 118.736 69.2368 118.434 68.8312C117.77 70.7349 116.658 72.8212 115.239 74.1643L115.245 74.5334C118.338 71.4313 119.405 72.8636 122.072 72.3922C121.963 72.0578 121.957 71.6659 122.06 71.3254L118.99 71.5055C120.693 68.0343 125.802 68.121 128.526 63.5782C128.817 64.1083 126.924 65.5149 127.794 65.4616C128.011 65.4479 128.335 65.2498 128.504 65.3204C128.472 64.5654 128.915 63.8798 129.577 63.601C129.672 63.1229 129.894 61.8821 129.462 62.0155ZM112.324 75.6606L110.867 75.9239C110.352 76.7734 110.606 76.1913 110.705 76.862C110.122 76.3517 110.16 76.5838 110.634 75.9556L109.27 76.2254L109.37 76.1046C109.243 76.0896 109.118 76.0483 108.999 75.9879C108.78 76.3552 109.094 76.7369 109.481 77.0899C109.992 76.8805 110.619 76.9469 111.073 77.2491C111.932 76.8931 112.665 77.1498 113.54 76.7704C114.155 76.5042 114.392 76.3098 114.528 76.3116C114.991 76.3169 113.763 77.2377 112.375 77.3478L111.392 77.5207C111.74 77.8994 111.921 78.4469 111.842 78.9835C112.34 79.2168 113.324 79.6285 113.72 79.2653C113.814 79.1797 114.591 78.5593 114.347 78.5839C114.089 78.6096 111.902 78.1944 112.337 77.766C112.788 77.3203 114.771 79.3371 115.909 77.1336C116.275 76.424 116.32 75.5511 116.32 75.5511C115.809 75.7426 115.246 75.7216 114.712 75.6558C114.064 76.2846 112.976 76.2894 112.324 75.6606V75.6606ZM111.021 80.2375C111.635 80.9004 112.748 80.9465 113.277 80.3321C113.444 80.1382 113.567 79.9162 113.69 79.6901C113.437 80.1029 112.389 79.7661 111.717 79.4298C111.571 79.7655 111.328 80.0479 111.021 80.2375V80.2375ZM125.112 70.7846C126.638 69.4121 128.217 67.0453 128.718 66.0851C128.601 65.8703 128.527 65.6286 128.507 65.3749C128.227 65.5825 127.136 65.7273 126.788 66.0384C126.022 66.7246 124.291 67.6472 125.341 67.5562C126.041 67.4958 126.987 67.1279 126.99 67.2385C126.998 67.6663 123.584 68.1025 123.508 68.145C123.04 68.4064 122.575 68.6691 122.155 68.9239C121.881 69.0908 121.726 69.1082 122.194 69.1399C122.632 69.1698 123.438 69.1967 124.123 69.1824C124.808 69.168 125.372 69.0567 125.337 69.0801C124.413 69.6957 121.633 69.1423 120.906 69.801C120.152 70.4831 119.948 71.128 119.948 71.128L122.095 71.2171C122.567 69.9488 124.315 69.6945 125.112 70.7846V70.7846ZM124.811 64.5492C125.218 64.5642 124.628 66.7103 124.291 66.8473C123.929 66.9956 124.809 64.5492 124.811 64.5492ZM126.382 64.1819C126.54 64.514 126.27 65.5197 126.216 65.7781L126.017 65.8661L126.382 64.1819ZM122.468 65.1858C122.465 65.1739 122.639 65.2857 122.637 65.3635C122.617 66.4584 122.243 67.1105 122.264 67.2685C122.283 67.4174 122.255 67.7734 122.035 67.6621C121.808 67.5485 122.278 66.3812 122.291 65.6782C122.297 65.3294 122.471 65.1972 122.468 65.1858V65.1858ZM127.798 73.6241C127.798 73.6241 125.892 73.8245 124.591 73.362C124.01 73.7078 123.224 73.6629 122.686 73.2549C122.653 73.773 121.32 74.6699 121.106 74.6268C120.774 74.561 121.663 74.0734 122.474 73.2872C122.523 73.24 122.562 73.2029 122.592 73.1783C122.419 73.027 122.276 72.8415 122.172 72.6333C121.565 72.7464 121.004 72.741 120.416 72.7153C120.008 73.3309 119.25 73.8155 119.21 73.8987C119.153 74.0213 118.954 74.278 118.825 74.0799C118.691 73.8753 119.696 73.2005 120.023 72.6961C119.447 72.6662 118.756 72.6883 118.324 72.8098C117.748 72.9719 115.433 74.3803 115.09 75.1204C118.271 73.9693 121.986 76.2607 126.245 74.3288C126.227 74.8745 123.962 74.9774 124.704 75.3824L125.365 75.6834C125.064 75.7444 124.029 75.246 123.584 75.3017C122.615 75.4225 120.711 75.234 121.628 75.7073C122.241 76.0238 123.211 76.2332 123.158 76.3181C122.946 76.6592 119.95 75.2185 119.811 75.2071C119.294 75.164 118.776 75.124 118.302 75.1006C117.991 75.0857 117.853 75.0193 118.227 75.2855C118.576 75.5344 119.233 75.9711 119.811 76.3146C120.389 76.6586 120.913 76.865 120.872 76.865C119.715 76.8548 117.637 74.8434 116.551 75.0803C116.54 75.5182 116.535 75.9215 116.442 76.3576C116.658 76.5036 117.37 76.8823 117.437 77.0989L116.402 76.5311L116.013 77.4567C119.272 79.1899 124.518 76.9182 126.213 75.7013C126.413 75.5571 128.421 73.8029 127.798 73.6241V73.6241ZM111.794 74.5867C110.322 75.0085 110.643 74.6633 109.941 75.8156L112.134 75.444C111.951 75.1981 111.831 74.9038 111.794 74.5867V74.5867ZM115.179 73.87L116.285 72.4981C117.358 70.8899 117.943 69.4929 118.256 68.538C118.235 68.2173 117.689 67.3612 118.643 66.4674C118.655 66.0533 118.67 64.4452 118.27 64.7928C118.27 64.7928 117.318 66.0665 116.073 66.6905C114.216 67.6203 112.862 67.6298 111.309 69.3439C111.913 69.509 112.358 70.0391 112.427 70.6697L112.399 69.3732C112.261 68.6409 112.789 68.8647 112.761 69.7418C112.755 69.9267 112.61 70.6003 112.653 70.7218C112.708 70.8749 112.62 71.2931 112.422 71.0526C112.327 71.7562 111.766 72.3162 111.061 72.3868C110.994 73.0186 110.881 73.6749 110.716 74.2445C112.111 71.3799 116.121 70.4256 117.692 66.3082C118.044 66.6887 116.584 68.2736 117.355 68.0504L118.003 67.8117C117.84 68.0534 116.807 68.41 116.544 68.7462C115.995 69.448 114.557 70.6231 115.495 70.3287C116.121 70.1319 116.916 69.6245 116.937 69.7185C117.022 70.0894 114.035 71.1202 113.934 71.2052C112.387 72.5023 111.844 72.6578 114.674 71.9536C115.294 71.7993 115.785 71.5887 115.758 71.6156C115.021 72.333 112.417 72.4215 111.861 73.143C111.299 73.8718 111.224 74.4623 111.224 74.4623L111.781 74.3576C111.825 72.3437 114.619 71.983 115.179 73.87V73.87ZM116.433 75.0845C116.351 75.1042 116.191 75.115 116.121 75.1347L116.246 75.3531L116.433 75.0845ZM115.948 75.1898C115.813 75.2311 115.216 75.4566 115.13 75.4919C115.281 75.5727 115.952 75.5093 116.031 75.4237L115.948 75.1898ZM124.163 73.6797C124.13 74.0136 123.406 74.6406 123.235 74.8081L123.026 74.7716L124.163 73.6797ZM115.774 73.2017L115.61 73.4015C115.664 73.3369 115.718 73.2705 115.774 73.2017ZM114.491 67.8973C114.524 67.8907 114.737 68.1234 114.733 68.3322C114.702 69.7017 114.229 70.5004 114.284 69.6347L114.491 67.8973ZM115.853 67.2613C116.054 67.5096 115.984 68.4154 115.981 68.6433L115.815 68.7594L115.853 67.2613ZM108.86 71.8663C108.99 71.8472 109.146 72.4048 109.033 72.601C108.921 72.7966 108.553 73.2537 108.525 73.4057C108.392 74.1045 108.59 73.8759 108.236 74.6292L107.936 74.1607C108.327 73.864 108.031 73.5618 108.218 73.1371C108.319 72.9049 108.669 72.6118 108.724 72.4024C108.778 72.1924 108.73 71.8848 108.86 71.8663V71.8663ZM186.093 78.5097C185.846 78.7394 184.941 78.8609 184.693 78.9051L184.591 78.7621L186.093 78.5097ZM185.369 77.4764C185.125 77.6523 183.665 77.8097 183.524 77.5967C183.36 77.3478 185.04 77.3454 185.285 77.2862C185.135 76.8787 185.143 76.3941 185.31 75.9921C184.199 76.3858 183.197 76.664 182.076 76.7399C183.515 78.4576 184.786 79.7577 186.885 80.1651C186.486 80.5737 185.015 79.4574 185.165 80.1663L185.348 80.7676C185.111 80.6467 184.858 79.6895 184.539 79.4891C183.867 79.0661 182.837 77.8761 183.045 78.7448C183.187 79.3329 183.624 80.0299 183.529 80.0688C183.164 80.2202 182.344 77.398 182.304 77.3526C182.121 77.1486 181.937 76.9452 181.756 76.7525C181.602 76.7555 181.448 76.7531 181.295 76.7435C181.332 77.148 181.401 77.7361 181.486 78.238C181.586 78.8292 181.753 79.2803 181.729 79.2575C181.361 78.9183 181.095 77.2922 180.984 76.716C180.807 76.6951 180.632 76.6651 180.458 76.6251C180.37 77.2509 179.676 77.1869 179.456 77.5686L179.447 77.5231C179.176 77.6637 178.877 77.8061 178.609 77.9246C179.845 80.5247 184.689 81.2713 185.851 81.2432C185.983 81.2396 188.769 80.8873 188.354 80.4475C188.301 80.3907 187.012 79.5321 186.549 78.393C186.029 78.2841 185.602 77.9365 185.369 77.4764V77.4764ZM186.057 72.8152C186.031 73.091 185.439 73.6121 185.299 73.7515L185.128 73.7222L186.057 72.8152ZM184.794 72.6782C184.706 72.8822 183.771 73.6444 183.553 73.6001C183.266 73.5421 184.496 72.6955 184.603 72.5645C184.238 72.3126 183.976 71.9249 183.879 71.4804C183.832 71.466 183.784 71.4511 183.737 71.4385C183.515 71.5953 183.276 71.7454 183.026 71.8878C183.098 72.2312 182.095 72.7823 181.997 72.9953C181.951 73.097 181.789 73.31 181.683 73.1448C181.581 72.9869 182.389 72.3347 182.547 72.1457C181.747 72.5531 180.863 72.8924 179.995 73.1598C180.122 73.3237 180.22 73.511 180.284 73.7126C182.717 74.0165 185.597 74.3522 187.763 73.356C187.749 73.7916 185.911 73.9035 186.503 74.2301L187.046 74.4808C186.799 74.5323 185.95 74.1176 185.585 74.1631C184.87 74.2517 183.23 74.1057 183.983 74.4994C184.487 74.762 185.281 74.9367 185.238 75.0073C185.066 75.2897 182.603 74.0925 182.493 74.0829C180.682 73.928 180.394 73.7359 182.496 75.0025C182.97 75.2879 183.4 75.4602 183.366 75.4596C182.585 75.4494 180.998 74.135 180.35 74.0099C180.405 74.4449 180.293 74.9038 180.053 75.2538C180.199 75.3537 180.501 75.4823 180.553 75.6528L179.991 75.3406C179.804 75.5805 179.557 75.7701 179.273 75.8862C179.974 76.2834 179.833 75.9221 180.409 76.3534C181.38 76.8195 185.016 76.0268 185.494 75.6523C185.82 75.1856 186.36 74.8846 186.971 74.9056C187.585 74.9235 189.613 72.8098 189.033 72.7703C189.033 72.7703 187.634 72.9671 186.507 72.5872C186.011 72.9097 185.329 72.9504 184.794 72.6782V72.6782ZM176.954 73.7976C176.644 73.8209 176.333 73.8263 176.023 73.8113C176.282 74.0608 176.58 74.473 176.923 74.5586L176.954 73.7976ZM180.139 76.4294L178.57 76.01C177.956 75.9885 177.434 75.6469 177.143 75.1539C175.93 74.2253 174.845 72.7793 173.534 72.2283C171.075 71.1956 168.795 71.1472 165.973 72.0045C165.721 72.5292 165.223 72.9109 164.629 72.9863C167.178 74.1924 166.953 73.1167 169.133 73.9178C172.542 75.17 174.544 76.9643 178.355 76.6005C178.15 77.1354 175.863 76.4665 176.463 77.1216L177.018 77.6458C176.696 77.6039 175.84 76.7537 175.377 76.6586C174.374 76.4534 172.54 75.6074 173.295 76.3941C173.796 76.9176 174.689 77.4567 174.607 77.5237C174.288 77.7857 171.766 75.3244 171.659 75.2777C171.16 75.0582 170.659 74.8422 170.195 74.6573C169.891 74.5352 169.777 74.4228 170.057 74.8152C170.32 75.182 170.824 75.8401 171.281 76.3786C171.738 76.9176 172.188 77.3017 172.148 77.2868C171.084 76.9057 169.682 74.3641 168.722 74.1745C167.725 73.9771 167.104 74.1906 167.104 74.1906C167.336 74.4993 168.661 76.1147 168.654 76.3487L166.967 74.4964C166.8 74.7441 166.599 74.8398 166.194 75.0618C167.123 76.3295 168.179 77.8097 171.53 78.2422C177.559 79.0206 180.69 76.8171 180.139 76.4294V76.4294ZM162.716 71.6013L162.598 71.5695C162.644 71.612 162.691 71.6545 162.738 71.6964C162.73 71.6653 162.723 71.6336 162.716 71.6013ZM175.21 74.2068C175.462 74.546 173.466 75.3292 173.145 75.1425C172.797 74.9397 175.209 74.205 175.21 74.2068ZM176.507 75.2454C176.358 75.5703 175.43 75.9406 175.2 76.0501L175.004 75.943L176.507 75.2454ZM173.207 72.7117C173.213 72.7015 173.242 72.9067 173.183 72.951C172.336 73.5906 171.622 73.6564 171.509 73.773C171.41 73.8753 171.126 74.0626 171.065 73.8215C171.001 73.5708 172.17 73.2741 172.721 72.8595C172.987 72.659 173.199 72.7207 173.207 72.7117V72.7117ZM171.062 71.9136C170.965 72.3437 168.7 73.1837 168.279 72.9654C167.969 72.805 169.242 72.6417 169.416 72.5705C169.534 72.5226 171.105 71.7197 171.062 71.9136V71.9136ZM185.241 69.0896C181.055 69.722 180.463 66.6409 175.683 67.4701C175.712 67.5999 175.725 67.7333 175.724 67.8703C175.942 67.7279 175.736 68.0337 175.703 68.124C175.28 69.7657 173.623 69.7011 173.628 69.5802C173.126 69.4731 172.712 69.1483 172.473 68.7133C171.057 69.5862 171.112 69.9063 169.983 69.9967C169.32 70.0499 168.076 70.1343 167.069 70.2007C166.705 70.3209 166.347 70.4298 166.001 70.5261C166.141 70.8498 166.183 71.2375 166.112 71.5935C168.575 70.8498 171.193 70.9701 173.632 71.9949C174.408 72.3216 175.082 72.9145 175.736 73.5355C176.129 73.5738 176.562 73.5774 177.046 73.5349C177.512 72.467 178.954 72.1469 179.809 72.9522C182.338 72.1906 183.372 71.4373 183.84 71.0377C183.871 70.1743 184.518 69.4606 185.353 69.3523C185.4 69.1369 185.241 69.0896 185.241 69.0896V69.0896ZM172.066 70.8797C175.115 69.1423 179.327 71.8071 183.717 69.7914C183.699 70.3359 181.476 70.4376 182.205 70.8408L182.857 71.1406C182.561 71.2016 181.542 70.7008 181.104 70.7589C180.189 70.8803 178.274 70.6865 179.183 71.1615C179.787 71.4774 180.741 71.6862 180.689 71.7712C180.482 72.1092 177.529 70.6733 177.396 70.6626C175.323 70.4867 174.797 70.1971 177.399 71.7658C177.968 72.1092 178.484 72.315 178.443 72.3144C177.38 72.303 175.389 70.4472 174.462 70.5752C173.518 70.7062 173.037 71.0873 173.037 71.0873C173.339 71.2943 175.002 72.3312 175.068 72.5459L172.066 70.8797ZM180.204 68.6116C180.529 68.8378 179 70.1528 178.666 70.0852C178.305 70.0116 180.198 68.6074 180.204 68.6116ZM181.669 69.1429C181.637 69.4738 180.929 70.0984 180.76 70.2665L180.554 70.2312L181.669 69.1429ZM177.975 67.8847C177.979 67.8739 178.066 68.0492 178.028 68.1073C177.502 68.8994 176.854 69.2422 176.801 69.3589C176.744 69.4809 176.549 69.7364 176.422 69.539C176.293 69.3385 177.258 68.6697 177.591 68.1677C177.765 67.9056 177.972 67.8955 177.975 67.8847ZM173.755 64.9363C169.752 65.7739 167.923 63.4813 165.119 63.4699C163.831 63.4646 162.071 63.6422 160.308 64.4152C160.54 64.9477 160.488 65.6028 160.178 66.0898C160.394 65.9187 160.681 65.8577 161.017 65.5322C161.119 65.4341 162.393 63.9683 162.431 64.1849C162.507 64.6157 160.352 66.6756 159.942 66.3854C159.238 67.0938 158.023 67.0339 157.39 66.2621C155.837 67.518 155.166 66.9663 154.336 67.2709C153.392 67.8817 152.416 68.4136 151.524 68.8348C151.273 68.9532 151.018 69.0651 150.76 69.168L150.899 69.2931C150.899 69.2931 152.861 68.535 154.377 68.4501C155.895 68.3645 156.815 68.264 158.415 69.1794C159.553 69.8303 160.744 70.6763 162.75 70.7367C163.164 69.3212 165.109 69.049 165.881 70.2946C169.621 69.2673 172.006 67.6711 172.437 67.071C172.595 66.7485 172.847 66.4811 173.157 66.307C173.566 65.9774 174.178 65.0285 173.755 64.9363V64.9363ZM166.764 73.9573C166.764 73.9573 165.315 73.6905 163.998 72.9504C163.584 72.8475 163.234 72.5944 162.998 72.2564C162.475 71.825 161.968 71.3219 161.457 70.8372C161.31 70.7595 160.318 70.5782 158.669 69.6209C158.85 70.3137 156.927 70.6009 156.683 70.854C156.568 70.9736 156.234 71.192 156.164 70.9102C156.086 70.6003 157.362 70.3425 158.099 69.7873C158.385 69.5713 158.619 69.6161 158.66 69.6149C157.831 69.1357 156.891 68.7385 156.161 68.6762C156.26 69.0418 153.418 70.1743 152.909 69.9105C152.547 69.7226 154.035 69.5324 154.239 69.4486C154.812 69.2147 155.517 68.7654 156.083 68.6696C154.42 68.5524 152.44 68.9748 150.844 69.5868L150.835 69.5791C150.865 69.9739 150.755 70.3801 150.547 70.6966C155.165 70.014 158.48 74.747 164.68 74.1571C164.436 74.7997 161.758 73.986 162.472 74.7668C162.51 74.8093 163.267 75.3992 163.12 75.3794C162.746 75.328 161.744 74.3414 161.203 74.2253C159.906 73.9483 157.899 73.0084 158.771 73.9172C159.357 74.5287 160.399 75.1581 160.303 75.2358C159.945 75.5284 156.893 72.6267 156.86 72.6118C156.276 72.3557 155.692 72.1026 155.149 71.8866C154.794 71.7454 154.661 71.6132 154.989 72.0715C155.296 72.4999 155.885 73.2687 156.418 73.8981C156.952 74.5275 157.478 74.9762 157.432 74.9588C156.642 74.6759 154.992 72.662 154.416 72.0135C154.014 71.5606 153.795 71.3554 153.205 71.2866C151.722 71.1095 151.538 71.3416 151.538 71.3416L152.332 72.3964L152.971 72.4765C153.317 72.659 153.239 73.0748 153.043 73.3393C153.16 73.496 153.355 73.6635 153.35 73.8634L152.959 73.435C152.773 73.6229 152.407 73.8927 152.009 74.1595C155.161 76.9894 162.03 76.3594 164.097 75.7384C164.386 75.6517 167.419 74.4108 166.764 73.9573V73.9573ZM147.376 69.8656C147.299 69.8644 147.221 69.8614 147.145 69.8579C147.231 69.9302 147.319 70.0026 147.406 70.0732C147.392 70.0056 147.382 69.9356 147.376 69.8656V69.8656ZM149.395 71.4565C150.138 71.8585 150.965 72.169 151.961 72.3413L150.511 70.7481C150.25 71.1154 149.854 71.3775 149.395 71.4565ZM161.005 71.3613C161.031 71.3961 160.884 71.7765 160.64 71.8908C160.284 72.0571 158.909 72.6387 158.593 72.455C158.205 72.2288 159.933 71.7963 160.12 71.7317C160.363 71.6479 160.933 71.265 161.005 71.3613V71.3613ZM162.522 72.5741C162.347 72.954 161.263 73.3865 160.995 73.514L160.766 73.3889C161.134 73.1012 162.151 72.6488 162.522 72.5741ZM158.157 67.9625C161.714 65.7159 166.828 68.5291 171.987 65.8541C172.008 66.4943 169.341 66.7515 170.26 67.1685L171.061 67.4647C170.711 67.5545 169.459 67.0603 168.939 67.1566C167.752 67.3762 165.561 67.2858 166.675 67.7614C167.419 68.0785 168.573 68.2473 168.517 68.349C168.306 68.7355 164.576 67.3217 164.504 67.3205C163.893 67.3085 163.282 67.2996 162.723 67.3074C162.357 67.3127 162.19 67.2463 162.65 67.5239C163.079 67.783 163.885 68.2347 164.59 68.5853C165.294 68.9371 165.925 69.1351 165.876 69.1369C164.368 69.2081 162.137 67.1147 160.782 67.4856C159.407 67.8643 159.329 68.1294 159.329 68.1294C159.7 68.3412 161.77 69.4127 161.864 69.652L158.157 67.9625ZM167.704 64.7604C167.74 64.7808 167.751 65.1607 167.578 65.3462C166.354 66.651 165.406 66.8568 166.103 66.1724L167.704 64.7604ZM169.493 65.2618C169.479 65.6555 168.681 66.4135 168.492 66.6175L168.243 66.5918C168.446 66.2394 169.228 65.4359 169.493 65.2618ZM164.989 64.0916C164.993 64.079 165.111 64.2728 165.069 64.3422C164.421 65.4162 163.778 65.6657 163.697 65.8679C163.639 66.0127 163.425 66.3196 163.258 66.1024C163.077 65.8673 164.121 65.1619 164.552 64.444C164.741 64.131 164.987 64.1041 164.989 64.0916ZM158.745 61.4005C154.791 63.0128 152.484 60.9266 149.6 61.4256C148.271 61.6559 146.49 62.1663 144.815 63.3126C145.568 64.8562 143.81 66.5296 142.339 65.5903C141.667 66.3662 141.519 66.6606 140.491 66.9998C140.12 67.1213 139.597 67.2894 139.023 67.4719C138.305 68.1773 137.551 68.8216 136.84 69.3619C136.766 69.4187 136.691 69.4744 136.615 69.53C136.651 69.6185 136.681 69.7101 136.702 69.804C142.763 66.5026 143.53 69.5425 147.373 69.6107C147.482 67.8039 149.889 67.354 150.66 68.9347C153.258 67.8985 156.717 65.3851 157.018 64.8107C157.125 64.2292 157.514 63.7446 158.037 63.5136C158.288 63.2982 159.386 61.428 158.745 61.4005V61.4005ZM154.425 62.5217C154.483 62.9357 153.802 63.8846 153.646 64.1364L153.385 64.1544C153.54 63.7128 154.154 62.7837 154.425 62.5217ZM152.852 72.7015C152.852 72.7015 150.801 72.5866 149.24 71.6916C149.115 71.6198 148.991 71.5444 148.867 71.4654C148.303 71.3877 147.835 71.0365 147.579 70.5572C147.231 70.2988 146.883 70.0391 146.533 69.7992C145.501 69.652 144.655 69.2865 143.673 68.9209C141.321 68.0444 138.891 68.8665 136.742 70.0667C136.814 71.0227 136.106 71.8807 135.163 71.9632L136.403 72.8325L136.402 72.8331C137.129 73.2723 137.954 73.5313 138.791 73.6612L136.285 71.5217C140.537 70.1731 144.804 74.5107 150.811 73.1616C150.649 73.8287 147.89 73.3584 148.695 74.0435C148.739 74.0805 149.564 74.5711 149.415 74.5699C149.037 74.5664 147.919 73.7108 147.368 73.6659C146.067 73.56 143.934 72.869 144.916 73.6647C145.574 74.1978 146.687 74.692 146.602 74.7811C146.284 75.1162 142.892 72.6201 142.857 72.6094C142.246 72.4281 141.634 72.251 141.068 72.1044C140.699 72.0087 140.55 71.895 140.933 72.3084C141.29 72.6949 141.972 73.3841 142.58 73.9412C143.188 74.4988 143.766 74.8775 143.718 74.8673C142.902 74.692 141.006 72.8912 140.357 72.3228C139.9 71.9237 139.658 71.7496 139.064 71.7532C137.57 71.764 137.417 72.0171 137.417 72.0171C137.827 72.4394 138.85 73.7007 139.322 73.721C140.006 73.721 139.788 74.415 139.293 74.8069L138.848 75.1317C142.364 77.0385 148.791 75.529 150.426 74.8039C150.703 74.6812 153.553 73.073 152.852 72.7015V72.7015ZM148.469 71.8621C148.344 72.2612 147.322 72.8259 147.072 72.9863L146.829 72.8912C147.158 72.5591 148.112 71.9818 148.469 71.8621ZM143.272 67.4426C146.534 64.4009 152.25 66.4877 157.097 62.6922C157.236 63.3652 154.543 64.1239 155.564 64.3961C155.62 64.411 156.575 64.4996 156.44 64.563C156.097 64.7234 154.72 64.4272 154.203 64.6252C153.003 65.0835 150.755 65.3773 151.988 65.6758C152.811 65.875 154.029 65.8445 153.99 65.9612C153.847 66.4004 149.712 65.6004 149.677 65.6058C149.046 65.7045 148.417 65.8069 147.844 65.9169C147.468 65.9893 147.286 65.9498 147.809 66.1592C148.298 66.3555 149.209 66.6851 149.997 66.928C150.786 67.1704 151.47 67.2649 151.422 67.2762C150.607 67.4647 148.128 66.6546 147.294 66.4195C146.711 66.2544 146.418 66.2011 145.883 66.4596C144.538 67.1105 144.508 67.4043 144.508 67.4043C144.93 67.5616 147.254 68.3167 147.394 68.5518L143.272 67.4426ZM152.495 62.3176C152.535 62.3326 152.617 62.7323 152.472 62.9596C152.261 63.2923 151.418 64.5229 151.053 64.5385C150.603 64.5576 151.826 63.2617 151.949 63.1062C152.109 62.904 152.381 62.2752 152.495 62.3176ZM149.581 62.1064C149.582 62.0927 149.739 62.2758 149.71 62.3571C149.241 63.6249 148.63 63.9767 148.58 64.2196C148.547 64.3823 148.384 64.7461 148.173 64.5469C147.94 64.3279 148.875 63.4251 149.197 62.5575C149.333 62.1938 149.581 62.1196 149.581 62.1064V62.1064ZM146.969 62.6718C147.143 63.157 145.444 65.4096 144.893 65.4586C144.485 65.4951 145.636 64.5337 145.763 64.3536C145.848 64.2334 146.89 62.4535 146.969 62.6718V62.6718ZM146.812 70.8492C146.842 70.8803 146.744 71.2764 146.516 71.4194C144.871 72.455 143.922 72.3689 144.794 71.8669L146.812 70.8492ZM144.271 69.4091C144.278 69.3972 144.341 69.6299 144.279 69.6897C143.305 70.638 142.608 70.6889 142.46 70.8881C142.36 71.0215 142.057 71.28 141.952 71.0095C141.835 70.7122 143.07 70.2958 143.73 69.6526C144.009 69.381 144.265 69.4211 144.271 69.4091V69.4091ZM141.669 68.7989C141.619 69.3116 139.117 70.6183 138.598 70.4262C138.216 70.285 139.667 69.9099 139.859 69.8016C139.987 69.7292 141.691 68.5679 141.669 68.7989V68.7989ZM155.801 66.5559C156.242 66.4715 156.576 66.2735 156.921 65.9905C156.88 65.9026 156.845 65.8104 156.817 65.7159C156.491 66.0103 156.149 66.2903 155.801 66.5559ZM186.255 69.2033C186.547 68.1533 186.902 66.9143 187.305 65.5843C186.218 65.1266 184.383 64.3925 181.916 63.5465L180.791 67.7064C184.062 69.256 184.633 68.3837 185.384 68.6014C185.65 68.6792 185.797 68.8731 185.845 69.1004C185.988 69.1202 186.125 69.1555 186.255 69.2033V69.2033ZM172.014 68.0947C171.253 68.6481 170.389 69.1213 169.509 69.5228C170.945 69.4121 170.916 69.0968 172.066 68.3687C172.042 68.2796 172.024 68.188 172.014 68.0947ZM141.472 64.9782C141.115 65.5101 140.705 66.0342 140.262 66.5391C140.933 66.3166 141.339 65.9893 141.788 65.4521C141.662 65.3103 141.555 65.1505 141.472 64.9782ZM140.042 46.5887L139.74 37.2991C142.114 37.1106 144.576 36.9916 147.122 36.9587V46.2076C144.679 46.2638 142.317 46.3954 140.042 46.5887ZM155.402 46.5887L155.704 37.2991C153.33 37.1106 150.868 36.9916 148.322 36.9587V46.2076C150.765 46.2638 153.128 46.3954 155.402 46.5887ZM155.36 47.8672C150.252 47.4305 145.192 47.4305 140.084 47.8672C140.178 50.7522 140.325 53.74 140.325 56.5801C145.341 56.1331 150.103 56.1331 155.12 56.5801C155.12 53.74 155.266 50.7516 155.36 47.8672V47.8672ZM114.284 79.6626C115.56 79.0385 116.482 78.8489 117.755 78.5593C117.144 78.469 116.54 78.2889 115.944 77.9951C115.66 78.3224 115.319 78.5456 114.904 78.6413C114.875 78.9709 114.532 79.2408 114.288 79.4478L114.372 79.4962L114.284 79.6626ZM123.453 77.6475L129.688 77.0804C128.672 76.8925 127.727 76.5096 126.863 75.824C125.922 76.6663 124.723 77.1916 123.453 77.6475V77.6475ZM135.784 76.7663C146.405 76.3684 157.191 76.5156 167.783 77.4669C166.999 76.9362 166.441 76.2511 165.892 75.5087C163.054 76.9643 159.757 76.9829 156.642 76.5808C154.848 76.3487 153.146 75.821 151.763 74.6232C148.677 76.6137 141.953 77.3837 138.623 75.5888C137.586 76.2541 136.944 76.4899 135.784 76.7663V76.7663ZM177.04 78.6742C177.615 78.7879 178.185 78.9123 178.743 79.0517C178.559 78.8381 178.396 78.6054 178.256 78.3517L177.04 78.6742ZM164.171 62.9901L164.604 59.1001C159.212 58.1757 154.073 57.6438 148.322 57.4332V61.1845C152.629 60.0477 154.338 62.6545 158.553 60.9302C159.163 60.6801 159.544 61.4304 159.438 61.9491C159.388 62.198 159.16 62.6509 158.885 63.1217C159.454 63.1684 159.947 63.455 160.277 63.8762C161.51 63.3605 162.832 63.0769 164.171 62.9901V62.9901ZM147.155 61.5506V57.4332C141.405 57.6438 136.267 58.1775 130.873 59.1001L131.328 63.1798C136.125 59.9424 137.99 63.0631 141.957 60.3804C142.416 60.0693 143.354 60.3505 142.79 62.1316C143.501 61.9569 144.278 62.2189 144.744 62.749C145.498 62.2584 146.309 61.8606 147.155 61.5506V61.5506ZM179.604 67.1859L180.698 63.1379C176.914 61.8929 171.749 60.4647 165.869 59.3298L165.463 62.9758C168.524 63.2013 169.833 65.2343 173.651 64.4386C174.46 64.2704 174.525 65.3336 174.182 65.8451C174.883 65.9128 175.465 66.3459 175.764 66.943C177.041 66.7432 178.38 66.727 179.604 67.1859V67.1859ZM173.631 50.9759C169.965 50.0246 165.778 49.1506 161.138 48.5104L160.221 57.1395C164.214 57.663 168.158 58.409 172.071 59.3555L173.631 50.9759ZM168.314 39.0401C166.378 38.6566 164.347 38.3096 162.23 38.0134L161.27 47.2414C163.22 47.5101 165.091 47.8188 166.877 48.158L168.314 39.0401ZM173.873 49.7243L175.608 40.75C173.718 40.2361 171.703 39.7449 169.568 39.2962L168.134 48.4039C170.163 48.8137 172.079 49.2594 173.873 49.7243V49.7243ZM190.75 55.8173C192.515 51.5461 194.263 48.0503 194.263 48.0503C194.263 48.0503 192.316 46.8884 188.708 45.3161L185.944 53.667C188.271 54.6063 189.899 55.3883 190.75 55.8173V55.8173ZM187.524 44.8112C185.859 44.1154 183.903 43.3609 181.679 42.6041L179.361 51.3044C181.397 51.9523 183.199 52.5967 184.749 53.1956L187.524 44.8112ZM187.682 64.3542C188.443 61.9174 189.313 59.395 190.267 57.0061C188.893 56.3055 184.993 54.4364 179.034 52.5357L176.827 60.6113C182.041 62.1035 185.822 63.577 187.682 64.3542V64.3542ZM108.705 67.3762C108.539 66.8054 108.361 66.2047 108.173 65.5843C109.26 65.126 111.095 64.3925 113.562 63.5465L114.443 66.8048C113.051 67.3061 111.877 67.9541 110.903 69.037C110.856 69.037 110.809 69.0388 110.762 69.043C110.235 68.2664 109.482 67.8428 108.705 67.3762ZM115.644 66.3333L114.78 63.1379C118.565 61.8929 123.729 60.4647 129.609 59.3298L129.863 61.6033C129.07 61.0702 128.628 62.5653 126.608 63.102C123.758 63.8588 122.72 63.0511 119.927 65.75L119.166 65.8589C119.132 63.805 118.072 64.2094 117.863 64.4882C117.318 65.2145 116.467 65.9546 115.644 66.3333V66.3333ZM121.846 50.9759C125.512 50.0246 129.699 49.1506 134.34 48.5104L135.256 57.1395C131.264 57.663 127.32 58.409 123.407 59.3555L121.846 50.9759ZM127.164 39.0401C129.1 38.6566 131.131 38.3096 133.248 38.0134L134.207 47.2414C132.258 47.5101 130.388 47.8188 128.6 48.158L127.164 39.0401ZM121.604 49.7243L119.871 40.75C121.759 40.2361 123.774 39.7449 125.909 39.2962L127.344 48.4039C125.314 48.8137 123.399 49.2594 121.604 49.7243V49.7243ZM104.728 55.8173C102.963 51.5461 101.215 48.0503 101.215 48.0503C101.215 48.0503 103.162 46.8884 106.77 45.3161L109.533 53.667C107.207 54.6063 105.578 55.3883 104.728 55.8173ZM107.954 44.8112C109.62 44.1154 111.574 43.3609 113.799 42.6041L116.116 51.3044C114.081 51.9523 112.278 52.5967 110.729 53.1956L107.954 44.8112ZM107.796 64.3542C107.035 61.9174 106.165 59.395 105.211 57.0061C106.586 56.3055 110.485 54.4364 116.444 52.5357L118.651 60.6113C113.437 62.1035 109.655 63.577 107.796 64.3542V64.3542ZM231.389 140.238C229.875 139.04 228.693 139.327 227.11 140.316L223.106 142.82C220.584 144.396 218.433 143.458 216.222 141.968L210.411 138.055C209.444 137.404 209.455 136.214 209.272 135.167L207.313 133.904L207.295 133.803C208.526 133.851 209.372 134.118 208.82 133.438L207.049 132.448L207.031 132.35L208.482 132.448C208.44 132.335 208.397 132.218 208.352 132.101L206.833 131.253L206.815 131.161L208.007 131.241L207.832 130.742L206.617 130.063L206.591 129.92L208.46 130.046C208.652 129.953 208.856 129.898 209.022 129.904C210.14 129.947 211.333 130.325 212.172 131.064L216.399 134.794C217.105 135.384 217.956 137.433 218.924 136.783L222.905 134.216C223.655 133.731 223.874 133.297 223.622 132.755C226.396 134.845 229.367 137.379 231.389 140.238V140.238ZM216.361 120.747C215.93 117.36 214.481 115.588 212.338 114.146L208.756 111.734C207.79 111.082 207.8 109.893 207.617 108.846L205.657 107.583L205.64 107.482C206.873 107.53 207.716 107.796 207.165 107.116L205.394 106.126L205.377 106.028L206.827 106.126C206.785 106.013 206.742 105.896 206.698 105.78L205.178 104.931L205.161 104.838L206.351 104.918L206.178 104.42L204.962 103.74L204.936 103.598L206.805 103.724C207.309 103.479 207.914 103.045 208.374 103.318L216.316 108.022C218.173 109.122 219.932 111.628 220.354 113.746C220.734 115.652 220.089 117.429 221.456 119.038C222.255 119.979 223.446 120.819 224.709 121.401C223.57 123.588 224.811 126.245 227.511 126.036C230.712 125.788 233.265 122.292 233.563 119.282L234.401 110.827C234.66 108.218 235.752 105.927 237.048 103.686C241.603 102.978 246.159 102.768 250.768 102.84C250.753 104.438 250.588 106.025 250.307 107.551C250.106 107.987 243.808 114.966 240.324 124.743C237.673 132.179 238.796 144.416 240.011 152.201C240.795 157.215 241.854 162.867 241.86 167.92C241.864 172.143 241.208 173.726 238.637 175.888C240.084 174.552 240.945 172.748 240.644 170.322L237.86 147.818C237.095 141.634 236.804 139.693 231.354 136.078L219.987 128.534C217.513 126.933 216.801 124.196 216.361 120.747V120.747ZM237.747 176.605L236.87 177.159C237.174 176.987 237.467 176.802 237.747 176.605ZM231.049 97.324C229.924 97.1834 227.708 97.6016 227.59 95.9389C227.541 95.2318 227.895 95.3987 228.358 95.3897L228.689 94.4684C229.652 95.8097 228.656 95.4681 233.539 95.5411C234.662 95.5578 234.573 94.2506 234.311 93.416C233.734 91.5792 230.809 92.0848 229.175 92.1332C228.651 92.1494 228.568 92.7399 228.433 93.1264C228.045 92.9661 228.04 92.6155 227.827 92.2738C227.701 92.0722 227.041 92.5808 226.918 91.5852C226.857 91.0845 226.712 90.0416 227.368 89.9328L231.154 89.3022C232.886 89.0138 234.16 87.4786 235.62 86.5823C236.548 86.0134 237.692 85.673 238.476 85.1692C239.278 84.6541 239.686 83.4318 239.59 82.7449C241.964 82.8167 241.903 85.0848 242.812 86.3975C245.405 90.1404 248.753 91.4572 250.218 97.6722C245.653 97.5812 241.121 97.6853 236.614 98.4667C234.789 96.9722 233.392 96.9602 231.059 97.1283L231.049 97.324ZM234.504 89.3345C235.859 89.6151 236.852 89.5451 237.639 87.9955C235.247 87.88 235.3 89.0371 234.504 89.3345ZM36.6723 120.688C38.0705 117.816 40.4062 115.265 42.1544 112.556C43.135 111.034 43.8266 110.014 45.415 108.549C45.418 108.292 45.4276 108.036 45.4443 107.778C53.0378 107.905 58.2124 108.332 65.3709 110.855C65.3535 113.6 65.8513 116.375 65.1621 119.075L61.7853 118.398L62.9436 119.132C68.1625 122.438 69.2077 125.893 70.9828 131.359C71.1049 131.735 70.7967 133.571 71.5901 133.374C71.9012 133.297 72.0232 132.936 72.086 132.64L73.288 135.211L73.3783 134.811C74.3912 136.813 75.65 138.892 76.8209 140.296C77.6705 139.49 78.6145 138.407 79.7202 137.462C81.4432 135.992 82.6967 135.418 83.7305 133.252L85.9938 128.518C87.4704 125.551 87.8802 124.216 91.4969 123.464L91.5058 123.622C90.9644 124.045 90.1675 124.645 89.8833 125.5C90.262 125.098 91.0242 124.765 91.5698 124.69L91.5866 124.973C91.0212 125.454 90.2141 126.003 89.9694 126.824C90.326 126.483 91.1271 126.208 91.6548 126.113L91.6644 126.263C91.1331 126.831 90.3781 127.353 90.0747 128.327C90.5312 127.844 91.2587 127.417 91.7338 127.414L91.738 127.49C91.2713 127.981 89.9634 129.858 89.8773 130.611L89.4393 134.355C89.264 135.507 88.1482 137.286 87.547 138.318C86.5209 143.28 82.8301 149.53 78.4398 152.238C77.1326 153.044 76.2328 153.171 74.7903 152.828C72.7214 152.332 70.6801 151.194 68.8176 150.025C64.6428 147.402 61.3845 143.682 57.5866 140.592L57.4567 141.491L63.2847 155.144C64.3975 157.972 65.2572 161.28 64.7445 164.304C64.3011 166.915 62.751 170.08 61.7973 172.566C61.1703 174.199 59.4634 181.023 58.9028 183.115C57.6829 187.668 53.2903 191.145 50.0793 194.349C47.8136 196.611 46.4387 200.293 46.8276 203.487C47.0813 205.59 48.7995 205.221 50.4765 205.518C53.2221 206.007 56.8561 207.579 57.8151 209.947C58.0538 210.538 57.9294 212.159 57.796 213.185L57.5537 213.185C57.2533 212.494 56.8591 211.016 56.0173 210.866C56.3583 211.208 56.4696 212.61 56.4654 213.185H56.1698C55.7588 212.338 54.7327 211.156 54.3468 211.079C54.5503 211.425 54.6765 212.649 54.6933 213.185H54.3684C54.0573 212.583 53.3381 211.418 52.8003 211.38C53.1407 211.828 53.2089 212.838 53.1748 213.185H52.8392C52.3109 212.346 51.0371 211.826 50.2199 212.384C49.5157 212.865 47.5042 213.489 46.6152 213.407L39.8617 213.415C37.0977 213.417 35.8257 210.269 36.3073 208.751C36.5999 207.828 36.853 207.111 36.9894 206.118L37.194 206.162C38.3553 202.623 37.3124 200.532 38.4857 197.8C38.8088 197.048 39.2377 196.336 39.4579 195.543C40.0652 193.36 42.1627 188.67 42.4104 186.777C42.8245 183.615 43.1254 180.682 42.7742 177.493C37.602 178.797 38.1016 175.04 36.7309 171.218L36.4892 170.545L36.4665 162.201C36.4575 158.814 37.2323 153.036 34.7751 150.554C34.1218 144.888 33.9644 137.928 34.3916 131.657C34.6339 128.08 35.0689 123.978 36.6723 120.688V120.688ZM47.2105 101.257C50.0057 95.2366 55.6493 89.8526 61.2325 87.4678C59.68 84.7815 63.9123 83.579 64.5764 85.588C64.7618 86.1492 64.5758 86.8217 64.0882 87.2805C64.9455 87.4331 67.435 88.2809 68.1631 88.6997C69.155 88.9127 70.3941 87.2776 72.9655 90.2995C73.1498 90.5161 73.3389 90.738 73.5686 90.9468C76.4553 91.7611 78.8808 93.2586 81.2572 95.364C80.7313 97.0721 80.1049 98.1299 78.1628 97.7494C77.9576 97.7093 77.275 98.2394 76.578 98.5229C76.4733 98.4888 76.3698 98.4518 76.2657 98.4135C76.8789 97.0865 76.4697 97.3186 75.1654 96.9818L74.6216 97.7721C74.539 97.744 74.4559 97.717 74.3733 97.6907L74.28 96.7604C74.143 96.7281 74.0042 96.6964 73.8648 96.6647L73.2689 97.3904C73.1815 97.37 73.0948 97.3515 73.0068 97.333L72.9069 96.4702C72.7352 96.4385 72.5623 96.4092 72.3906 96.3829L71.8671 97.1427C71.7947 97.1337 71.7217 97.1253 71.6499 97.1182L71.5661 96.2722C69.7581 96.0784 67.965 96.2124 66.5746 97.1403C66.7822 97.333 66.927 97.6363 67.1974 97.7182L72.6987 99.415C73.3317 99.6106 74.5043 99.5741 75.2163 99.4186C75.3216 99.4605 75.4275 99.5017 75.534 99.5418C74.8447 100.327 74.7299 99.9325 76.0096 100.613C74.3571 102.154 70.6268 100.841 67.2662 105.011C60.2376 102.284 54.6604 101.795 47.2105 101.257V101.257ZM71.4961 90.3414C71.4644 90.5915 71.1431 90.7243 70.9206 90.8679C70.0878 90.9714 69.4781 90.3671 68.7093 90.1685C68.7739 89.7521 69.4141 89.8813 69.7025 89.6318C70.3109 89.8125 71.112 89.8753 71.4961 90.3414V90.3414ZM47.0986 107.044C47.3631 106.75 47.6293 106.455 47.8961 106.161C47.9344 105.9 47.9727 105.641 48.0128 105.383C48.2509 105.156 48.4944 104.929 48.7325 104.707L46.197 104.594C46.3585 104.84 46.5266 105.086 46.6954 105.33C46.6571 105.595 46.617 105.856 46.5787 106.117C46.7516 106.429 46.9257 106.739 47.0986 107.044V107.044ZM50.598 107.177C50.8666 106.9 51.1293 106.623 51.3937 106.343C51.4356 106.092 51.4745 105.84 51.5182 105.588C51.7623 105.373 51.9998 105.159 52.2415 104.947L49.7024 104.764C49.8681 105.009 50.032 105.25 50.2007 105.494C50.1606 105.749 50.1223 106.003 50.0805 106.257C50.254 106.563 50.4251 106.87 50.598 107.177V107.177ZM54.0962 107.471C54.3642 107.209 54.6292 106.947 54.8949 106.687C54.9374 106.439 54.9786 106.19 55.0241 105.942C55.2598 105.739 55.5039 105.539 55.7474 105.34L53.2107 105.041C53.3728 105.288 53.538 105.536 53.7067 105.785C53.6636 106.033 53.6223 106.284 53.5816 106.533C53.7492 106.843 53.9257 107.156 54.0962 107.471V107.471ZM57.5824 107.973C57.8504 107.728 58.119 107.483 58.3895 107.236C58.4331 106.988 58.475 106.74 58.5217 106.492C58.7592 106.304 59.0009 106.119 59.242 105.932L56.7131 105.484C56.8782 105.741 57.0403 105.998 57.2055 106.256C57.1606 106.501 57.1193 106.751 57.0756 107.001C57.2467 107.324 57.4149 107.651 57.5824 107.973V107.973ZM61.0644 108.725C61.3324 108.493 61.5993 108.262 61.8709 108.03C61.9134 107.782 61.9606 107.531 62.0061 107.285C62.2466 107.114 62.4907 106.941 62.7312 106.772L60.2113 106.14C60.371 106.41 60.5337 106.683 60.6977 106.956C60.6516 107.204 60.6097 107.452 60.5636 107.699C60.7282 108.04 60.8963 108.383 61.0644 108.725V108.725ZM64.5261 109.738C65.3787 109.056 65.2811 109.364 65.4684 108.346C65.7143 108.194 65.9572 108.039 66.2013 107.887L63.6891 107.05C63.85 107.336 64.0116 107.626 64.1725 107.917C64.1264 108.166 64.0792 108.414 64.0361 108.663C64.2012 109.02 64.3604 109.38 64.5261 109.738V109.738ZM67.9806 111.001C68.8439 110.365 68.7261 110.696 68.9313 109.691C69.1688 109.556 69.4129 109.423 69.654 109.289L67.1633 108.246C67.3195 108.55 67.4762 108.852 67.6372 109.158C67.5881 109.402 67.5415 109.647 67.4978 109.894C67.6563 110.263 67.8179 110.633 67.9806 111.001V111.001ZM49.2662 104.436C49.2662 104.436 49.2692 104.433 49.2722 104.431C49.2722 104.433 49.2722 104.436 49.2746 104.439C49.5396 104.158 49.8077 103.875 50.0763 103.595C50.114 103.341 50.157 103.089 50.1971 102.835C50.4388 102.619 50.68 102.404 50.9211 102.192C51.2429 102.22 51.5624 102.249 51.8843 102.277C52.0458 102.523 52.2146 102.771 52.3857 103.017C52.3408 103.269 52.3007 103.517 52.2606 103.769C52.4287 104.08 52.6016 104.39 52.771 104.703C53.039 104.436 53.3118 104.168 53.5787 103.902C53.6199 103.651 53.6636 103.402 53.7067 103.153C53.9436 102.947 54.1859 102.741 54.4318 102.54C54.7537 102.581 55.0798 102.621 55.401 102.661C55.5662 102.913 55.7313 103.167 55.9 103.421C55.8527 103.667 55.8121 103.916 55.7714 104.165C55.9395 104.483 56.107 104.802 56.2799 105.122C56.5485 104.868 56.8166 104.615 57.0894 104.36C57.1301 104.112 57.1714 103.863 57.2138 103.613C57.4579 103.421 57.7014 103.227 57.9455 103.034C58.2698 103.093 58.5899 103.149 58.9118 103.205C59.0763 103.471 59.2384 103.735 59.4048 104C59.3611 104.249 59.3174 104.497 59.2731 104.746C59.4395 105.077 59.61 105.411 59.7799 105.744C60.0479 105.504 60.3166 105.261 60.587 105.025C60.6307 104.776 60.6743 104.526 60.7198 104.28C60.9645 104.098 61.2098 103.915 61.4533 103.738C61.7722 103.819 62.0953 103.897 62.4177 103.978C62.5751 104.255 62.7384 104.536 62.9023 104.819C62.8533 105.068 62.8096 105.316 62.7665 105.566C62.9299 105.917 63.1004 106.267 63.2637 106.617C63.5353 106.393 63.8064 106.17 64.0744 105.946C64.1211 105.699 64.1641 105.448 64.2126 105.199C64.4531 105.035 64.6978 104.873 64.9413 104.715C65.262 104.817 65.5904 104.926 65.9141 105.035C66.0703 105.335 66.2348 105.635 66.3922 105.935C66.3437 106.182 66.2976 106.43 66.251 106.678C66.4149 107.044 66.5758 107.409 66.7433 107.775C67.6067 107.117 67.49 107.451 67.6916 106.436C67.9357 106.296 68.1786 106.156 68.4221 106.016C68.741 106.153 69.0551 106.295 69.3728 106.443C69.5272 106.755 69.6863 107.066 69.8431 107.376C69.7994 107.616 69.7515 107.859 69.7031 108.097C69.8658 108.473 70.0214 108.848 70.1847 109.228C70.366 109.11 70.5467 108.994 70.7309 108.883L70.1057 111.967C61.1422 108.163 54.707 107.168 45.074 107.101L45.5425 103.887C45.6131 104.014 45.6855 104.141 45.7531 104.267C46.0217 103.973 46.2861 103.677 46.5518 103.383C46.5895 103.121 46.6278 102.859 46.6696 102.596C46.9096 102.374 47.1531 102.15 47.3948 101.927C47.7166 101.951 48.0385 101.974 48.3634 101.994C48.5285 102.242 48.6972 102.49 48.8677 102.739C48.8259 102.993 48.7852 103.249 48.7457 103.507C48.918 103.817 49.0909 104.127 49.2662 104.436V104.436ZM51.307 216.224C51.307 215.33 53.0492 213.611 55.066 213.863C57.5602 214.175 60.0467 214.877 62.4997 215.431C65.061 216.008 67.5115 216.406 70.1326 216.543C69.8808 217.727 70.0184 227.141 70.0184 228.989C70.0184 229.895 69.9352 230.36 70.4665 231.169C72.6742 234.522 79.0387 232.15 82.437 232.796C85.3459 233.35 84.9869 234.564 83.1825 234.813C82.0888 234.964 80.5297 234.638 79.3959 234.546L70.4629 233.826C63.0477 233.228 61.1075 230.215 56.0185 229.542C54.631 229.358 52.0141 229.788 51.3135 231.238L51.307 216.224ZM245.379 216.224C245.379 215.33 243.636 213.611 241.619 213.863C239.125 214.175 236.638 214.877 234.185 215.431C231.625 216.008 229.173 216.406 226.551 216.543C226.804 217.73 226.667 226.575 226.667 228.368C226.667 229.484 226.835 230.23 226.218 231.169C224.013 234.521 217.646 232.151 214.251 232.796C211.635 233.294 211.403 234.524 213.503 234.813C214.597 234.964 216.156 234.638 217.289 234.547L226.222 233.826C233.637 233.229 235.578 230.216 240.666 229.542C242.054 229.358 244.671 229.788 245.371 231.239L245.379 216.224Z" fill="#EBDC19"/>
<path fill-rule="evenodd" clip-rule="evenodd" d="M204.772 105.545L204.77 158.459H200.528L200.533 166.435H204.772V173.736H205.917V165.291H201.677L201.674 159.603H205.914L205.917 108.354L205.197 107.891L205.031 106.949L205.884 106.982L204.938 106.453L204.772 105.545ZM204.772 105.286V105.477L205.162 105.503L204.772 105.286ZM204.772 104.216V104.302L204.947 104.314L204.772 104.216ZM91.9114 102.942V98.4208H108.563V102.654H128.37V93.8421L148.341 87.319L168.314 93.8421V102.654H188.119V98.4208H204.772V103.077L205.917 103.154V97.2757H186.974V101.508L169.459 101.509V93.0123L148.341 86.1141L127.225 93.0123V101.509H109.707V97.2757H90.7662V99.7568L91.3669 99.5672L91.5249 100.572L91.1647 100.916L91.5703 100.818L91.7385 101.893L91.2969 102.344L91.7833 102.205L91.9114 102.942ZM91.9114 103.591V103.173L91.5488 103.629L91.9114 103.591ZM91.9114 122.859V104.653C91.5979 105.109 91.0546 106.093 90.7662 106.818V123.118L91.9114 122.859ZM91.9114 124.13V123.952L91.6344 124.168L91.9114 124.13ZM91.9114 125.551V125.365C91.8222 125.441 91.7241 125.52 91.6224 125.603L91.9114 125.551ZM91.9114 126.905V126.741C91.8563 126.797 91.8001 126.851 91.7444 126.906L91.9114 126.905ZM90.7668 165.291V173.667L91.9114 173.653V166.435H96.1508V158.459H91.9114V128.07C91.5859 128.475 91.1025 129.175 90.7662 129.773V159.603H95.0057V165.291H90.7668Z" fill="#267C38"/>
<path fill-rule="evenodd" clip-rule="evenodd" d="M163.114 129.757V119.523H161.266V113.916H179.435V119.523H178.543V129.676L192.427 146.2L192.425 163.551H192.83V165.356H177.15V166.002H159.374V165.356H154.227V163.551H154.438L154.421 146.323L163.114 129.757ZM143.987 162.818H144.488V165.22H107.079V164.077C105.016 163.523 104.394 160.889 105.997 159.468C104.784 158.399 104.79 156.516 105.997 155.447C104.784 154.378 104.79 152.498 105.997 151.425C104.198 149.84 105.219 146.782 107.771 146.73H109.308V140.639H106.4V137.784H102.218V133.511H99.9273V130.323H105.406V134.596H106.4V132.1H109.308V128.365H118.417V132.1H118.798C118.938 130.888 120.42 130.354 121.3 131.214C121.897 130.631 122.851 130.655 123.418 131.266C123.996 130.672 124.94 130.665 125.526 131.253C126.397 130.416 127.834 130.93 128.012 132.1H130.942V128.365H140.051V132.102C141.8 132.103 143.036 132.103 143.512 135.131H145.872V139.406H148.164V142.593H142.684V139.805C141.933 140.791 141.168 140.639 140.051 140.639V146.731H143.987V162.818ZM118.798 140.638H118.417V146.73H125.071V141.845C124.488 142.098 123.824 141.957 123.395 141.494C122.823 142.084 121.889 142.095 121.3 141.522C120.422 142.382 118.938 141.851 118.798 140.638V140.638ZM128.028 146.73H130.942V140.638H128.028V146.73ZM92.1657 166.69V173.651C110.705 173.44 129.521 173.519 148.065 173.569L204.518 173.736V166.689L200.278 166.69L200.274 158.205H204.515L204.518 104.074L204.507 104.068L204.322 103.046L204.518 103.06V98.6748H188.374V102.908H168.06V94.0267L148.341 87.5867L128.625 94.0267V102.908H108.309V98.6748H92.1663L92.1843 126.453L92.1663 126.903L92.213 126.903L92.259 127.681L92.1663 127.779V158.205H96.4058V166.69H92.1657Z" fill="#2D9A3F"/>
<path fill-rule="evenodd" clip-rule="evenodd" d="M91.9116 179.387V184.292L90.767 184.224V179.303L91.9116 179.387ZM91.9116 185.792V190.715L90.767 190.636V185.717L91.9116 185.792ZM205.917 183.22V188.145L204.773 188.029V183.103L205.917 183.22ZM205.917 189.639V194.554L204.772 194.433V189.534L205.917 189.639Z" fill="#3273B9"/>
<path fill-rule="evenodd" clip-rule="evenodd" d="M204.518 183.064V187.991C197.776 186.826 193.647 182.856 186.195 184.722C179.65 186.36 176.234 189.425 169.433 187.574C162.767 185.758 159.545 182.967 152.5 184.859C146.082 186.582 142.862 189.369 136.268 187.574C129.524 185.737 126.364 182.972 119.332 184.859C112.98 186.563 109.704 189.372 103.101 187.574C99.101 186.484 96.395 184.905 92.1687 184.317V179.418C97.2398 180.095 101.829 183.247 107.03 183.247C112.826 183.247 117.92 179.297 123.646 179.297C129.372 179.297 134.466 183.247 140.262 183.247C146.058 183.247 151.151 179.297 156.878 179.297C162.605 179.297 167.699 183.247 173.495 183.247C179.291 183.247 184.386 179.297 190.111 179.297C195.002 179.297 199.427 182.197 204.518 183.064ZM204.518 189.5V194.395C199.618 193.606 195.131 190.632 190.084 190.632C184.292 190.632 179.201 194.58 173.478 194.58C167.754 194.58 162.664 190.632 156.871 190.632C151.078 190.632 145.987 194.58 140.264 194.58C134.54 194.58 129.45 190.632 123.656 190.632C117.863 190.632 112.772 194.58 107.049 194.58C101.929 194.58 97.1865 191.369 92.1657 190.745V185.823C99.1352 186.786 103.303 191.26 111.472 189.02C118.294 187.149 121.29 184.406 128.205 186.445C134.57 188.323 137.966 190.849 144.638 189.019C151.459 187.148 154.455 184.405 161.368 186.444C168.588 188.575 171.281 191.038 178.854 188.712C185.185 186.768 188.081 184.541 194.533 186.443C198.018 187.471 200.9 188.929 204.518 189.5" fill="#3D86CF"/>
<path fill-rule="evenodd" clip-rule="evenodd" d="M104.729 135.273H107.077V132.777H109.648V139.961H107.077V137.107H102.895V132.832H100.603V130.999H104.729V135.273ZM131.304 132.777H127.689V139.961H131.304V132.777ZM119.126 132.777H115.768C113.373 132.777 113.373 139.961 115.768 139.961H119.126V132.777ZM139.941 139.961H136.746C134.35 139.961 134.352 132.777 136.746 132.777H139.939L139.66 133.058H139.659C138.509 134.627 138.371 137.57 139.401 139.309L139.941 139.961ZM143.36 137.641H140.482V135.807L145.194 135.806V140.082H147.487V141.914H143.36V137.641ZM172.733 119.185H163.791V129.585H172.733V119.185ZM181.409 146.78V158.269H176.007V148.956C176.007 148.202 175.895 147.469 175.692 146.78H181.409ZM160.516 158.269H155.116V146.78H160.83C160.614 147.513 160.525 148.337 160.515 149.112L160.516 158.269ZM162.402 215.312L158.682 211.591H166.122L162.402 215.312ZM158.412 211.682L154.852 215.243L149.377 228.345L162.221 215.491L158.412 211.682ZM149.032 198.658L143.779 203.911H149.031L149.032 198.658ZM143.645 204.165V215.19L149.103 228.287L149.032 204.165H143.645ZM166.122 228.545V223.157H162.663L149.44 228.545H166.122ZM166.376 223.283L171.637 228.544L166.376 228.545V223.283ZM143.645 234.314V235.814L149.032 241.202L149.068 228.786L143.645 234.314ZM135.655 223.157L132.196 223.156V228.545H148.887L135.655 223.157ZM131.942 223.283L126.681 228.544L131.942 228.545V223.283ZM132.159 219.482L135.708 223.03L148.921 228.427L135.969 215.671L132.159 219.482ZM132.069 219.211V211.772L135.789 215.492L132.069 219.211ZM135.969 215.312L139.689 211.591H132.249L135.969 215.312ZM149.287 198.658L154.54 203.911H149.284C149.285 202.155 149.287 200.403 149.287 198.658ZM112.62 151.428H131.28V147.407H112.62V151.428ZM112.62 163.283H131.28V159.67H112.62V163.283ZM112.62 159.331H131.28V155.719H112.62V159.331ZM112.62 155.38H131.28V151.768H112.62V155.38ZM107.776 163.495C105.14 163.495 105.139 159.473 107.776 159.473C110.411 159.473 110.413 155.451 107.776 155.451C105.139 155.451 105.141 151.429 107.776 151.429C110.413 151.429 110.411 147.408 107.776 147.408C105.141 147.408 105.139 151.429 107.776 151.429C110.41 151.429 110.413 155.451 107.776 155.451C105.14 155.451 105.141 159.473 107.776 159.473C110.413 159.473 110.411 163.495 107.776 163.495ZM135.925 155.451C133.287 155.451 133.29 151.429 135.925 151.429C138.563 151.429 138.562 147.408 135.925 147.408C133.29 147.408 133.287 151.429 135.925 151.429C138.561 151.429 138.564 155.451 135.925 155.451C133.288 155.451 133.29 159.473 135.925 159.473C138.563 159.473 138.562 163.494 135.925 163.494C133.289 163.494 133.288 159.473 135.925 159.473C138.561 159.473 138.564 155.451 135.925 155.451V155.451ZM126.55 131.517C126.991 131.517 127.351 131.888 127.351 132.318V147.116L125.749 147.116V132.318C125.748 131.877 126.109 131.517 126.55 131.517ZM120.267 131.469C120.708 131.469 121.068 131.829 121.068 132.27V140.467C121.068 141.5 119.466 141.501 119.466 140.467V132.27C119.466 131.829 119.827 131.469 120.267 131.469ZM122.334 131.469C121.893 131.469 121.532 131.831 121.532 132.27V140.467C121.532 141.499 123.136 141.502 123.136 140.467V132.27C123.135 131.829 122.774 131.469 122.334 131.469ZM124.479 131.493C124.919 131.493 125.28 131.857 125.28 132.294V140.491C125.28 141.521 123.678 141.525 123.678 140.491V132.294C123.678 131.853 124.038 131.493 124.479 131.493V131.493ZM143.812 164.543H107.756V163.494L109.986 163.495V129.041H112.282V163.494L131.619 163.495V129.041H133.915V163.494L143.812 163.495V164.543ZM92.1657 177.189C97.1877 177.847 101.93 181.018 107.027 181.018C112.713 181.018 117.956 177.07 123.643 177.07C129.329 177.07 134.572 181.018 140.259 181.018C145.945 181.018 151.188 177.07 156.875 177.07C162.562 177.07 167.806 181.018 173.493 181.018C179.178 181.018 184.422 177.07 190.108 177.07C195.052 177.07 199.661 180.052 204.517 180.832V182.807C199.661 182.026 195.052 179.043 190.108 179.043C184.422 179.043 179.178 182.993 173.493 182.993C167.806 182.993 162.561 179.043 156.875 179.043C151.188 179.043 145.945 182.993 140.259 182.993C134.572 182.993 129.329 179.043 123.643 179.043C117.956 179.043 112.713 182.993 107.027 182.993C101.93 182.993 97.1883 179.821 92.1657 179.162V177.189ZM92.1657 184.574V185.566C99.3517 186.556 103.306 190.994 111.406 188.773C118.14 186.928 121.424 184.178 128.275 186.201C135.579 188.358 138.151 190.763 145.618 188.47C152.817 186.259 155.144 184.111 162.46 186.515C170.094 189.024 172.356 190.718 180.082 188.043C186.553 185.803 189.088 184.42 195.63 186.514C198.557 187.452 201.445 188.827 204.522 189.239V188.249C197.571 187.05 193.573 183.139 186.258 184.969C179.775 186.59 176.117 189.661 169.367 187.82C162.377 185.913 159.341 183.105 152.037 185.252C145.012 187.317 142.284 189.714 135.186 187.525C128.568 185.485 125.579 183.278 118.871 185.252C111.915 187.299 109.11 189.711 102.019 187.525C98.7307 186.511 95.5957 185.05 92.1657 184.574ZM92.1657 191.001V192.975C97.1973 193.624 101.945 196.81 107.049 196.81C112.732 196.81 117.973 192.86 123.656 192.86C129.34 192.86 134.58 196.81 140.264 196.81C145.947 196.81 151.187 192.86 156.871 192.86C162.554 192.86 167.795 196.81 173.478 196.81C179.161 196.81 184.402 192.86 190.084 192.86C195.037 192.86 199.651 195.856 204.518 196.628V194.653C199.652 193.882 195.037 190.886 190.084 190.886C184.402 190.886 179.161 194.835 173.478 194.835C167.795 194.835 162.554 190.886 156.871 190.886C151.187 190.886 145.946 194.835 140.264 194.835C134.58 194.835 129.34 190.886 123.656 190.886C117.973 190.886 112.732 194.835 107.049 194.835C101.946 194.835 97.1973 191.651 92.1657 191.001V191.001ZM155.116 158.607H160.516V163.17H159.713V164.679H154.904V164.228H155.116V158.607ZM160.051 163.508H160.854V149.118H160.856C160.754 144.977 164.131 141.548 168.261 141.548C172.419 141.548 175.732 144.977 175.667 149.118H175.668V163.508H176.472V165.325H160.051V163.508ZM162.763 163.508H173.761L173.759 148.972C173.609 142.867 165.494 141.402 163.196 146.823C162.914 147.533 162.75 148.255 162.764 149.022L162.763 163.508ZM176.007 158.607H181.409V164.227H192.153V164.678H176.811V163.169H176.007V158.607ZM163.791 129.924H172.733L181.409 146.442H175.581C173.187 139.504 163.325 139.509 160.932 146.442H155.115L163.791 129.924ZM161.943 114.594H172.624V118.846L161.943 118.846V114.594Z" fill="white"/>
<path fill-rule="evenodd" clip-rule="evenodd" d="M205.917 174.244H204.772V180.357C205.152 180.414 205.533 180.456 205.917 180.481V174.244ZM126.672 229.508H107.898C99.1924 229.508 91.9112 222.528 91.9112 213.757V193.455C91.5313 193.411 91.149 193.383 90.7661 193.373V213.757C90.7661 223.16 98.5606 230.653 107.898 230.653H127.816L126.672 229.508ZM204.772 197.18V213.757C204.772 222.528 197.491 229.508 188.785 229.508H171.646L170.502 230.653H188.785C198.123 230.653 205.917 223.16 205.917 213.757V197.293L204.772 197.18ZM91.9112 176.645V174.165L90.7667 174.178V176.566L91.9112 176.645ZM47.6877 216.393C48.746 216.702 50.0515 217.138 51.053 217.449L51.0602 231.692C51.0608 233.362 52.3316 233.903 53.9864 234.416L58.9396 235.957C60.056 236.305 58.2941 237.07 55.4103 236.14C47.6709 233.644 50.0485 234.055 42.3276 233.469C40.2025 233.308 39.5797 232.03 42.0895 231.052C43.3226 230.573 45.6254 230.608 45.5913 231.17C45.5649 231.593 43.5846 231.554 43.0354 231.584L45.0379 233.312C46.1561 232.924 47.7906 232.793 47.6829 231.162L47.6877 216.393ZM248.997 216.393C247.938 216.702 246.633 217.138 245.632 217.449L245.624 230.838C245.624 232.981 244.979 233.709 242.699 234.416L237.745 235.957C236.872 236.229 238.336 237.088 241.275 236.14C249.004 233.645 246.65 234.054 254.358 233.469C254.925 233.427 255.494 233.207 255.97 232.899C257.029 232.215 255.166 231.276 254.595 231.054C253.362 230.573 251.06 230.61 251.094 231.171C251.12 231.594 253.1 231.555 253.649 231.585L251.647 233.313C250.591 232.946 248.895 232.799 249.001 231.164L248.997 216.393ZM235.32 233.381L235.467 235.676C235.781 235.061 236.478 234.632 237.115 234.435L242.232 232.853C245.755 231.767 241.923 230.996 240.895 231.203C237.974 231.79 237.702 232.288 235.32 233.381ZM210.522 231.544V232.827C211.202 231.813 212.76 231.179 213.768 230.969C217.082 230.283 220.078 231.608 223.106 231.105C225.182 230.76 225.037 229.153 222.524 228.83C221.212 228.66 219.831 228.872 218.529 229.034C215.619 229.398 213.151 230.319 210.522 231.544ZM61.3645 233.382L61.2179 235.677C60.9038 235.062 60.2062 234.633 59.569 234.435L54.4531 232.853C50.8873 231.755 54.7259 230.989 55.7903 231.202C58.6949 231.783 58.9941 232.292 61.3645 233.382V233.382ZM86.1623 231.544V232.827C85.4832 231.813 83.9253 231.179 82.916 230.969C79.6021 230.283 76.6058 231.608 73.5779 231.105C71.5019 230.76 71.649 229.152 74.16 228.83C75.4721 228.66 76.8529 228.872 78.156 229.034C81.0577 229.397 83.5394 230.319 86.1623 231.544V231.544ZM119.023 60.4725L114.278 42.4276L118.183 45.431L121.875 59.9921L119.023 60.4725ZM135.663 57.0365L133.738 37.8321L135.869 40.5819L137.447 57.1819L135.663 57.0365ZM176.454 60.4725L181.2 42.4276L177.294 45.431L173.602 59.9921L176.454 60.4725ZM159.814 57.0365L161.738 37.8321L159.609 40.5819L158.031 57.1825L159.814 57.0365ZM177.704 81.3383C174.064 79.5094 151.757 79.2408 147.91 79.2174C141.217 79.1779 126.574 79.2916 120.223 80.5253C119.875 80.5935 118.317 80.9441 117.988 81.2193C118.833 82.0646 126.429 82.5965 127.946 82.6964C139.449 83.4509 156.369 83.4754 167.871 82.7324C169.37 82.636 176.307 82.1556 177.704 81.3383" fill="#948A1B"/>
<path fill-rule="evenodd" clip-rule="evenodd" d="M90.7669 177.075C91.1504 177.086 91.5315 177.114 91.9114 177.158V179.131C91.5309 179.087 91.1504 179.059 90.7669 179.048V177.075ZM204.772 180.87C205.152 180.925 205.533 180.966 205.917 180.99V182.966C205.534 182.942 205.152 182.9 204.772 182.846V180.87ZM204.772 188.286V189.278L205.917 189.385V188.4L204.772 188.286ZM204.772 194.691V196.666C205.152 196.72 205.533 196.761 205.917 196.784V194.81C205.533 194.786 205.152 194.745 204.772 194.691V194.691ZM91.9114 192.944V190.972C91.5315 190.929 91.151 190.901 90.7669 190.891V192.864C91.1504 192.874 91.5315 192.902 91.9114 192.944V192.944ZM91.9114 185.537V184.548L90.7669 184.478V185.463L91.9114 185.537ZM177.867 129.924H173.114L181.791 146.442H191.748L177.867 129.924ZM178.757 114.593H172.964V118.846H178.757V114.593ZM112.62 129.041H117.741V132.438H115.768C112.914 132.438 112.914 140.299 115.768 140.299L117.741 140.299V147.069H112.62V129.041ZM134.253 129.041H139.373V132.438H136.746C133.892 132.438 133.89 140.299 136.746 140.299L139.373 140.299V147.069H134.253V129.041ZM137.143 151.429H143.31V147.407H137.129C138.656 148.325 138.656 150.507 137.137 151.425L137.143 151.429ZM137.43 163.282H143.31V159.67H137.419C138.552 160.611 138.563 162.337 137.43 163.282ZM137.33 159.331H143.31V155.719H137.502C138.593 156.713 138.527 158.434 137.33 159.331ZM137.23 155.38H143.31V151.767H137.575C138.627 152.813 138.478 154.541 137.23 155.38ZM141.121 132.776C142.117 132.776 142.695 134.018 142.862 135.468H140.142V137.98H142.741C142.415 139.407 141.879 139.961 140.874 139.961C138.48 139.961 138.48 132.776 140.874 132.776H141.121ZM173.071 119.184H177.867V129.585H173.071V119.184ZM181.747 158.268H191.748V146.78H181.747V158.268ZM163.102 163.169L163.103 149.019C163.073 145.398 166.716 142.753 170.258 144.211C169.335 145.396 168.78 146.803 168.652 148.288C168.016 147.179 167.868 145.931 167.719 144.746C166.634 146.554 166.698 146.757 167.372 149.253C166.566 148.37 166.651 148.393 166.064 147.422C166 149.314 165.903 150.716 167.026 152.469C167.179 152.708 167.299 152.972 167.36 153.245C166.571 152.415 166.581 152.698 165.443 151.309L165.378 152.148C165.286 153.31 166.218 154.315 166.216 155.158C165.761 154.816 165.129 153.727 164.84 153.255C163.878 156.724 165.111 156.049 165.995 157.985C166.088 158.157 166.16 158.363 166.209 158.581C164.692 156.18 164.928 157.48 164.008 154.519C163.608 156.985 163.258 159.312 165.367 161.484C166.21 162.353 167.413 162.879 168.623 163.081V163.169L163.102 163.169ZM173.411 157.483L173.419 163.169H172.793C171.775 159.27 172.818 159.425 173.411 157.483V157.483ZM168.964 148.766C169.006 147.101 169.6 145.574 170.571 144.356C172.1 145.112 173.159 146.574 173.396 148.431L173.404 153.439L173.293 152.925C173.033 153.911 172.954 154.638 172.354 155.338C173.217 153.278 172.413 150.84 172.523 148.746L172.583 147.592C171.092 149.674 171.662 149.084 171.135 151.696C171.068 149.898 170.036 149.445 169.896 147.471L169.806 146.21C169.26 147.334 169.008 147.583 169.014 148.844L168.964 148.766ZM191.748 158.607H181.747V163.889H191.748V158.607ZM149.242 228.794L154.674 234.314V235.814L149.287 241.203L149.242 228.794ZM166.122 228.798V234.187H154.801L149.466 228.799L166.122 228.798ZM166.377 228.798V234.06L171.637 228.798H166.377ZM162.531 215.494L166.249 219.211V211.772L162.531 215.494ZM154.673 204.165V215.19L149.25 228.25C149.25 220.288 149.273 212.182 149.284 204.165H154.673ZM139.957 211.683L143.518 215.242L148.993 228.345L136.149 215.492L139.957 211.683ZM132.196 228.798V234.187H143.518L148.852 228.799L132.196 228.798ZM162.351 215.673L166.159 219.481L162.61 223.03L149.401 228.469C153.63 224.272 158.142 219.89 162.351 215.673V215.673ZM131.942 228.798V234.06L126.681 228.798H131.942Z" fill="#BDBCBC"/>
<path fill-rule="evenodd" clip-rule="evenodd" d="M172.383 162.935C169.93 162.846 167.368 163.057 165.611 161.248C164.24 159.835 163.803 157.901 164.112 155.993C164.493 157.222 166.552 158.896 166.443 160.337C166.754 159.618 166.66 158.511 166.308 157.855C165.636 156.384 164.371 156.214 164.958 154.096C165.265 154.594 165.942 155.657 166.486 155.582C166.877 154.44 165.608 153.523 165.716 152.174C166.535 153.174 167.383 153.354 167.597 154.336C168.337 152.61 166.243 152.07 166.364 148.573C166.734 149.185 167.837 150.084 167.837 150.566C168.12 149.683 166.679 147.139 167.505 145.761C167.888 148.767 169.329 149.07 169.205 150.608C169.602 149.959 169.078 148.486 169.558 147.494C169.743 150.077 171.26 150.054 170.666 153.237C171.905 152.511 171.317 149.938 172.184 148.729C172.09 150.517 173.034 153.854 171.677 155.888C170.952 156.974 170.429 157.906 170.498 158.975C171.384 155.976 172.823 156.017 173.259 154.373C173.562 155.782 173.239 157.547 172.476 158.732C172.086 159.337 171.788 160.667 172.383 162.935ZM80.6698 98.3863C79.8651 99.5482 79.1208 99.9478 78.0756 99.9245C75.8308 99.8724 73.2169 97.8263 71.3981 97.7778C70.9829 97.7671 70.6598 97.9543 70.4385 98.068L68.8793 97.6731C70.189 96.8098 73.8128 97.6606 75.4366 98.3546C77.5509 99.2568 78.5291 99.3118 80.6698 98.3863V98.3863ZM230.937 94.0487C231.591 94.0403 232.691 93.6455 233.631 93.3637C235.238 96.881 228.361 94.0475 227.414 93.7328C225.644 93.1441 223.977 93.5773 222.51 94.4053C222.677 93.177 224.81 92.7193 225.518 92.6786C227.556 92.5632 229.012 94.0738 230.937 94.0487" fill="#E02825"/>
<circle cx="150" cy="150" r="147.5" stroke="#219653" stroke-width="5"/>
</svg>
