<svg width="300" height="300" viewBox="0 0 300 300" fill="none" xmlns="http://www.w3.org/2000/svg">
<circle cx="150" cy="150" r="147.5" stroke="#219653" stroke-width="5"/>
<path d="M133.003 59.0706C132.872 59.1293 119.923 65.004 105.779 73.3387C91.6373 81.6747 80.1867 90.196 80.0733 90.28C77.1533 92.4586 74.2293 95.6333 71.62 99.4613C71.2227 100.043 71.1813 100.797 71.5093 101.421C71.84 102.044 72.4867 102.433 73.1907 102.433H83.2253C83.744 102.433 84.2387 102.221 84.5973 101.848C85.4587 100.948 86.2827 100.205 87.0573 99.6266C87.1627 99.5479 98.0907 91.4226 111.701 83.4026C125.329 75.364 137.661 69.7773 137.805 69.7133C140.669 68.416 144.889 67.672 149.385 67.672C153.873 67.672 158.095 68.416 160.976 69.7173C161.096 69.772 173.544 75.4293 187.068 83.4026C200.652 91.4106 211.604 99.548 211.719 99.6346C217.132 103.675 222.72 113.579 223.455 120.492C223.695 122.924 224.888 135.792 224.888 150.383C224.888 164.952 223.695 177.832 223.445 180.349C222.72 187.191 217.132 197.087 211.701 201.128C211.601 201.205 200.632 209.361 187.059 217.373C173.569 225.319 161.096 230.987 160.964 231.045C158.097 232.347 153.876 233.092 149.385 233.092C144.889 233.092 140.669 232.347 137.775 231.033C137.661 230.984 125.357 225.416 111.701 217.373C98.1293 209.361 87.1626 201.205 87.0426 201.115C86.2813 200.547 85.4613 199.807 84.6027 198.913C84.244 198.539 83.748 198.328 83.2293 198.328H73.1893C72.4853 198.328 71.8373 198.717 71.508 199.341C71.18 199.964 71.2213 200.719 71.6187 201.301C74.2267 205.128 77.148 208.303 80.0653 210.479C80.18 210.564 91.6373 219.085 105.779 227.428C119.924 235.764 132.873 241.637 133.005 241.696C137.407 243.673 143.223 244.763 149.385 244.763C155.541 244.763 161.353 243.673 165.756 241.695C165.885 241.637 178.839 235.764 192.983 227.428C207.124 219.085 218.576 210.563 218.689 210.479C226.648 204.555 233.987 191.588 235.045 181.572C235.061 181.428 236.552 167.052 236.552 150.383C236.552 133.713 235.061 119.331 235.045 119.187C233.987 109.179 226.648 96.212 218.691 90.2813C218.576 90.196 207.124 81.6747 192.984 73.3387C178.839 65.004 165.885 59.1293 165.755 59.0706C161.363 57.0906 155.551 56 149.385 56C143.215 56 137.397 57.0906 133.003 59.0706" fill="url(#paint0_linear)"/>
<path d="M133.888 155.735H116.599C116.432 155.735 116.294 155.865 116.286 156.033C115.851 163.837 114.38 172.25 112.25 179.115C112.219 179.209 112.236 179.314 112.296 179.395C112.355 179.475 112.45 179.521 112.548 179.521H118.466C118.603 179.521 118.723 179.434 118.766 179.303C120.42 174.011 121.751 167.133 122.258 161.279H127.934V179.209C127.934 179.382 128.074 179.521 128.247 179.521H133.888C134.063 179.521 134.203 179.382 134.203 179.209V156.05C134.203 155.875 134.063 155.735 133.888 155.735Z" fill="#EE2F53"/>
<path d="M207 155.735H201.362C201.187 155.735 201.043 155.875 201.043 156.05V173.966C199.806 174.315 198.57 174.481 197.174 174.481C193.431 174.481 192.574 173.339 192.574 168.379V156.05C192.574 155.875 192.432 155.735 192.259 155.735H186.616C186.442 155.735 186.304 155.875 186.304 156.05V168.971C186.304 177.055 189.03 180.203 196.035 180.203C200.02 180.203 204.472 179.19 207.112 178.182C207.234 178.135 207.315 178.018 207.315 177.889V156.05C207.315 155.875 207.174 155.735 207 155.735Z" fill="#EE2F53"/>
<path d="M87.3838 155.758H81.6492C81.5052 155.758 81.3798 155.855 81.3438 155.994C80.4358 159.567 78.6158 165.516 76.1718 171.756L70.4118 155.944C70.3678 155.819 70.2492 155.735 70.1185 155.735H64.3145C64.2118 155.735 64.1158 155.786 64.0572 155.87C63.9972 155.954 63.9838 156.062 64.0198 156.158L72.6398 179.827C71.7398 181.642 70.9305 183.147 70.1492 184.602C69.5732 185.672 69.0132 186.711 68.4465 187.82C68.3972 187.919 68.4025 188.035 68.4585 188.128C68.5158 188.222 68.6172 188.279 68.7278 188.279H75.0065C75.1238 188.279 75.2318 188.214 75.2852 188.11C76.3505 186.06 77.6652 183.216 78.8905 180.308C82.5558 171.688 85.5132 163.564 87.6825 156.16C87.7118 156.063 87.6932 155.962 87.6345 155.884C87.5758 155.803 87.4812 155.758 87.3838 155.758Z" fill="#EE2F53"/>
<path d="M107.94 173.982C107.912 173.903 107.853 173.839 107.777 173.803C107.7 173.769 107.614 173.766 107.533 173.794C106.157 174.305 103.578 174.719 101.782 174.719C97.8492 174.719 95.9758 173.657 95.9758 167.625C95.9758 162.803 96.5492 160.53 101.782 160.53C103.266 160.53 104.644 160.746 106.393 161.253C106.536 161.293 106.686 161.229 106.757 161.098C107.412 159.871 108.201 158.37 109.09 156.533C109.13 156.449 109.133 156.355 109.096 156.27C109.06 156.186 108.99 156.122 108.904 156.094C106.588 155.357 103.84 154.933 101.366 154.933C93.1318 154.933 89.4585 158.818 89.4585 167.534C89.4585 176.375 93.1318 180.321 101.366 180.321C103.432 180.321 107.502 179.887 109.462 179.102C109.62 179.039 109.7 178.862 109.642 178.703L107.94 173.982Z" fill="#EE2F53"/>
<path d="M161.64 155.758H155.905C155.762 155.758 155.637 155.855 155.601 155.994C154.694 159.571 152.873 165.522 150.43 171.756L144.669 155.944C144.625 155.819 144.506 155.735 144.376 155.735H138.572C138.47 155.735 138.373 155.786 138.314 155.87C138.254 155.954 138.242 156.062 138.276 156.158L146.896 179.827C146 181.636 145.192 183.139 144.41 184.591C143.833 185.664 143.273 186.708 142.706 187.82C142.656 187.919 142.662 188.035 142.717 188.128C142.774 188.222 142.876 188.279 142.986 188.279H149.264C149.38 188.279 149.489 188.214 149.542 188.11C150.608 186.062 151.922 183.219 153.145 180.308C156.806 171.703 159.766 163.579 161.942 156.16C161.968 156.063 161.95 155.962 161.892 155.884C161.832 155.803 161.738 155.758 161.64 155.758Z" fill="#EE2F53"/>
<path d="M182.817 155.735H166.114C165.941 155.735 165.801 155.875 165.801 156.05V179.209C165.801 179.382 165.941 179.521 166.114 179.521H171.754C171.927 179.521 172.067 179.382 172.067 179.209V161.279H180.79C180.917 161.279 181.03 161.202 181.079 161.087C181.743 159.522 182.423 157.866 183.106 156.167C183.147 156.07 183.134 155.959 183.077 155.874C183.017 155.787 182.921 155.735 182.817 155.735Z" fill="#EE2F53"/>
<path d="M96.5323 139.827C92.8163 139.827 91.6603 138.818 91.6603 132.499C91.6603 125.77 92.9229 125.168 96.5323 125.168C100.21 125.168 101.498 125.77 101.498 132.499C101.498 138.818 100.318 139.827 96.5323 139.827ZM96.5323 119.944C88.3829 119.944 85.2083 123.439 85.2083 132.407C85.2083 141.506 88.3829 145.051 96.5323 145.051C104.748 145.051 107.948 141.506 107.948 132.407C107.948 123.439 104.748 119.944 96.5323 119.944Z" fill="#0066B3"/>
<path d="M130.46 138.874C130.431 138.797 130.372 138.731 130.296 138.695C130.219 138.661 130.133 138.658 130.053 138.686C128.679 139.197 126.096 139.613 124.303 139.613C120.368 139.613 118.495 138.549 118.495 132.517C118.495 127.694 119.068 125.422 124.303 125.422C125.785 125.422 127.164 125.638 128.913 126.143C129.055 126.183 129.207 126.121 129.277 125.99C129.932 124.763 130.72 123.261 131.609 121.423C131.649 121.342 131.653 121.246 131.616 121.162C131.58 121.077 131.509 121.013 131.423 120.986C129.108 120.247 126.36 119.825 123.887 119.825C115.651 119.825 111.977 123.71 111.977 132.426C111.977 141.269 115.651 145.213 123.887 145.213C125.951 145.213 130.021 144.779 131.983 143.995C132.14 143.931 132.219 143.754 132.163 143.595L130.46 138.874Z" fill="#0066B3"/>
<path d="M82.9841 120.627H66.2828C66.1081 120.627 65.9681 120.767 65.9681 120.941V144.1C65.9681 144.273 66.1081 144.415 66.2828 144.415H71.9228C72.0948 144.415 72.2361 144.273 72.2361 144.1V126.171H80.9575C81.0841 126.171 81.1975 126.095 81.2468 125.979C81.9108 124.413 82.5935 122.757 83.2761 121.059C83.3148 120.961 83.3028 120.851 83.2441 120.765C83.1855 120.679 83.0881 120.627 82.9841 120.627Z" fill="#0066B3"/>
<defs>
<linearGradient id="paint0_linear" x1="160.539" y1="60.8949" x2="143.53" y2="245.867" gradientUnits="userSpaceOnUse">
<stop stop-color="#0066B3"/>
<stop offset="0.185387" stop-color="#0066B3"/>
<stop offset="0.722597" stop-color="#EE2F53"/>
<stop offset="1" stop-color="#EE2F53"/>
</linearGradient>
</defs>
</svg>
