<svg width="300" height="300" viewBox="0 0 300 300" fill="none" xmlns="http://www.w3.org/2000/svg">
<path d="M212.009 175.379C207.601 170.789 202.284 168.335 196.649 168.335C191.059 168.335 185.697 170.743 181.107 175.333L166.747 189.648C165.565 189.012 164.384 188.421 163.248 187.83C161.612 187.012 160.067 186.24 158.749 185.422C145.298 176.878 133.074 165.745 121.349 151.339C115.669 144.159 111.852 138.115 109.079 131.98C112.806 128.572 116.26 125.028 119.622 121.619C120.895 120.347 122.167 119.029 123.44 117.757C132.983 108.213 132.983 95.8529 123.44 86.3098L111.034 73.9038C109.625 72.4951 108.171 71.0409 106.807 69.5867C104.081 66.7692 101.218 63.8609 98.264 61.1343C93.856 56.7717 88.5846 54.4541 83.0405 54.4541C77.4964 54.4541 72.1341 56.7717 67.5898 61.1343C67.5443 61.1797 67.5443 61.1797 67.4989 61.2251L52.0482 76.8122C46.2314 82.6289 42.9141 89.7181 42.187 97.9433C41.0964 111.213 45.0045 123.573 48.0037 131.662C55.3655 151.521 66.3628 169.925 82.7678 189.648C102.672 213.415 126.621 232.183 153.977 245.407C164.429 250.36 178.381 256.222 193.968 257.222C194.922 257.267 195.922 257.313 196.83 257.313C207.328 257.313 216.144 253.541 223.051 246.043C223.097 245.952 223.188 245.907 223.233 245.816C225.596 242.953 228.323 240.363 231.186 237.59C233.14 235.727 235.139 233.773 237.093 231.728C241.592 227.048 243.955 221.594 243.955 216.005C243.955 210.37 241.547 204.962 236.957 200.418L212.009 175.379Z" fill="#219653"/>
<path d="M158.204 93.2172C170.11 95.2167 180.925 100.852 189.56 109.486C198.194 118.12 203.783 128.936 205.828 140.842C206.328 143.841 208.918 145.931 211.872 145.931C212.236 145.931 212.554 145.886 212.917 145.841C216.28 145.295 218.507 142.114 217.962 138.751C215.508 124.346 208.691 111.213 198.285 100.806C187.878 90.3997 174.745 83.5833 160.34 81.1293C156.977 80.584 153.841 82.8107 153.25 86.1281C152.66 89.4454 154.841 92.6719 158.204 93.2172Z" fill="#219653"/>
<path d="M256.907 136.979C252.862 113.258 241.683 91.6721 224.506 74.4946C207.328 57.317 185.742 46.138 162.021 42.0935C158.704 41.5028 155.568 43.7749 154.977 47.0923C154.432 50.4551 156.659 53.5907 160.022 54.1814C181.198 57.7715 200.512 67.8144 215.871 83.1288C231.231 98.4886 241.229 117.802 244.819 138.979C245.319 141.978 247.909 144.068 250.863 144.068C251.226 144.068 251.544 144.023 251.908 143.977C255.225 143.477 257.497 140.296 256.907 136.979Z" fill="#219653"/>
<circle cx="150" cy="150" r="147.5" stroke="#219653" stroke-width="5"/>
</svg>
