<svg width="300" height="300" viewBox="0 0 300 300" fill="none" xmlns="http://www.w3.org/2000/svg">
<path fill-rule="evenodd" clip-rule="evenodd" d="M149.08 100.75C151.84 100.75 154.6 99.8302 160.12 97.9906C160.12 97.9906 167.48 97.9906 167.48 79.5943C167.48 66.717 160.12 68.5566 160.12 68.5566V53.8396L169.32 52H130.68L139.88 53.8396V68.5566C139.88 68.5566 130.68 68.5566 130.68 79.5943C130.68 97.9906 138.04 97.9906 138.04 97.9906C143.56 99.8302 146.32 100.75 149.08 100.75ZM178.52 133.142C171.16 136.821 123.32 136.821 115.96 133.142C108.6 129.462 134.36 107.387 134.36 107.387H163.8C163.8 107.387 185.88 129.462 178.52 133.142ZM68.12 232V220.962H86.52V151.057H219V220.962H233.72V232H239V220.962H250.28V143.698H49.72V220.962H63V232H68.12ZM99.4 156.934H202.44V213.962L193.24 223.16H109.395L100.195 213.962L99.4 156.934ZM145.5 171V185H133V196H145.5V210H156.5V196H169V185H156.5V171H145.5Z" fill="#219653"/>
<circle cx="150" cy="150" r="147.5" stroke="#219653" stroke-width="5"/>
</svg>
